<?xml version="1.0" encoding="utf-8"?>
<!-- Generator: Adobe Illustrator 16.0.0, SVG Export Plug-In . SVG Version: 6.00 Build 0)  -->
<!DOCTYPE svg PUBLIC "-//W3C//DTD SVG 1.1//EN" "http://www.w3.org/Graphics/SVG/1.1/DTD/svg11.dtd">
<svg version="1.1" id="Layer_1" xmlns="http://www.w3.org/2000/svg" xmlns:xlink="http://www.w3.org/1999/xlink" x="0px" y="0px"
	 width="202.025px" height="212.313px" viewBox="0 0 202.025 212.313" enable-background="new 0 0 202.025 212.313"
	 xml:space="preserve">
<g>
	<path fill="#075670" d="M141.998,209.621l-0.045-0.07c-0.596-0.942-6.974-11.011-7.551-11.69c3.958-2.202,7.099-5.99,7.099-11.316
		c0-8.409-5.27-13.245-13.681-13.245h-10.195h-2.615h-2.847h-1.577h-3.105l-1.002,1.728l-0.023,0.038
		c-0.031,0.052-0.063,0.103-0.098,0.161l-1.631,2.828l-2.284,3.938l1.972-3.405l-2.943,5.099l-0.006-0.008l0.978-1.686l-0.978,1.686
		l-4.939-8.452l4.939,8.452l0,0l-4.939-8.452l-1.122-1.927h-3.439H88.52h-0.355l0,0H77.566l0,0H67.365h-6.722H58.28v2.308v6.084
		v25.668V210v2.313h2.363h3.187H81.1h3.06h0.771h0.762h4.041h1.959h0.279h3.135l1.137-2.029l5.059-9.017l5.317,9.172l1.088,1.874
		h3.323h6.859h0.227h2.655l-1.192-1.832c-0.074-0.157-0.177-0.313-0.301-0.472l-9.488-14.591l-1.951-3.001l6.112-9.504h12.665
		c2.358,0,3.623,1.372,3.623,3.569c0,2.256-1.375,3.686-3.623,3.686h-9.718l5.663,8.712l7.158,11.01l1.57,2.423h3.346h2.468h3.468
		h3.174l-1.748-2.688V209.621z M101.464,183.677l0.002,0.008L101.464,183.677L101.464,183.677z M69.161,202.693v-5.273h9.27h2.325
		h2.365v-2.363v-4.945v-2.305h-2.365H78.43h-9.27v-4.893h13.511h0.993h2.363v-2.36v-1.062v-1.235l9.015,14.161l-8.571,13.382v-0.444
		v-0.354v-2.309H84.16H81.1H69.161z"/>
	<g>
		<path fill="#075670" d="M150.172,105.627h-0.017H46.431l-28.955,29.481c-1.597,1.637-2.048,3.931-1.19,6.048
			c0.873,2.123,2.778,3.424,5.034,3.424h76.963h65.472c1.507,0,2.793-0.534,3.871-1.619l9.605-9.785l23.189-23.629
			c1.063-1.088,1.604-2.505,1.604-3.919H150.172z"/>
		<polygon fill="none" points="98.284,52.809 46.431,105.627 150.172,105.627 		"/>
		<path fill="#3FBFBB" d="M150.172,105.627h51.854c0-1.425-0.541-2.85-1.604-3.923L102.155,1.626C101.094,0.542,99.799,0,98.284,0
			c-1.493,0-2.788,0.542-3.834,1.626L1.614,96.145c-1.599,1.626-2.052,3.934-1.171,6.054c0.857,2.124,2.759,3.429,5.039,3.429
			h40.949L92.287,58.93c1.656-1.694,3.653-2.533,5.997-2.533c2.355,0,4.343,0.838,6.012,2.533L150.172,105.627z"/>
		<path opacity="0.5" fill="#4AC2C7" d="M202.025,105.627h-51.854h-0.017l27.077,27.548l23.189-23.629
			C201.484,108.458,202.025,107.042,202.025,105.627z"/>
		<line fill="none" x1="150.172" y1="105.627" x2="177.232" y2="133.175"/>
	</g>
</g>
</svg>
