<?xml version="1.0" standalone="no"?>
<!DOCTYPE svg PUBLIC "-//W3C//DTD SVG 1.1//EN" "http://www.w3.org/Graphics/SVG/1.1/DTD/svg11.dtd" >
<svg xmlns="http://www.w3.org/2000/svg" xmlns:xlink="http://www.w3.org/1999/xlink" version="1.1">
<metadata>
Created by FontForge 20150318 at Fri Sep 11 19:17:48 2015
 By uniteet7
Copyright (C) 2002, 2007 Hoefler &#38; Frere-Jones. http://www.typography.com
</metadata>
<defs>
<font id="ChronicleDispLight" horiz-adv-x="767" >
  <font-face 
    font-family="ChronicleDispLight"
    font-weight="300"
    font-stretch="normal"
    units-per-em="1000"
    panose-1="0 0 0 0 0 0 0 0 0 0"
    ascent="800"
    descent="-200"
    x-height="456"
    cap-height="697"
    bbox="-65 -262 1080 1112"
    underline-thickness="50"
    underline-position="-50"
    unicode-range="U+0020-FB04"
  />
<missing-glyph horiz-adv-x="500" 
d="M0 -200v1000h500v-1000h-500zM71 750l179 -390l179 390h-358zM50 -76l172 376l-172 376v-752zM450 676l-172 -376l172 -376v752zM250 240l-179 -390h358z" />
    <glyph glyph-name="f_f" unicode="ff" horiz-adv-x="570" 
d="M287 722q95 0 130 -54l7 8q47 47 107 47q51 0 81.5 -21t30.5 -51q0 -23 -13.5 -36.5t-33.5 -13.5q-21 0 -35 13t-14 36q0 28 19 45q-17 15 -44 15q-29 0 -48 -19q-31 -31 -31 -132v-104h133v-20h-133v-386q0 -25 20 -32.5t77 -7.5v-9h-241v9q39 1 53.5 8.5t14.5 31.5v386
h-190v-386q0 -25 15.5 -32.5t60.5 -7.5v-9h-229v9q46 1 61.5 8t15.5 32v386h-87v9l87 14v47q0 109 57 166q51 51 129 51zM367 498q0 44 6 77q-37 7 -37 48q0 31 25 47q-21 39 -76 39q-46 0 -75 -30q-33 -35 -33 -122v-102h190v43z" />
    <glyph glyph-name="fi" unicode="fi" horiz-adv-x="539" 
d="M24 0v9q46 1 61.5 8t15.5 32v386h-87v9l87 14v48q0 109 57 166q51 51 133 51q78 0 119 -34t41 -73q0 -25 -13 -39.5t-34 -14.5t-35.5 12.5t-14.5 38.5q0 15 8 28.5t21 18.5q-8 21 -32.5 35.5t-61.5 14.5q-48 0 -77 -29q-35 -33 -35 -131v-95h154l117 5v-411q0 -25 15 -32
t61 -8v-9h-221v9q40 1 54.5 8.5t14.5 31.5v386h-195v-386q0 -25 15.5 -32.5t61.5 -7.5v-9h-230z" />
    <glyph glyph-name="fl" unicode="fl" horiz-adv-x="539" 
d="M372 435h-195v-386q0 -25 15.5 -32.5t61.5 -7.5v-9h-230v9q46 1 61.5 8t15.5 32v386h-87v9l87 14v47q0 110 57 167q51 51 128 51q47 0 78 -14l84 11v-671q0 -25 15 -32t61 -8v-9h-221v9q40 1 54.5 8.5t14.5 31.5v386zM372 578q-19 2 -31 14t-12 34q0 32 26 47
q-19 37 -72 37q-42 0 -72 -28q-34 -36 -34 -124v-103h195v123z" />
    <glyph glyph-name="f_f_i" unicode="ffi" horiz-adv-x="805" 
d="M287 722q98 0 131 -56l6 6q51 51 133 51q78 0 119 -34t41 -73q0 -25 -13 -39.5t-35 -14.5q-20 0 -34.5 12t-14.5 38q0 15 8 29t21 19q-8 21 -32.5 35.5t-61.5 14.5q-48 0 -77 -29q-35 -33 -35 -131v-95h154l117 5v-411q0 -25 15 -32t61 -8v-9h-221v9q40 1 54.5 8.5
t14.5 31.5v386h-195v-386q0 -25 15.5 -32.5t61.5 -7.5v-9h-221v9q39 1 53.5 8.5t14.5 31.5v386h-190v-386q0 -25 15.5 -32.5t60.5 -7.5v-9h-229v9q46 1 61.5 8t15.5 32v386h-87v9l87 14v47q0 109 57 166q51 51 129 51zM367 455v51q0 38 6 68q-39 6 -39 49q0 14 8 27.5
t19 19.5q-21 39 -76 39q-46 0 -75 -30q-33 -35 -33 -122v-102h190z" />
    <glyph glyph-name="f_f_l" unicode="ffl" horiz-adv-x="805" 
d="M299 0v9q39 1 53.5 8.5t14.5 31.5v386h-190v-386q0 -25 15.5 -32.5t60.5 -7.5v-9h-229v9q46 1 61.5 8t15.5 32v386h-87v9l87 14v47q0 109 57 166q51 51 129 51q98 0 131 -56l6 6q51 51 128 51q47 0 78 -14l84 11v-671q0 -25 15 -32t61 -8v-9h-221v9q40 1 54.5 8.5
t14.5 31.5v386h-195v-386q0 -25 15.5 -32.5t61.5 -7.5v-9h-221zM367 505q0 41 7 69q-38 7 -38 49q0 31 25 47q-21 39 -76 39q-46 0 -75 -30q-33 -35 -33 -122v-102h190v50zM638 455v123q-19 2 -31 14t-12 34q0 32 26 47q-19 37 -72 37q-42 0 -72 -28q-34 -36 -34 -124v-103
h195z" />
    <glyph glyph-name="f_b" unicode="fb" horiz-adv-x="823" 
d="M372 578q-19 2 -31 14t-12 34q0 32 26 47q-19 37 -72 37q-42 0 -72 -28q-34 -36 -34 -124v-103h195v123zM570 6q64 0 98 61t34 166q0 87 -38 142.5t-102 55.5q-61 0 -114 -59v-283q15 -40 48 -61.5t74 -21.5zM274 0h-250v9q46 1 61.5 8t15.5 32v386h-87v9l87 14v47
q0 110 57 167q51 51 128 51q47 0 78 -14l84 11v-332q70 76 152 76q83 0 134.5 -63.5t51.5 -161.5q0 -105 -60 -176t-151 -71q-81 0 -154 47l-45 -53h-8l4 89v360h-195v-386q0 -25 20 -32.5t77 -7.5v-9z" />
    <glyph glyph-name="f_h" unicode="fh" horiz-adv-x="820" 
d="M372 578q-19 2 -31 14t-12 34q0 32 26 47q-19 37 -72 37q-42 0 -72 -28q-34 -36 -34 -124v-103h195v123zM520 0h-218v9q41 1 55.5 8.5t14.5 31.5v386h-195v-386q0 -25 15.5 -32.5t61.5 -7.5v-9h-230v9q46 1 61.5 8t15.5 32v386h-87v9l87 14v47q0 110 57 167q51 51 128 51
q47 0 78 -14l84 11v-375q72 119 171 119q58 0 89.5 -35.5t31.5 -101.5v-278q0 -25 15 -32t59 -8v-9h-217v9q41 1 54 8t13 32v255q0 60 -20.5 90t-67.5 30q-37 0 -71 -28t-57 -74v-273q0 -25 14 -32t58 -8v-9z" />
    <glyph glyph-name="f_j" unicode="fj" horiz-adv-x="529" 
d="M274 0h-250v9q46 1 61.5 8t15.5 32v386h-87v9l87 14v48q0 109 57 166q51 51 133 51q78 0 119 -34t41 -73q0 -25 -13 -39.5t-34 -14.5t-35.5 12.5t-14.5 38.5q0 15 8 28.5t21 18.5q-8 21 -32.5 35.5t-61.5 14.5q-48 0 -77 -29q-35 -33 -35 -131v-95h154l117 5v-456
q0 -69 -7.5 -104.5t-33.5 -61.5q-36 -36 -94 -36q-42 0 -71 18t-29 48q0 20 13.5 34.5t33.5 14.5t32 -13t12 -33q0 -28 -23 -41q11 -15 38 -15q29 0 41 20t12 62v538h-195v-386q0 -25 20 -32.5t77 -7.5v-9z" />
    <glyph glyph-name="f_k" unicode="fk" horiz-adv-x="786" 
d="M372 578q-19 2 -31 14t-12 34q0 32 26 47q-19 37 -72 37q-42 0 -72 -28q-34 -36 -34 -124v-103h195v123zM524 0h-221v9q40 1 54.5 8.5t14.5 31.5v386h-195v-386q0 -25 15.5 -32.5t61.5 -7.5v-9h-230v9q46 1 61.5 8t15.5 32v386h-87v9l87 14v47q0 110 57 167q51 51 128 51
q47 0 78 -14l84 11v-513l158 159q36 36 29 56.5t-62 25.5v8h198v-8q-40 -5 -68.5 -22t-80.5 -68l-71 -69l152 -206q34 -46 50 -58t51 -16v-9h-215v9q43 4 50.5 18t-13.5 40l-124 174l-54 -53v-139q0 -25 15 -32t61 -8v-9z" />
    <glyph glyph-name="f_f_b" unicode="ffb" horiz-adv-x="1089" 
d="M540 0h-241v9q39 1 53.5 8.5t14.5 31.5v386h-190v-386q0 -25 15.5 -32.5t60.5 -7.5v-9h-229v9q46 1 61.5 8t15.5 32v386h-87v9l87 14v47q0 109 57 166q51 51 129 51q98 0 131 -56l6 6q51 51 128 51q47 0 78 -14l84 11v-332q70 76 152 76q83 0 134.5 -63.5t51.5 -161.5
q0 -105 -60 -176t-151 -71q-81 0 -154 47l-45 -53h-8l4 89v360h-195v-386q0 -25 20 -32.5t77 -7.5v-9zM836 6q64 0 98 61t34 166q0 87 -38 142.5t-102 55.5q-61 0 -114 -59v-283q15 -40 48 -61.5t74 -21.5zM367 505q0 41 7 69q-38 7 -38 49q0 31 25 47q-21 39 -76 39
q-46 0 -75 -30q-33 -35 -33 -122v-102h190v50zM638 455v123q-19 2 -31 14t-12 34q0 32 26 47q-19 37 -72 37q-42 0 -72 -28q-34 -36 -34 -124v-103h195z" />
    <glyph glyph-name="f_f_h" unicode="ffh" horiz-adv-x="1086" 
d="M299 0v9q39 1 53.5 8.5t14.5 31.5v386h-190v-386q0 -25 15.5 -32.5t60.5 -7.5v-9h-229v9q46 1 61.5 8t15.5 32v386h-87v9l87 14v47q0 109 57 166q51 51 129 51q98 0 131 -56l6 6q51 51 128 51q47 0 78 -14l84 11v-375q72 119 171 119q58 0 89.5 -35.5t31.5 -101.5v-278
q0 -25 15 -32t59 -8v-9h-217v9q41 1 54 8t13 32v255q0 60 -20.5 90t-67.5 30q-37 0 -71 -28t-57 -74v-273q0 -25 15 -32t61 -8v-9h-221v9q40 1 54.5 8.5t14.5 31.5v386h-195v-386q0 -25 15.5 -32.5t61.5 -7.5v-9h-221zM367 505q0 41 7 69q-38 7 -38 49q0 31 25 47
q-21 39 -76 39q-46 0 -75 -30q-33 -35 -33 -122v-102h190v50zM638 455v123q-19 2 -31 14t-12 34q0 32 26 47q-19 37 -72 37q-42 0 -72 -28q-34 -36 -34 -124v-103h195z" />
    <glyph glyph-name="f_f_j" unicode="ffj" horiz-adv-x="795" 
d="M540 0h-241v9q39 1 53.5 8.5t14.5 31.5v386h-190v-386q0 -25 15.5 -32.5t60.5 -7.5v-9h-229v9q46 1 61.5 8t15.5 32v386h-87v9l87 14v47q0 109 57 166q51 51 129 51q98 0 131 -56l6 6q51 51 133 51q78 0 119 -34t41 -73q0 -25 -13 -39.5t-35 -14.5q-20 0 -34.5 12
t-14.5 38q0 15 8 29t21 19q-8 21 -32.5 35.5t-61.5 14.5q-48 0 -77 -29q-35 -33 -35 -131v-95h154l117 5v-456q0 -69 -7.5 -104.5t-33.5 -61.5q-36 -36 -94 -36q-42 0 -71 18t-29 48q0 20 13.5 34.5t33.5 14.5t32 -13t12 -33q0 -28 -23 -41q11 -15 38 -15q29 0 41 20t12 62
v538h-195v-386q0 -25 20 -32.5t77 -7.5v-9zM367 506q0 38 6 68q-39 6 -39 49q0 14 8 27.5t19 19.5q-21 39 -76 39q-46 0 -75 -30q-33 -35 -33 -122v-102h190v51z" />
    <glyph glyph-name="f_f_k" unicode="ffk" horiz-adv-x="1052" 
d="M299 0v9q39 1 53.5 8.5t14.5 31.5v386h-190v-386q0 -25 15.5 -32.5t60.5 -7.5v-9h-229v9q46 1 61.5 8t15.5 32v386h-87v9l87 14v47q0 109 57 166q51 51 129 51q98 0 131 -56l6 6q51 51 128 51q47 0 78 -14l84 11v-513l158 159q36 36 29 56.5t-62 25.5v8h198v-8
q-40 -5 -68.5 -22t-80.5 -68l-71 -69l152 -206q34 -46 50 -58t51 -16v-9h-215v9q43 4 50.5 18t-13.5 40l-124 174l-54 -53v-139q0 -25 15 -32t61 -8v-9h-221v9q40 1 54.5 8.5t14.5 31.5v386h-195v-386q0 -25 15.5 -32.5t61.5 -7.5v-9h-221zM367 505q0 41 7 69q-38 7 -38 49
q0 31 25 47q-21 39 -76 39q-46 0 -75 -30q-33 -35 -33 -122v-102h190v50zM638 455v123q-19 2 -31 14t-12 34q0 32 26 47q-19 37 -72 37q-42 0 -72 -28q-34 -36 -34 -124v-103h195z" />
    <glyph glyph-name=".notdef" horiz-adv-x="500" 
d="M0 -200v1000h500v-1000h-500zM71 750l179 -390l179 390h-358zM50 -76l172 376l-172 376v-752zM450 676l-172 -376l172 -376v752zM250 240l-179 -390h358z" />
    <glyph glyph-name=".null" horiz-adv-x="0" 
 />
    <glyph glyph-name="nonmarkingreturn" horiz-adv-x="333" 
 />
    <glyph glyph-name="space" unicode=" " horiz-adv-x="192" 
 />
    <glyph glyph-name="exclam" unicode="!" horiz-adv-x="271" 
d="M128 186q-6 117 -24 273t-18 195q0 71 50 71q49 0 49 -71q0 -40 -18.5 -196t-24.5 -272h-14zM136 -16q-23 0 -39 15.5t-16 38.5t16 38.5t39 15.5q22 0 38 -15.5t16 -37.5q0 -23 -15.5 -39t-38.5 -16z" />
    <glyph glyph-name="quotedbl" unicode="&#x22;" horiz-adv-x="400" 
d="M238 442l-9 4l23 97q28 120 32 128q14 29 40 29q19 0 31 -13t12 -31q0 -10 -5 -22q-12 -28 -68 -110zM75 442l-9 4l23 97q28 120 32 128q15 29 40 29q19 0 31 -13t12 -31q0 -10 -5 -22q-12 -28 -68 -110z" />
    <glyph glyph-name="numbersign" unicode="#" horiz-adv-x="703" 
d="M319 703l-45 -225h214q40 206 45 225h21l-45 -225h160v-17h-163l-51 -254h171v-17h-174l-46 -232h-21l45 232h-213l-46 -232h-21l45 232h-157v17h161l50 254h-167v17h171q40 206 45 225h21zM434 207l50 254h-213l-51 -254h214z" />
    <glyph glyph-name="dollar" unicode="$" horiz-adv-x="565" 
d="M281 -64v83q-90 1 -152 39.5t-62 92.5q0 23 14.5 40t40.5 17q22 0 36.5 -15.5t14.5 -36.5q0 -37 -40 -55q16 -26 57.5 -45.5t90.5 -21.5v263l-8 3q-37 12 -56 18.5t-48.5 21.5t-44.5 30t-26.5 40t-11.5 56q0 76 58 123.5t137 51.5v72h20v-72q80 -2 135 -39t55 -84
q0 -23 -12.5 -38t-34.5 -15q-25 0 -38 14t-13 35q0 34 34 52q-15 24 -48.5 41.5t-77.5 19.5v-252l20 -6q46 -14 67.5 -22.5t53.5 -27.5t46 -47t14 -67q0 -71 -52 -126.5t-149 -59.5v-83h-20zM439 158q0 52 -33 80t-105 52v-256q69 2 103.5 36t34.5 88zM156 504
q0 -48 30.5 -74t94.5 -48v244q-58 -3 -91.5 -34t-33.5 -88z" />
    <glyph glyph-name="percent" unicode="%" horiz-adv-x="810" 
d="M579 4q44 0 83 41t59 95t20 102q0 101 -73 101q-65 0 -111.5 -82.5t-46.5 -168.5q0 -88 69 -88zM574 -14q-64 0 -99 40t-35 103q0 89 65 166t148 77q48 0 77.5 -34.5t29.5 -94.5q0 -46 -20.5 -103.5t-65 -105.5t-100.5 -48zM354 544q0 15 -4 41q-50 17 -87 57
q-39 -8 -72.5 -49.5t-50.5 -95t-17 -103.5q0 -88 69 -88q44 0 83 41t59 95t20 102zM266 674q68 0 94 -62q37 -19 87 -19q102 0 191 96h19l-476 -715h-39l456 656l-3 2q-70 -60 -161 -60q-36 0 -64 7q3 -15 3 -34q0 -46 -20.5 -103.5t-65 -105.5t-100.5 -48q-64 0 -99 40
t-35 103q0 89 65 166t148 77z" />
    <glyph glyph-name="ampersand" unicode="&#x26;" horiz-adv-x="752" 
d="M327 383q53 35 71.5 70.5t18.5 89.5q0 53 -23 81.5t-67 28.5q-47 0 -72.5 -29t-25.5 -75q0 -64 98 -166zM262 343q-59 -29 -87.5 -70t-28.5 -107q0 -62 40 -102t105 -40q49 0 84.5 23t73.5 70q-31 55 -82 116.5t-105 109.5zM495 185q81 166 159 166q31 0 47.5 -16
t16.5 -43q0 -22 -13.5 -37.5t-36.5 -15.5q-21 0 -34.5 13t-13.5 32q0 22 13 35l-2 3q-60 -19 -127 -148q40 -74 73.5 -107t69.5 -33q32 0 72 32l6 -8q-75 -75 -128 -75q-45 0 -75.5 29t-66.5 92q-85 -121 -202 -121q-93 0 -143 49.5t-50 121.5q0 132 193 197
q-4 4 -18.5 20.5t-18.5 21.5t-15 19t-14.5 22t-9.5 21t-8 25.5t-2 26.5q0 68 46.5 113t120.5 45q67 0 110 -35t43 -90q0 -47 -34.5 -84.5t-116.5 -81.5q107 -92 159 -189z" />
    <glyph glyph-name="quotesingle" unicode="'" horiz-adv-x="237" 
d="M75 442l-9 4l23 97q28 120 32 128q15 29 40 29q19 0 31 -13t12 -31q0 -10 -5 -22q-12 -28 -68 -110z" />
    <glyph glyph-name="parenleft" unicode="(" horiz-adv-x="383" 
d="M404 -166q-47 20 -91 48.5t-87.5 71t-75.5 92t-52 115.5t-20 138q0 90 29.5 169t79 135.5t103.5 96t114 64.5l4 -8q-58 -31 -100 -67.5t-77 -89.5t-53 -128.5t-18 -171.5q0 -184 64 -288.5t184 -168.5z" />
    <glyph glyph-name="parenright" unicode=")" horiz-adv-x="383" 
d="M-22 -166l-4 8q58 31 100.5 68t77.5 90t53 128t18 171t-18 171.5t-53 128.5t-77.5 89.5t-100.5 67.5l4 8q60 -25 114.5 -65t104 -96t79 -135t29.5 -169q0 -89 -29.5 -168t-79 -135.5t-104 -96.5t-114.5 -65z" />
    <glyph glyph-name="asterisk" unicode="*" horiz-adv-x="423" 
d="M265 392q-26 -8 -38 27q-8 29 -15 129l-6 2q-67 -81 -88 -95q-29 -20 -46 1q-15 22 14 44q24 18 117 54v6q-90 35 -117 54q-30 22 -14 44q17 23 46 1q7 -5 21 -19.5t26.5 -29t25.5 -29.5t15 -17l6 2q7 104 15 128q11 35 38 27q25 -7 15 -44q-5 -14 -29.5 -55.5
t-34.5 -57.5l4 -4q117 25 127 25q36 0 36 -28t-36 -28q-11 0 -39 5.5t-56 11.5t-32 7l-4 -3q57 -93 64 -114q10 -36 -15 -44z" />
    <glyph glyph-name="plus" unicode="+" horiz-adv-x="556" 
d="M54 317v17h215v213h20v-213h213v-17h-213v-217h-20v217h-215z" />
    <glyph glyph-name="comma" unicode="," horiz-adv-x="209" 
d="M25 -139l-6 10q46 24 75 59.5t33 68.5l-4 2q-10 -10 -27 -10q-20 0 -34 13.5t-14 34.5q0 22 14.5 38t37.5 16q29 0 46 -19t17 -50q0 -98 -138 -163z" />
    <glyph glyph-name="hyphen" unicode="-" horiz-adv-x="366" 
d="M55 241v36h256v-36h-256z" />
    <glyph glyph-name="period" unicode="." horiz-adv-x="209" 
d="M105 -16q-23 0 -39 15.5t-16 38.5t16 38.5t39 15.5q22 0 38 -15.5t16 -37.5q0 -23 -15.5 -39t-38.5 -16z" />
    <glyph glyph-name="slash" unicode="/" horiz-adv-x="452" 
d="M9 -215l212 481l209 480h23l-213 -482l-208 -479h-23z" />
    <glyph glyph-name="zero" unicode="0" horiz-adv-x="597" 
d="M298 -14q-108 0 -181.5 98.5t-73.5 243.5q0 144 76 245t181 101q107 0 180.5 -98.5t73.5 -243.5q0 -144 -76 -245t-180 -101zM302 -1q80 0 118.5 76.5t38.5 254.5q0 177 -40.5 254t-122.5 77q-81 0 -119 -76t-38 -255q0 -177 40.5 -254t122.5 -77z" />
    <glyph glyph-name="one" unicode="1" horiz-adv-x="403" 
d="M32 0v9q81 1 108 13.5t27 53.5v489q0 48 -23 61.5t-111 14.5v8l216 18v-591q0 -40 27 -53t109 -14v-9h-353z" />
    <glyph glyph-name="two" unicode="2" horiz-adv-x="535" 
d="M50 0v55l162 143q101 87 136.5 150.5t35.5 148.5q0 82 -35.5 123t-96.5 41q-45 0 -81 -23t-47 -54q46 -20 46 -64q0 -25 -15 -43t-41 -18q-27 0 -43.5 18.5t-16.5 47.5q0 59 61 104t143 45q100 0 157.5 -51t57.5 -127q0 -65 -49 -126.5t-178 -169.5l-154 -128v-4h258
q66 0 89.5 21t39.5 95l9 -1l-4 -183h-434z" />
    <glyph glyph-name="three" unicode="3" horiz-adv-x="542" 
d="M255 -14q-90 0 -151.5 38t-61.5 90q0 27 16 45.5t42 18.5q25 0 38.5 -16.5t13.5 -39.5q0 -38 -40 -60q14 -25 52.5 -44t89.5 -19q80 0 115.5 42t35.5 128q0 84 -47 123t-141 39h-27v16h12q101 0 143.5 39.5t42.5 126.5q0 148 -132 148q-40 0 -76 -17.5t-53 -44.5
q18 -6 31 -21.5t13 -35.5q0 -24 -13.5 -41t-38.5 -17t-41 17.5t-16 42.5q0 52 58 91t144 39q104 0 158.5 -44t54.5 -113q0 -58 -50.5 -106t-151.5 -70v-3q104 -6 161.5 -47.5t57.5 -114.5q0 -84 -63.5 -137t-175.5 -53z" />
    <glyph glyph-name="four" unicode="4" horiz-adv-x="562" 
d="M549 218h-148v-143q0 -38 22 -51.5t80 -14.5v-9h-292v9q60 1 84 14.5t24 51.5v143h-294v38l332 404h44v-393h148v-49zM316 583l-258 -316h261v316h-3z" />
    <glyph glyph-name="five" unicode="5" horiz-adv-x="539" 
d="M257 -14q-85 0 -147.5 37.5t-62.5 93.5q0 26 17 45t43 19q24 0 38 -16.5t14 -37.5q0 -43 -45 -66q12 -22 51 -42t83 -20q153 0 153 199q0 93 -37.5 140t-107.5 47q-78 0 -150 -50l-16 8l13 317h369l-8 -72h-345l-10 -233q70 48 153 48q115 0 173 -55.5t58 -144.5
q0 -86 -67 -151.5t-169 -65.5z" />
    <glyph glyph-name="six" unicode="6" horiz-adv-x="561" 
d="M292 -14q-105 0 -173.5 77t-68.5 194q0 169 107 276q116 115 311 144v-8q-307 -78 -329 -361l3 -1q19 57 70 90t107 33q88 0 145.5 -56t57.5 -146q0 -102 -64.5 -172t-165.5 -70zM297 -1q134 0 134 218q0 198 -122 198q-68 0 -118 -54t-50 -163q0 -93 45.5 -146
t110.5 -53z" />
    <glyph glyph-name="seven" unicode="7" horiz-adv-x="497" 
d="M101 -10v4l339 600h-275q-54 0 -76 -25.5t-35 -103.5h-8l6 195h430v-9l-174 -388l-120 -273h-87z" />
    <glyph glyph-name="eight" unicode="8" horiz-adv-x="547" 
d="M48 156q0 54 43.5 100t116.5 71q-139 64 -139 169q0 75 62.5 126.5t146.5 51.5q85 0 146.5 -44t61.5 -108q0 -56 -37.5 -94.5t-113.5 -68.5q85 -33 127.5 -77.5t42.5 -109.5q0 -77 -70 -131.5t-153 -54.5q-105 0 -169.5 47.5t-64.5 122.5zM251 310l-27 10
q-48 -22 -75 -63.5t-27 -96.5q0 -77 39.5 -119t108.5 -42q70 0 113.5 34t43.5 111q0 59 -43.5 96t-132.5 70zM312 368l9 -3q91 46 91 149q0 69 -36.5 107.5t-97.5 38.5q-60 0 -97.5 -33t-37.5 -103q0 -55 42 -90t127 -66z" />
    <glyph glyph-name="nine" unicode="9" horiz-adv-x="561" 
d="M94 -17v9q147 35 232.5 127.5t96.5 236.5l-3 1q-22 -61 -68 -94t-99 -33q-91 0 -152.5 57t-61.5 155q0 92 70.5 162t170.5 70q104 0 167.5 -76.5t63.5 -194.5q0 -168 -107 -275q-116 -116 -310 -145zM266 246q57 0 105.5 57t48.5 157q0 96 -41 148.5t-104 52.5
q-71 0 -108 -56.5t-37 -158.5q0 -200 136 -200z" />
    <glyph glyph-name="colon" unicode=":" horiz-adv-x="214" 
d="M107 289q-23 0 -39 16t-16 38t16 38t39 16t39 -15.5t16 -37.5q0 -23 -16 -39t-39 -16zM107 -16q-23 0 -39 16t-16 38t16 38t39 16t39 -15.5t16 -37.5q0 -23 -16 -39t-39 -16z" />
    <glyph glyph-name="semicolon" unicode=";" horiz-adv-x="214" 
d="M107 289q-23 0 -39 16t-16 38t16 38t39 16t39 -15.5t16 -37.5q0 -23 -16 -39t-39 -16zM27 -139l-5 10q46 24 75 59.5t33 68.5l-4 2q-10 -10 -27 -10q-20 0 -34 13.5t-14 34.5q0 22 14.5 38t36.5 16q29 0 46.5 -19t17.5 -50q0 -98 -139 -163z" />
    <glyph glyph-name="less" unicode="&#x3c;" horiz-adv-x="555" 
d="M85 316v17l387 216v-23l-364 -202l364 -201v-23z" />
    <glyph glyph-name="equal" unicode="=" horiz-adv-x="556" 
d="M59 216v18h438v-18h-438zM59 415v17h438v-17h-438z" />
    <glyph glyph-name="greater" unicode="&#x3e;" horiz-adv-x="555" 
d="M472 317l-388 -217v23l364 202l-364 201v23l388 -215v-17z" />
    <glyph glyph-name="question" unicode="?" horiz-adv-x="453" 
d="M178 186v168q100 20 134.5 63.5t34.5 130.5q0 82 -36 123t-101 41q-45 0 -80 -20.5t-50 -51.5q54 -13 54 -60q0 -24 -15 -41.5t-41 -17.5t-42.5 18.5t-16.5 45.5q0 55 58 97.5t141 42.5q98 0 157 -51t59 -125q0 -79 -61 -131t-175 -75v-157h-20zM189 -16q-23 0 -39 16
t-16 38t16 38t39 16t39 -15.5t16 -37.5q0 -23 -16 -39t-39 -16z" />
    <glyph glyph-name="at" unicode="@" horiz-adv-x="909" 
d="M470 -146q-180 0 -294.5 112.5t-114.5 296.5q0 182 120 301.5t306 119.5q151 0 256 -96t105 -241q0 -134 -65.5 -209t-154.5 -75q-120 0 -123 92h-3q-58 -83 -127 -83q-54 0 -83.5 34t-29.5 97q0 95 71.5 184t159.5 89q58 0 80 -61h1l19 54l69 9l-46 -138l-42 -150
q-15 -50 3.5 -79t63.5 -29q74 0 131.5 73t57.5 191q0 136 -99 229.5t-247 93.5q-177 0 -291 -116.5t-114 -286.5q0 -172 107.5 -284.5t286.5 -112.5q137 0 250 83l9 -11q-117 -87 -262 -87zM402 103q59 0 104 82l60 203q-15 75 -71 75q-44 0 -82.5 -47.5t-58.5 -107
t-20 -107.5q0 -46 17.5 -72t50.5 -26z" />
    <glyph glyph-name="A" unicode="A" horiz-adv-x="680" 
d="M492 98l-63 173h-249l-41 -107q-35 -89 -22.5 -118.5t88.5 -36.5v-9h-229v9q52 9 79.5 39t62.5 118l220 553h14l226 -602q25 -66 45 -84.5t78 -23.5v-9h-297v9q75 3 91.5 22t-3.5 67zM186 287h238l-113 313h-3z" />
    <glyph glyph-name="B" unicode="B" horiz-adv-x="662" 
d="M27 0v9q74 2 96 16.5t22 52.5v542q0 38 -22.5 52.5t-95.5 16.5v8h299q132 0 198 -46.5t66 -118.5q0 -62 -50 -105.5t-143 -55.5v-3q108 -10 165.5 -53t57.5 -118q0 -83 -71.5 -140t-216.5 -57h-305zM230 377h106q84 0 122.5 36.5t38.5 115.5q0 77 -37.5 115t-130.5 38
h-99v-305zM230 15h112q99 0 141 42t42 138q0 167 -182 167h-113v-347z" />
    <glyph glyph-name="C" unicode="C" horiz-adv-x="699" 
d="M384 -17q-146 0 -240.5 96.5t-94.5 260.5q0 159 102 266t251 107q95 0 178 -45l42 51h8v-226h-9q-51 118 -101 162t-126 44q-106 0 -176 -87t-70 -265q0 -84 23 -149.5t62 -104.5t84.5 -58.5t94.5 -19.5q156 0 242 174l11 -6q-38 -86 -107 -143t-174 -57z" />
    <glyph glyph-name="D" unicode="D" horiz-adv-x="750" 
d="M27 0v9q74 2 96 16.5t22 52.5v542q0 38 -22.5 52.5t-95.5 16.5v8h299q178 0 276.5 -94.5t98.5 -242.5q0 -70 -23 -133.5t-66.5 -114.5t-115.5 -81.5t-163 -30.5h-306zM230 15h76q166 0 231 73.5t65 265.5q0 97 -17.5 161.5t-55.5 101t-88.5 51t-124.5 14.5h-86v-667z" />
    <glyph glyph-name="E" unicode="E" horiz-adv-x="666" 
d="M27 0v9q74 2 96 16.5t22 52.5v542q0 38 -22.5 52.5t-95.5 16.5v8h561l3 -205l-9 -1q-41 112 -77 151.5t-106 39.5h-169v-312h95q55 0 80.5 27.5t44.5 109.5h9v-290h-9q-19 82 -44.5 110t-80.5 28h-95v-340h186q76 0 115 42t82 161l9 -1l-5 -217h-590z" />
    <glyph glyph-name="F" unicode="F" horiz-adv-x="627" 
d="M27 0v9q74 2 96 16.5t22 52.5v542q0 38 -22 52t-96 16v9h552l9 -210l-9 -1q-44 115 -82.5 155.5t-110.5 40.5h-156v-321h89q55 0 80 27t44 109h9v-288h-9q-19 82 -44 109.5t-80 27.5h-89v-268q0 -39 23 -53t97 -16v-9h-323z" />
    <glyph glyph-name="G" unicode="G" horiz-adv-x="746" 
d="M412 -17q-96 0 -177 40t-133.5 125t-52.5 201q0 158 106 261.5t245 103.5q99 0 186 -41l42 47h7v-220h-9q-51 114 -102.5 157t-130.5 43q-104 0 -174.5 -84.5t-70.5 -264.5q0 -93 23 -163.5t61.5 -111t83 -60t93.5 -19.5q91 0 149 44v191q0 39 -22.5 54.5t-95.5 17.5v9
h287v-9q-55 -3 -70 -17t-15 -54v-184q-107 -66 -230 -66z" />
    <glyph glyph-name="H" unicode="H" horiz-adv-x="803" 
d="M27 0v9q74 2 96 16.5t22 52.5v542q0 38 -22 52.5t-96 16.5v8h313v-8q-72 -2 -91 -15.5t-19 -52.5v-251h343v251q0 39 -19 52.5t-90 15.5v8h312v-8q-73 -2 -95.5 -16.5t-22.5 -52.5v-542q0 -38 22.5 -52.5t95.5 -16.5v-9h-312v9q71 2 90 15.5t19 52.5v277h-343v-277
q0 -39 19 -52.5t91 -15.5v-9h-313z" />
    <glyph glyph-name="I" unicode="I" horiz-adv-x="388" 
d="M30 0v9q76 2 99 16t23 53v542q0 38 -23 52.5t-99 16.5v8h328v-8q-76 -2 -99 -16.5t-23 -52.5v-542q0 -39 23 -53t99 -16v-9h-328z" />
    <glyph glyph-name="J" unicode="J" horiz-adv-x="537" 
d="M212 -17q-77 0 -124 34.5t-47 81.5q0 29 16.5 48t42.5 19q24 0 39 -16t15 -40t-16 -42.5t-45 -22.5q39 -46 106 -46q118 0 118 165v456q0 38 -21.5 52.5t-99.5 16.5v8h324v-8q-73 -2 -95.5 -17t-22.5 -53v-424q0 -99 -47 -155.5t-143 -56.5z" />
    <glyph glyph-name="K" unicode="K" horiz-adv-x="725" 
d="M230 315l250 249q40 40 50 64.5t-10 39.5t-74 21v8h266v-8q-63 -10 -100 -33.5t-120 -105.5l-132 -130l211 -290q55 -75 80.5 -94t82.5 -27v-9h-289v9q62 4 72.5 24t-22.5 63l-192 267l-73 -72v-214q0 -39 18 -52.5t85 -15.5v-9h-306v9q74 2 96 16.5t22 52.5v542
q0 38 -22 52.5t-96 16.5v8h313v-8q-72 -2 -91 -15.5t-19 -52.5v-306z" />
    <glyph glyph-name="L" unicode="L" horiz-adv-x="608" 
d="M27 0v9q74 2 96 16.5t22 52.5v542q0 38 -22.5 52.5t-95.5 16.5v8h319v-8q-75 -2 -95.5 -15.5t-20.5 -53.5v-605h144q78 0 118 39t85 159l9 -1l-10 -212h-549z" />
    <glyph glyph-name="M" unicode="M" horiz-adv-x="935" 
d="M26 0v9q74 10 97.5 33.5t23.5 82.5v466q0 43 -26.5 68t-94.5 30v8h214l235 -578h3l226 578h204v-8q-73 -2 -95.5 -16.5t-22.5 -52.5v-542q0 -38 22 -52.5t96 -16.5v-9h-313v9q72 2 91 15.5t19 52.5v563h-4l-255 -646h-8l-269 647h-4v-516q0 -60 23 -83t101 -33v-9h-263z
" />
    <glyph glyph-name="N" unicode="N" 
d="M633 -17l-466 629h-2v-487q0 -60 23 -83t101 -33v-9h-263v9q74 10 97.5 33.5t23.5 82.5v466q0 44 -27 69t-94 29v8h188l414 -561h1v437q0 59 -25 82.5t-102 33.5v8h260v-8q-72 -11 -93.5 -34t-21.5 -82v-590h-14z" />
    <glyph glyph-name="O" unicode="O" horiz-adv-x="758" 
d="M379 -17q-134 0 -232 101.5t-98 262.5q0 160 100.5 263.5t230.5 103.5q134 0 231.5 -101t97.5 -263q0 -106 -48.5 -191.5t-123.5 -130.5t-158 -45zM382 -3q107 0 167.5 80t60.5 271q0 352 -234 352q-51 0 -90.5 -17t-71.5 -56t-49 -109t-17 -169q0 -352 234 -352z" />
    <glyph glyph-name="P" unicode="P" horiz-adv-x="618" 
d="M27 0v9q74 2 96 16.5t22 52.5v542q0 38 -22.5 52.5t-95.5 16.5v8h283q139 0 207.5 -51.5t68.5 -136.5q0 -83 -71 -139.5t-212 -56.5h-73v-235q0 -39 23.5 -53t100.5 -16v-9h-327zM230 328h78q106 0 143.5 44t37.5 136q0 84 -38.5 129t-139.5 45h-81v-354z" />
    <glyph glyph-name="Q" unicode="Q" horiz-adv-x="758" 
d="M382 -3q107 0 167.5 80t60.5 271q0 352 -234 352q-51 0 -90.5 -17t-71.5 -56t-49 -109t-17 -169q0 -352 234 -352zM413 -15q33 -9 65 -36.5t52 -54t46.5 -48t51.5 -21.5q14 0 22.5 7.5t8.5 18.5t-20.5 28.5t-20.5 36.5q0 20 12.5 33.5t34.5 13.5t36 -16.5t14 -40.5
q0 -43 -36.5 -73.5t-94.5 -30.5q-36 0 -68 16t-56 39.5t-45.5 46.5t-45 39t-46.5 16q-62 0 -138 -84l-9 9q73 86 155 103q-119 18 -200.5 116t-81.5 244q0 160 100.5 263.5t230.5 103.5q134 0 231.5 -101t97.5 -263q0 -148 -87.5 -249t-208.5 -116z" />
    <glyph glyph-name="R" unicode="R" horiz-adv-x="683" 
d="M230 356h95q107 0 145 40t38 130q0 81 -44 118.5t-151 37.5h-83v-326zM230 341v-264q0 -39 20.5 -52.5t92.5 -15.5v-9h-316v9q74 2 96 16.5t22 52.5v542q0 38 -22.5 52.5t-95.5 16.5v8h291q136 0 211.5 -45.5t75.5 -124.5q0 -144 -210 -177v-3q103 -11 141 -50.5
t50 -127.5l6 -43q12 -72 35 -93t93 -21v-8q-50 -9 -103 -9q-62 0 -85 30t-32 103l-11 90q-9 75 -40.5 99t-120.5 24h-98z" />
    <glyph glyph-name="S" unicode="S" horiz-adv-x="573" 
d="M57 -18v246h9q42 -123 95.5 -175t142.5 -52q76 0 116 42t40 106t-40 99.5t-142 67.5q-106 33 -156 72.5t-50 119.5q0 91 66 147t160 56q81 0 155 -32l33 38h8v-219h-8q-40 108 -86.5 153.5t-113.5 45.5q-63 0 -102.5 -37.5t-39.5 -101.5t39.5 -95.5t139.5 -63.5
q103 -32 153.5 -73.5t50.5 -122.5q0 -87 -60.5 -152t-169.5 -65q-90 0 -178 46l-54 -50h-8z" />
    <glyph glyph-name="T" unicode="T" horiz-adv-x="683" 
d="M174 0v9q76 2 101 16.5t25 52.5v604h-80q-55 0 -92.5 -39.5t-83.5 -147.5l-9 1l6 201h603l6 -201l-9 -1q-46 107 -83.5 147t-92.5 40h-80v-604q0 -38 25 -52.5t101 -16.5v-9h-337z" />
    <glyph glyph-name="U" unicode="U" 
d="M394 -16q-123 0 -191.5 56.5t-68.5 165.5v414q0 38 -22.5 52.5t-95.5 16.5v8h313v-8q-71 -2 -90.5 -16t-19.5 -52v-393q0 -216 211 -216q86 0 134 47q60 60 60 168v346q0 59 -25 82.5t-103 33.5v8h260v-8q-72 -11 -93 -34t-21 -82v-353q0 -108 -63.5 -172t-184.5 -64z
" />
    <glyph glyph-name="V" unicode="V" horiz-adv-x="695" 
d="M341 -22l-228 602q-25 66 -45 84.5t-79 24.5v8h297v-8q-74 -3 -91 -23t3 -67l183 -504h3l175 453q30 76 17 104.5t-88 36.5v8h228v-8q-52 -7 -79 -37t-63 -120l-219 -554h-14z" />
    <glyph glyph-name="W" unicode="W" horiz-adv-x="1009" 
d="M506 528l-17 53q-23 70 -43 87.5t-76 20.5v8h280v-8q-68 -3 -82 -20t4 -69l155 -482h3l135 425q26 86 11 112.5t-90 33.5v8h238v-8q-56 -6 -84.5 -38.5t-56.5 -117.5l-179 -554h-14l-174 523l-193 -523h-14l-190 602q-20 64 -41.5 83t-80.5 25v8h286v-8q-65 -3 -79.5 -24
t2.5 -65l143 -485h3z" />
    <glyph glyph-name="X" unicode="X" horiz-adv-x="692" 
d="M369 398l116 167q43 64 30.5 91.5t-81.5 32.5v8h250v-8q-61 -8 -91.5 -31.5t-91.5 -108.5l-120 -169l184 -282q32 -51 56 -66t86 -23v-9h-307v9q72 4 86 24.5t-15 59.5l-144 230l-132 -191q-43 -63 -30.5 -90.5t81.5 -32.5v-9h-250v9q60 8 91 30.5t92 108.5l136 192
l-169 260q-32 50 -56 65.5t-87 23.5v8h308v-8q-69 -3 -84 -25t13 -62z" />
    <glyph glyph-name="Y" unicode="Y" horiz-adv-x="660" 
d="M364 333l137 236q39 64 29.5 88t-83.5 32v8h231v-8q-56 -7 -85.5 -31t-72.5 -96l-145 -245v-239q0 -38 25 -52t96 -16v-10h-326v9q76 2 98.5 16t22.5 53v221l-175 303q-28 48 -51 64.5t-71 22.5v8h296v-8q-76 -3 -90.5 -23.5t15.5 -66.5z" />
    <glyph glyph-name="Z" unicode="Z" horiz-adv-x="624" 
d="M38 0l-1 8l441 674h-217q-54 0 -94 -38t-94 -147l-9 1l20 199h499l1 -7l-441 -675h248q56 0 92 38t95 157l9 -2l-16 -208h-533z" />
    <glyph glyph-name="bracketleft" unicode="[" horiz-adv-x="359" 
d="M102 -165v929h280v-16h-210v-897h210v-16h-280z" />
    <glyph glyph-name="backslash" unicode="\" horiz-adv-x="452" 
d="M420 -215l-208 479l-213 482h23l209 -480l212 -481h-23z" />
    <glyph glyph-name="bracketright" unicode="]" horiz-adv-x="359" 
d="M-23 -165v16h210v897h-210v16h280v-929h-280z" />
    <glyph glyph-name="asciicircum" unicode="^" horiz-adv-x="353" 
d="M28 548l147 212h11l140 -212h-16l-133 139l-133 -139h-16z" />
    <glyph glyph-name="underscore" unicode="_" horiz-adv-x="440" 
d="M-2 0v26h444v-26h-444z" />
    <glyph glyph-name="grave" unicode="`" horiz-adv-x="238" 
d="M169 528l-69 66q-46 45 -58.5 60.5t-12.5 29.5q0 15 10.5 25.5t26.5 10.5q17 0 26.5 -13t31.5 -62q8 -16 12 -26l41 -91h-8z" />
    <glyph glyph-name="a" unicode="a" horiz-adv-x="473" 
d="M164 -6q-58 0 -89.5 30.5t-31.5 74.5q0 66 62 100q30 16 68 27.5t88 21.5t54 11v68q0 64 -22.5 92t-74.5 28q-66 0 -93 -36q35 -16 35 -49q0 -22 -13.5 -36t-35.5 -14t-34.5 14.5t-12.5 35.5q0 43 48.5 71.5t116.5 28.5q162 0 162 -132v-248q0 -42 18 -54.5t63 4.5l3 -7
q-47 -29 -85 -29q-36 0 -53.5 18.5t-18.5 61.5h-3q-72 -82 -151 -82zM204 29q61 0 111 65v151q-115 -21 -153 -47.5t-38 -82.5q0 -86 80 -86z" />
    <glyph glyph-name="b" unicode="b" horiz-adv-x="525" 
d="M70 -14l4 89v581q0 27 -15 36.5t-68 12.5v8l159 4v-329q68 76 151 76t135 -63.5t52 -161.5q0 -105 -60.5 -176t-150.5 -71q-81 0 -154 47l-45 -53h-8zM272 6q63 0 97 61.5t34 165.5q0 87 -37.5 142.5t-101.5 55.5q-63 0 -114 -59v-283q15 -40 48 -61.5t74 -21.5z" />
    <glyph glyph-name="c" unicode="c" horiz-adv-x="452" 
d="M246 -10q-93 0 -151.5 65.5t-58.5 164.5q0 104 67.5 175t161.5 71q69 0 112 -30.5t43 -67.5q0 -23 -13.5 -37.5t-34.5 -14.5q-22 0 -36 13.5t-14 35.5q0 35 32 53q-30 34 -89 34q-62 0 -104.5 -57t-42.5 -158q0 -94 44 -151.5t124 -57.5q42 0 72.5 18.5t65.5 59.5l9 -6
q-37 -52 -80 -81t-107 -29z" />
    <glyph glyph-name="d" unicode="d" horiz-adv-x="532" 
d="M229 -8q-86 0 -139 65t-53 164q0 106 64 174.5t156 68.5q66 0 116 -34v226q0 27 -14.5 36.5t-67.5 12.5v8l158 4v-670q0 -22 16.5 -30t60.5 -9v-8l-151 -4v65q-69 -69 -146 -69zM266 26q61 0 107 53v306q-36 65 -115 65q-63 0 -99.5 -61t-36.5 -164q0 -87 38.5 -143
t105.5 -56z" />
    <glyph glyph-name="e" unicode="e" horiz-adv-x="471" 
d="M250 -10q-93 0 -153.5 65t-60.5 167q0 100 63.5 172t151.5 72q91 0 141 -59.5t45 -144.5h-318q-1 -11 -1 -32v-1q0 -93 42.5 -150t116.5 -57q47 0 82.5 24t70.5 70l9 -6q-75 -120 -189 -120zM247 452q-54 0 -87 -45.5t-40 -131.5h235q10 177 -108 177z" />
    <glyph glyph-name="f" unicode="f" horiz-adv-x="304" 
d="M24 0v9q46 1 61.5 8t15.5 32v386h-87v9l87 14v40q0 121 57 178q47 47 107 47q51 0 81.5 -21t30.5 -51q0 -23 -13.5 -36.5t-32.5 -13.5q-21 0 -35.5 13.5t-14.5 37.5q0 26 19 43q-17 15 -44 15q-29 0 -48 -19q-31 -31 -31 -132v-104h133v-20h-133v-386q0 -25 20 -32.5
t77 -7.5v-9h-250z" />
    <glyph glyph-name="g" unicode="g" horiz-adv-x="466" 
d="M241 -186q68 0 118 33.5t50 82.5q0 75 -121 75h-119q-81 -23 -81 -92q0 -99 153 -99zM232 171q95 0 95 139q0 64 -26.5 102t-77.5 38q-95 0 -95 -140q0 -139 104 -139zM228 462q50 0 92 -23q42 72 93 72q25 0 38.5 -12.5t13.5 -33.5q0 -17 -10 -27.5t-26 -10.5
q-18 0 -29 14t-10 37q-34 -4 -58 -45q73 -45 73 -121q0 -69 -55 -111.5t-122 -42.5q-36 0 -71 12q-59 -25 -59 -54q0 -37 90 -37h98q85 0 125.5 -29t40.5 -89q0 -64 -61 -112t-169 -48q-88 0 -143.5 29.5t-55.5 74.5q0 36 33 64t90 39v3q-47 10 -67.5 27.5t-20.5 46.5
q0 53 83 91q-92 40 -92 132q0 68 55.5 111t123.5 43z" />
    <glyph glyph-name="h" unicode="h" horiz-adv-x="530" 
d="M7 0v9q45 1 60 8t15 32v607q0 27 -15 36.5t-68 12.5v8l159 4v-372q72 119 171 119q58 0 89.5 -35.5t31.5 -101.5v-278q0 -25 15 -32t59 -8v-9h-217v9q41 1 54 8t13 32v255q0 60 -20.5 90t-67.5 30q-37 0 -71 -28t-57 -74v-273q0 -25 13.5 -32t53.5 -8v-9h-218z" />
    <glyph glyph-name="i" unicode="i" horiz-adv-x="266" 
d="M131 557q-22 0 -36.5 15t-14.5 38t14.5 39t36.5 16t37 -15.5t15 -38.5t-15 -38.5t-37 -15.5zM22 0v9q46 1 61.5 8t15.5 32v349q0 25 -15 35.5t-62 13.5v8l153 5v-411q0 -25 15 -32t61 -8v-9h-229z" />
    <glyph glyph-name="j" unicode="j" horiz-adv-x="252" 
d="M127 557q-22 0 -36.5 15t-14.5 38t14.5 39t36.5 16t37 -15.5t15 -38.5t-15 -38.5t-37 -15.5zM36 -198q-43 0 -72 18t-29 48q0 20 14 34.5t33 14.5q21 0 33 -13t12 -33q0 -28 -23 -41q11 -15 38 -15q29 0 41 20t12 62v501q0 25 -16 36t-65 13v8l157 5v-456
q0 -69 -7.5 -104.5t-33.5 -61.5q-36 -36 -94 -36z" />
    <glyph glyph-name="k" unicode="k" horiz-adv-x="496" 
d="M158 188v-139q0 -24 12.5 -31.5t47.5 -8.5v-9h-211v9q45 1 60 8t15 32v607q0 27 -15 36.5t-68 12.5v8l159 4v-510l158 159q36 36 29 56.5t-62 25.5v8h198v-8q-40 -5 -68.5 -22t-80.5 -68l-71 -69l152 -206q34 -46 50 -58t51 -16v-9h-215v9q43 4 50.5 18t-13.5 40
l-124 174z" />
    <glyph glyph-name="l" unicode="l" horiz-adv-x="260" 
d="M18 0v9q45 1 60 8t15 32v607q0 27 -14.5 36.5t-67.5 12.5v8l158 4v-668q0 -25 15 -32t61 -8v-9h-227z" />
    <glyph glyph-name="m" unicode="m" horiz-adv-x="813" 
d="M309 0v9q41 1 54.5 8t13.5 32v257q0 118 -84 118q-72 0 -123 -102v-273q0 -25 12.5 -32t51.5 -8v-9h-217v9q46 1 61.5 8t15.5 32v349q0 25 -15 35.5t-62 13.5v8l152 5v-116q70 120 167 120q50 0 80.5 -29t35.5 -84q72 113 167 113q56 0 86 -35t30 -100v-280q0 -25 15 -32
t59 -8v-9h-214v9q40 1 52 8t12 32v257q0 118 -83 118q-33 0 -65.5 -24.5t-57.5 -68.5v-282q0 -25 14 -32t58 -8v-9h-216z" />
    <glyph glyph-name="n" unicode="n" horiz-adv-x="540" 
d="M17 0v9q46 1 61.5 8t15.5 32v349q0 25 -15 35.5t-62 13.5v8l152 5v-116q73 120 172 120q58 0 89.5 -35.5t31.5 -101.5v-278q0 -25 15 -32t59 -8v-9h-217v9q41 1 54 8t13 32v257q0 59 -20.5 88.5t-67.5 29.5q-37 0 -71 -28t-57 -74v-273q0 -25 13.5 -32t53.5 -8v-9h-220z
" />
    <glyph glyph-name="o" unicode="o" horiz-adv-x="519" 
d="M260 -10q-92 0 -158 67t-66 170q0 101 68 170t156 69q92 0 158 -66.5t66 -169.5q0 -101 -68 -170.5t-156 -69.5zM264 4q134 0 134 224q0 225 -143 225q-134 0 -134 -224q0 -225 143 -225z" />
    <glyph glyph-name="p" unicode="p" horiz-adv-x="532" 
d="M5 -192v8q46 1 61.5 8t15.5 32v542q0 25 -15 35.5t-62 13.5v8l152 5v-74q71 78 153 78q83 0 133.5 -63t50.5 -162q0 -107 -60.5 -177t-151.5 -70q-64 0 -124 37v-172q0 -25 20 -32.5t78 -7.5v-9h-251zM277 6q64 0 98.5 60.5t34.5 166.5q0 85 -37.5 141.5t-100.5 56.5
q-61 0 -114 -61v-283q30 -81 119 -81z" />
    <glyph glyph-name="q" unicode="q" horiz-adv-x="526" 
d="M279 -192v9q55 1 75.5 8.5t20.5 29.5v209q-74 -72 -148 -72q-84 0 -137 64t-53 161q0 104 62 175.5t154 71.5q75 0 149 -48l45 55h8l-4 -88v-529q0 -22 16 -29.5t61 -8.5v-8h-249zM264 28q59 0 111 54v284q-32 84 -117 84q-65 0 -100.5 -61.5t-35.5 -164.5
q0 -85 38 -140.5t104 -55.5z" />
    <glyph glyph-name="r" unicode="r" horiz-adv-x="389" 
d="M17 0v9q46 1 61.5 8t15.5 32v349q0 25 -15 35.5t-62 13.5v8l152 5v-113q24 51 61 84.5t75 33.5q33 0 50.5 -17.5t17.5 -43.5q0 -22 -14.5 -37.5t-34.5 -15.5q-23 0 -37 14t-14 36q0 19 10 33q-59 -8 -113 -106v-279q0 -25 17.5 -32t70.5 -8v-9h-241z" />
    <glyph glyph-name="s" unicode="s" horiz-adv-x="406" 
d="M43 -10v163h8q48 -92 78.5 -120.5t86.5 -28.5q45 0 71.5 25.5t26.5 62.5q0 39 -25.5 62t-98.5 44q-78 22 -111 49.5t-33 78.5q0 59 45.5 99.5t111.5 40.5q55 0 105 -28l26 28h8v-145h-8q-42 79 -69.5 105t-71.5 26q-41 0 -67.5 -23t-26.5 -60q0 -35 28 -56t96 -40
q75 -22 108 -53t33 -83q0 -63 -43.5 -105t-111.5 -42q-64 0 -123 35l-35 -35h-8z" />
    <glyph glyph-name="t" unicode="t" horiz-adv-x="335" 
d="M203 -11q-107 0 -107 126v320h-94v9l94 14v130l76 35v-168h146v-20h-146v-327q0 -88 63 -88q47 0 91 71l8 -6q-53 -96 -131 -96z" />
    <glyph glyph-name="u" unicode="u" horiz-adv-x="530" 
d="M202 -9q-58 0 -89.5 35.5t-31.5 101.5v271q0 24 -15 34.5t-60 13.5v8l151 5v-309q0 -119 88 -119q37 0 70 27.5t56 73.5v266q0 24 -15.5 34.5t-63.5 13.5v8l155 5v-413q0 -22 16.5 -30t60.5 -9v-8h-152v111q-73 -120 -170 -120z" />
    <glyph glyph-name="v" unicode="v" horiz-adv-x="475" 
d="M237 -12l-157 385q-17 42 -34 57t-57 18v8h226v-8q-66 -4 -66 -35q0 -13 7 -30l115 -297h3l107 261q16 43 16 57q0 20 -15 29.5t-50 14.5v8h160v-8q-31 -4 -49 -22.5t-39 -67.5l-156 -370h-11z" />
    <glyph glyph-name="w" unicode="w" horiz-adv-x="714" 
d="M368 325l-17 48q-16 42 -31.5 57t-51.5 18v8h218v-8q-69 -4 -69 -42q0 -10 6 -26l103 -286h3l89 252q14 39 14 58q0 20 -14 30t-47 14v8h163v-8q-36 -5 -55.5 -23.5t-37.5 -67.5l-135 -369h-13l-117 317l-134 -317h-11l-150 385q-17 41 -34 56.5t-56 18.5v8h223v-8
q-67 -4 -67 -40q0 -10 6 -28l112 -288h3z" />
    <glyph glyph-name="x" unicode="x" horiz-adv-x="501" 
d="M268 264l64 82q36 50 28.5 73t-56.5 29v8h194v-8q-46 -6 -73 -25t-73 -77l-74 -95l115 -158q38 -52 56.5 -66t51.5 -18v-9h-217v8q51 6 56.5 20.5t-22.5 50.5l-86 124l-71 -93q-37 -50 -28.5 -73t61.5 -29v-8h-194v9q42 5 68.5 24.5t72.5 77.5l83 104l-108 148
q-39 52 -57.5 66t-54.5 19v8h217v-8q-50 -5 -54 -20t24 -51z" />
    <glyph glyph-name="y" unicode="y" horiz-adv-x="476" 
d="M244 1l-165 372q-19 42 -36 56.5t-57 18.5v8h226v-8q-49 -3 -60.5 -19t3.5 -46l125 -296l103 260q21 52 11 73t-61 28v8h160v-8q-31 -4 -49 -22.5t-38 -67.5l-157 -387q-39 -97 -73.5 -133t-76.5 -36q-28 0 -46 18t-18 42q0 22 12.5 37t35.5 15q19 0 32.5 -14.5
t13.5 -35.5q0 -25 -17 -44q29 4 58.5 37.5t64.5 122.5z" />
    <glyph glyph-name="z" unicode="z" horiz-adv-x="450" 
d="M33 0l-2 9l299 432h-123q-43 0 -71 -27t-72 -113l-10 2l17 153h350l2 -8l-298 -432h135q44 0 77.5 31t70.5 116l10 -2l-16 -161h-369z" />
    <glyph glyph-name="braceleft" unicode="{" horiz-adv-x="406" 
d="M414 -159q-109 2 -170 48.5t-61 131.5q0 26 8 82.5t8 75.5q0 43 -11 66.5t-49.5 39.5t-112.5 19v11q75 3 113 17.5t49 37t11 65.5q0 19 -8 73t-8 80q0 84 60.5 128t170.5 48v-9q-84 -7 -117.5 -45.5t-33.5 -109.5q0 -12 3.5 -61.5t3.5 -77.5q0 -68 -36 -104t-142 -46v-4
q104 -9 141 -47.5t37 -106.5q0 -27 -3.5 -79t-3.5 -65q0 -72 34 -112t117 -47v-9z" />
    <glyph glyph-name="bar" unicode="|" horiz-adv-x="306" 
d="M143 -215v961h20v-961h-20z" />
    <glyph glyph-name="braceright" unicode="}" horiz-adv-x="406" 
d="M-8 -153v10q84 6 118 45.5t34 111.5q0 13 -3.5 63.5t-3.5 77.5q0 68 36.5 105.5t141.5 46.5v4q-106 10 -142 47t-36 105q0 27 3.5 78t3.5 64q0 71 -34 110.5t-118 46.5v9q111 -4 171.5 -49t60.5 -129q0 -25 -8 -81t-8 -75q0 -43 11 -66t49.5 -38t112.5 -18v-11
q-74 -3 -112.5 -18t-49.5 -38.5t-11 -66.5q0 -19 8 -74t8 -81q0 -85 -61 -131t-171 -48z" />
    <glyph glyph-name="asciitilde" unicode="~" horiz-adv-x="394" 
d="M49 282q10 59 30.5 87t57.5 28q25 0 76.5 -25t70.5 -25q34 0 51 61h12q-19 -115 -88 -115q-25 0 -76.5 25.5t-70.5 25.5q-34 0 -51 -62h-12z" />
    <glyph glyph-name="uni00A0" unicode="&#xa0;" horiz-adv-x="192" 
 />
    <glyph glyph-name="exclamdown" unicode="&#xa1;" horiz-adv-x="271" 
d="M135 617q-23 0 -39 16t-16 38t16 38t39 16t39 -15.5t16 -37.5q0 -23 -16 -39t-39 -16zM135 -16q-50 0 -50 71q0 40 18.5 196t24.5 272h14q6 -115 24 -271.5t18 -196.5q0 -71 -49 -71z" />
    <glyph glyph-name="cent" unicode="&#xa2;" horiz-adv-x="523" 
d="M273 -88v79q-95 4 -150.5 68.5t-55.5 163.5q0 95 60 163.5t146 77.5v70h20v-68h4q70 0 117 -32.5t47 -74.5q0 -23 -13.5 -39t-35.5 -16t-35.5 13.5t-13.5 35.5q0 36 35 52q-10 19 -37 33t-63 14h-5v-423q7 -1 21 -1q45 0 77.5 18t66.5 60l9 -6q-34 -49 -75 -77.5
t-99 -31.5v-79h-20zM150 239q0 -80 32 -135.5t91 -70.5v416q-54 -11 -88.5 -66t-34.5 -144z" />
    <glyph glyph-name="sterling" unicode="&#xa3;" horiz-adv-x="591" 
d="M442 348v-16h-167q17 -46 17 -87q0 -82 -72 -145q6 -1 83.5 -20.5t123.5 -19.5q55 0 82.5 30t35.5 99l11 -1q-2 -91 -43.5 -147.5t-107.5 -56.5q-40 0 -95 29.5t-103 71.5q-16 -47 -41.5 -74t-54.5 -27q-23 0 -37 14.5t-14 34.5q0 29 29.5 50.5t85.5 21.5q10 0 30 -2
q20 38 20 87q0 54 -41 142h-116v16h108q-34 72 -34 127q0 92 60.5 145.5t150.5 53.5q69 0 118.5 -37.5t49.5 -85.5q0 -26 -14 -43t-36 -17q-25 0 -41 15t-16 41q0 36 38 57q-13 24 -42 40.5t-65 16.5q-58 0 -92 -35.5t-34 -106.5q0 -19 2.5 -37t9 -38t11 -31.5t14.5 -34
t13 -30.5h173z" />
    <glyph glyph-name="yen" unicode="&#xa5;" horiz-adv-x="679" 
d="M89 311v16h187l-141 238q-27 44 -51.5 61.5t-70.5 24.5v9h292v-9q-39 -1 -60.5 -7t-26.5 -18.5t-1 -27t17 -37.5l138 -248l115 201q39 63 29 95.5t-78 41.5v9h229v-9q-46 -5 -80.5 -34.5t-67.5 -87.5l-118 -202h185v-16h-195l-11 -20v-62h206v-16h-206v-135
q0 -38 26 -52.5t97 -16.5v-9h-328v9q76 1 99.5 15.5t23.5 53.5v135h-209v16h209v62l-12 20h-197z" />
    <glyph glyph-name="brokenbar" unicode="&#xa6;" horiz-adv-x="306" 
d="M163 337h-20v409h20v-409zM143 194h20v-409h-20v409z" />
    <glyph glyph-name="section" unicode="&#xa7;" horiz-adv-x="556" 
d="M88 251q0 49 33 85.5t89 52.5v1q-54 23 -82 52.5t-28 76.5q0 69 55 112t133 43q71 0 123 -33t52 -76q0 -24 -12.5 -38.5t-35.5 -14.5t-36 14t-13 34q0 36 36 51q-11 20 -41.5 34.5t-76.5 14.5q-58 0 -94 -28t-36 -79q0 -40 36 -64t128 -56q79 -27 117.5 -57t38.5 -88
q0 -45 -27 -82.5t-81 -56.5v-1q51 -20 74.5 -49.5t23.5 -77.5q0 -69 -48.5 -115.5t-139.5 -46.5q-84 0 -143.5 33t-59.5 85q0 25 14 42.5t39 17.5q23 0 37 -15.5t14 -36.5q0 -40 -39 -56q14 -25 52.5 -40.5t89.5 -15.5q63 0 100 30t37 76q0 44 -33.5 70t-128.5 56
q-86 28 -126.5 58.5t-40.5 87.5zM342 157q84 26 84 88q0 41 -33.5 66.5t-118.5 54.5l-43 15q-89 -24 -89 -93q0 -42 33 -64.5t125 -51.5q29 -9 42 -15z" />
    <glyph glyph-name="dieresis" unicode="&#xa8;" horiz-adv-x="322" 
d="M244 533q-22 0 -36 14.5t-14 36.5q0 21 14 36.5t35 15.5t35.5 -15.5t14.5 -37.5q0 -21 -14 -35.5t-35 -14.5zM80 533q-22 0 -36 14.5t-14 36.5q0 21 14 36.5t35 15.5t35.5 -15.5t14.5 -37.5q0 -21 -14 -35.5t-35 -14.5z" />
    <glyph glyph-name="copyright" unicode="&#xa9;" horiz-adv-x="834" 
d="M417 -34q-162 0 -272.5 110t-110.5 273q0 161 110.5 271.5t272.5 110.5t272.5 -110.5t110.5 -271.5q0 -163 -110.5 -273t-272.5 -110zM417 -20q155 0 260.5 107.5t105.5 261.5t-105 261t-261 107q-155 0 -260.5 -107t-105.5 -261q0 -153 105.5 -261t260.5 -108zM423 149
q-82 0 -133.5 52.5t-51.5 143.5q0 96 56 153t139 57q60 0 102 -29l22 30h8v-141h-9q-30 74 -58 101t-72 27q-52 0 -87 -50.5t-35 -136.5t39 -134.5t96 -48.5q90 0 130 93l10 -4q-20 -48 -59.5 -80.5t-96.5 -32.5z" />
    <glyph glyph-name="ordfeminine" unicode="&#xaa;" horiz-adv-x="435" 
d="M153 332q-44 0 -68.5 24.5t-24.5 59.5q0 50 44 75q13 8 29.5 14t37.5 11.5t32 8t35.5 7t27.5 4.5v56q0 46 -16 65.5t-53 19.5q-50 0 -67 -22q27 -12 27 -37q0 -19 -11 -31t-29 -12q-17 0 -28.5 12.5t-11.5 28.5q0 32 37.5 53.5t93.5 21.5q126 0 126 -103v-183
q0 -34 14 -43.5t45 3.5l4 -7q-35 -24 -67 -24q-57 0 -60 60h-3q-55 -62 -114 -62zM188 363q43 0 78 46v114q-81 -12 -108 -32.5t-27 -63.5q0 -64 57 -64z" />
    <glyph glyph-name="guillemotleft" unicode="&#xab;" horiz-adv-x="490" 
d="M428 29l-183 176q-14 13 -14 19t14 19l183 176l9 -6l-142 -188l142 -191zM238 29l-183 176q-14 13 -14 19t14 19l183 176l9 -6l-142 -188l142 -191z" />
    <glyph glyph-name="registered" unicode="&#xae;" horiz-adv-x="385" 
d="M191 423q-65 0 -109 44t-44 111t43.5 110t109.5 43q68 0 111.5 -43t43.5 -110t-44 -111t-111 -44zM191 434q64 0 103 41t39 103q0 63 -39 103t-103 40q-63 0 -101.5 -40t-38.5 -103q0 -62 38.5 -103t101.5 -41zM172 587h19q23 0 32 9t9 28q0 34 -45 34h-15v-71zM172 579
v-59q0 -15 27 -15v-6h-79v6q26 0 26 15v126q0 13 -26 13v6h71q69 0 69 -40q0 -34 -48 -41v-2q22 -1 31 -10t11 -28l2 -18q1 -21 28 -21v-5q-9 -3 -21 -3q-21 0 -27.5 6.5t-7.5 24.5l-1 20q-1 18 -9 24.5t-29 6.5h-17z" />
    <glyph glyph-name="macron" unicode="&#xaf;" horiz-adv-x="321" 
d="M29 558v29h263v-29h-263z" />
    <glyph glyph-name="degree" unicode="&#xb0;" horiz-adv-x="376" 
d="M189 433q-61 0 -100.5 40.5t-39.5 99.5q0 57 40.5 99t97.5 42q61 0 100.5 -40t39.5 -99q0 -58 -40.5 -100t-97.5 -42zM190 446q38 0 61 32.5t23 94.5q0 63 -25 95.5t-64 32.5q-37 0 -59.5 -32t-22.5 -94q0 -63 24.5 -96t62.5 -33z" />
    <glyph glyph-name="plusminus" unicode="&#xb1;" horiz-adv-x="530" 
d="M59 314v17h197v196h20v-196h195v-17h-195v-198h-20v198h-197zM59 0v17h412v-17h-412z" />
    <glyph glyph-name="acute" unicode="&#xb4;" horiz-adv-x="238" 
d="M55 528l41 91q36 80 46 90q11 11 25 11q15 0 25.5 -10.5t10.5 -25.5q0 -14 -12.5 -29.5t-58.5 -60.5l-69 -66h-8z" />
    <glyph glyph-name="paragraph" unicode="&#xb6;" horiz-adv-x="666" 
d="M367 -100v283q-135 3 -221.5 67t-86.5 172q0 105 81.5 171.5t224.5 66.5h263v-8q-79 -4 -100 -15.5t-21 -48.5v-688h-21v745h-97v-745h-22z" />
    <glyph glyph-name="periodcentered" unicode="&#xb7;" horiz-adv-x="209" 
d="M105 274q-23 0 -39 15.5t-16 38.5t16 38.5t39 15.5q22 0 38 -15.5t16 -37.5q0 -23 -15.5 -39t-38.5 -16z" />
    <glyph glyph-name="cedilla" unicode="&#xb8;" horiz-adv-x="282" 
d="M110 -247q-57 0 -97 36l7 10q33 -29 80 -29q32 0 47.5 17t15.5 46q0 28 -22 44.5t-56 16.5q-19 0 -37 -5l-4 7l109 99h21l-71 -66l1 -2q56 0 85 -24.5t29 -61.5q0 -38 -30.5 -63t-77.5 -25z" />
    <glyph glyph-name="ordmasculine" unicode="&#xba;" horiz-adv-x="446" 
d="M223 331q-75 0 -124.5 49.5t-49.5 128.5q0 78 51.5 130t123.5 52q74 0 123.5 -50t49.5 -129q0 -77 -51.5 -129t-122.5 -52zM227 343q97 0 97 167q0 169 -104 169q-97 0 -97 -168t104 -168z" />
    <glyph glyph-name="guillemotright" unicode="&#xbb;" horiz-adv-x="490" 
d="M252 29l-8 6l141 188l-141 191l8 5l184 -176q14 -13 14 -19t-14 -19zM62 29l-8 6l141 188l-141 191l8 5l184 -176q14 -13 14 -19t-14 -19z" />
    <glyph glyph-name="questiondown" unicode="&#xbf;" horiz-adv-x="453" 
d="M263 616q-23 0 -38.5 16t-15.5 38t15.5 38t38.5 16t39 -15.5t16 -37.5q0 -23 -16 -39t-39 -16zM234 -17q-98 0 -157 51.5t-59 124.5q0 158 237 207v156h20v-167q-100 -20 -135 -63.5t-35 -131.5q0 -81 36.5 -122.5t101.5 -41.5q45 0 79.5 20.5t50.5 51.5q-55 14 -55 61
q0 23 15 40.5t41 17.5t43 -18.5t17 -45.5q0 -55 -58.5 -97.5t-141.5 -42.5z" />
    <glyph glyph-name="Agrave" unicode="&#xc0;" horiz-adv-x="680" 
d="M492 98l-63 173h-249l-41 -107q-35 -89 -22.5 -118.5t88.5 -36.5v-9h-229v9q52 9 79.5 39t62.5 118l220 553h14l226 -602q25 -66 45 -84.5t78 -23.5v-9h-297v9q75 3 91.5 22t-3.5 67zM186 287h238l-113 313h-3zM371 768l-69 66q-46 45 -58.5 60.5t-12.5 29.5
q0 15 10.5 25.5t26.5 10.5q17 0 26.5 -13t31.5 -62q8 -16 12 -26l41 -91h-8z" />
    <glyph glyph-name="Aacute" unicode="&#xc1;" horiz-adv-x="680" 
d="M492 98l-63 173h-249l-41 -107q-35 -89 -22.5 -118.5t88.5 -36.5v-9h-229v9q52 9 79.5 39t62.5 118l220 553h14l226 -602q25 -66 45 -84.5t78 -23.5v-9h-297v9q75 3 91.5 22t-3.5 67zM186 287h238l-113 313h-3zM315 768l41 91q36 80 46 90.5t25 10.5t25.5 -10.5
t10.5 -25.5q0 -14 -12.5 -29.5t-58.5 -60.5l-69 -66h-8z" />
    <glyph glyph-name="Acircumflex" unicode="&#xc2;" horiz-adv-x="680" 
d="M492 98l-63 173h-249l-41 -107q-35 -89 -22.5 -118.5t88.5 -36.5v-9h-229v9q52 9 79.5 39t62.5 118l220 553h14l226 -602q25 -66 45 -84.5t78 -23.5v-9h-297v9q75 3 91.5 22t-3.5 67zM186 287h238l-113 313h-3zM216 763l128 179h9l121 -179h-12l-117 98l-117 -98h-12z
" />
    <glyph glyph-name="Atilde" unicode="&#xc3;" horiz-adv-x="680" 
d="M492 98l-63 173h-249l-41 -107q-35 -89 -22.5 -118.5t88.5 -36.5v-9h-229v9q52 9 79.5 39t62.5 118l220 553h14l226 -602q25 -66 45 -84.5t78 -23.5v-9h-297v9q75 3 91.5 22t-3.5 67zM186 287h238l-113 313h-3zM190 763q10 59 31.5 88t58.5 29q24 0 78 -24.5t72 -24.5
q36 0 53 62h11q-20 -117 -90 -117q-24 0 -78 24.5t-72 24.5q-36 0 -53 -62h-11z" />
    <glyph glyph-name="Adieresis" unicode="&#xc4;" horiz-adv-x="680" 
d="M492 98l-63 173h-249l-41 -107q-35 -89 -22.5 -118.5t88.5 -36.5v-9h-229v9q52 9 79.5 39t62.5 118l220 553h14l226 -602q25 -66 45 -84.5t78 -23.5v-9h-297v9q75 3 91.5 22t-3.5 67zM186 287h238l-113 313h-3zM427 773q-22 0 -36 14.5t-14 36.5q0 21 14 36.5t35 15.5
t35.5 -15.5t14.5 -37.5q0 -21 -14 -35.5t-35 -14.5zM263 773q-22 0 -36 14.5t-14 36.5q0 21 14 36.5t35 15.5t35.5 -15.5t14.5 -37.5q0 -21 -14 -35.5t-35 -14.5z" />
    <glyph glyph-name="Aring" unicode="&#xc5;" horiz-adv-x="680" 
d="M344 713q28 0 44 24.5t16 65.5q0 90 -60 90q-59 0 -59 -90q0 -42 15.5 -66t43.5 -24zM180 271l-41 -107q-35 -89 -22.5 -118.5t88.5 -36.5v-9h-229v9q52 9 79.5 39t62.5 118l213 536q-39 4 -64.5 33t-25.5 68q0 42 29 72t74 30q44 0 74 -30t30 -72q0 -38 -25 -67t-64 -34
l219 -585q25 -66 45 -84.5t78 -23.5v-9h-297v9q75 3 91.5 22t-3.5 67l-63 173h-249zM424 287l-113 313h-3l-122 -313h238z" />
    <glyph glyph-name="AE" unicode="&#xc6;" horiz-adv-x="1004" 
d="M240 285l-85 -134q-45 -71 -45 -99q0 -19 18 -28.5t58 -14.5v-9h-228v9q53 8 91.5 41.5t91.5 115.5l281 435q16 26 16 41q0 37 -102 47v8h590l3 -205l-9 -1q-41 112 -77 151.5t-106 39.5h-169v-312h95q54 0 80 27.5t45 109.5h9v-290h-9q-19 82 -45 110t-80 28h-95v-340
h185q77 0 116 42t82 161l9 -1l-5 -217h-590v9q73 2 95.5 16.5t22.5 52.5v207h-243zM483 301v359h-3l-230 -359h233z" />
    <glyph glyph-name="Ccedilla" unicode="&#xc7;" horiz-adv-x="699" 
d="M353 -247q-57 0 -97 36l7 10q33 -29 80 -29q32 0 47.5 17t15.5 46q0 28 -22 44.5t-56 16.5q-20 0 -37 -5l-4 7l96 87q-146 1 -240 97t-94 260q0 159 102 266t251 107q95 0 178 -45l42 51h8v-226h-9q-51 118 -101 162t-126 44q-106 0 -176 -87t-70 -265q0 -84 23 -149.5
t62 -104.5t84.5 -58.5t94.5 -19.5q156 0 242 174l11 -6q-35 -81 -99.5 -137t-160.5 -62l-59 -55l1 -2q56 0 85 -24.5t29 -61.5q0 -38 -30.5 -63t-77.5 -25z" />
    <glyph glyph-name="Egrave" unicode="&#xc8;" horiz-adv-x="666" 
d="M27 0v9q74 2 96 16.5t22 52.5v542q0 38 -22.5 52.5t-95.5 16.5v8h561l3 -205l-9 -1q-41 112 -77 151.5t-106 39.5h-169v-312h95q55 0 80.5 27.5t44.5 109.5h9v-290h-9q-19 82 -44.5 110t-80.5 28h-95v-340h186q76 0 115 42t82 161l9 -1l-5 -217h-590zM388 768l-69 66
q-46 45 -58.5 60.5t-12.5 29.5q0 15 10.5 25.5t26.5 10.5q17 0 26.5 -13t31.5 -62q8 -16 12 -26l41 -91h-8z" />
    <glyph glyph-name="Eacute" unicode="&#xc9;" horiz-adv-x="666" 
d="M326 768l41 91q36 80 46 90.5t25 10.5t25.5 -10.5t10.5 -25.5q0 -14 -12.5 -29.5t-58.5 -60.5l-69 -66h-8zM27 0v9q74 2 96 16.5t22 52.5v542q0 38 -22.5 52.5t-95.5 16.5v8h561l3 -205l-9 -1q-41 112 -77 151.5t-106 39.5h-169v-312h95q55 0 80.5 27.5t44.5 109.5h9
v-290h-9q-19 82 -44.5 110t-80.5 28h-95v-340h186q76 0 115 42t82 161l9 -1l-5 -217h-590z" />
    <glyph glyph-name="Ecircumflex" unicode="&#xca;" horiz-adv-x="666" 
d="M218 768l128 179h9l121 -179h-12l-117 98l-117 -98h-12zM27 0v9q74 2 96 16.5t22 52.5v542q0 38 -22.5 52.5t-95.5 16.5v8h561l3 -205l-9 -1q-41 112 -77 151.5t-106 39.5h-169v-312h95q55 0 80.5 27.5t44.5 109.5h9v-290h-9q-19 82 -44.5 110t-80.5 28h-95v-340h186
q76 0 115 42t82 161l9 -1l-5 -217h-590z" />
    <glyph glyph-name="Edieresis" unicode="&#xcb;" horiz-adv-x="666" 
d="M436 773q-22 0 -36 14.5t-14 36.5q0 21 14 36.5t35 15.5t35.5 -15.5t14.5 -37.5q0 -21 -14 -35.5t-35 -14.5zM272 773q-22 0 -36 14.5t-14 36.5q0 21 14 36.5t35 15.5t35.5 -15.5t14.5 -37.5q0 -21 -14 -35.5t-35 -14.5zM27 0v9q74 2 96 16.5t22 52.5v542
q0 38 -22.5 52.5t-95.5 16.5v8h561l3 -205l-9 -1q-41 112 -77 151.5t-106 39.5h-169v-312h95q55 0 80.5 27.5t44.5 109.5h9v-290h-9q-19 82 -44.5 110t-80.5 28h-95v-340h186q76 0 115 42t82 161l9 -1l-5 -217h-590z" />
    <glyph glyph-name="Igrave" unicode="&#xcc;" horiz-adv-x="388" 
d="M30 0v9q76 2 99 16t23 53v542q0 38 -23 52.5t-99 16.5v8h328v-8q-76 -2 -99 -16.5t-23 -52.5v-542q0 -39 23 -53t99 -16v-9h-328zM231 768l-69 66q-46 45 -58.5 60.5t-12.5 29.5q0 15 10.5 25.5t26.5 10.5q17 0 26.5 -13t31.5 -62q8 -16 12 -26l41 -91h-8z" />
    <glyph glyph-name="Iacute" unicode="&#xcd;" horiz-adv-x="388" 
d="M30 0v9q76 2 99 16t23 53v542q0 38 -23 52.5t-99 16.5v8h328v-8q-76 -2 -99 -16.5t-23 -52.5v-542q0 -39 23 -53t99 -16v-9h-328zM165 768l41 91q36 80 46 90.5t25 10.5t25.5 -10.5t10.5 -25.5q0 -14 -12.5 -29.5t-58.5 -60.5l-69 -66h-8z" />
    <glyph glyph-name="Icircumflex" unicode="&#xce;" horiz-adv-x="388" 
d="M30 0v9q76 2 99 16t23 53v542q0 38 -23 52.5t-99 16.5v8h328v-8q-76 -2 -99 -16.5t-23 -52.5v-542q0 -39 23 -53t99 -16v-9h-328zM65 768l128 179h9l121 -179h-12l-117 98l-117 -98h-12z" />
    <glyph glyph-name="Idieresis" unicode="&#xcf;" horiz-adv-x="388" 
d="M30 0v9q76 2 99 16t23 53v542q0 38 -23 52.5t-99 16.5v8h328v-8q-76 -2 -99 -16.5t-23 -52.5v-542q0 -39 23 -53t99 -16v-9h-328zM277 773q-22 0 -36 14.5t-14 36.5q0 21 14 36.5t35 15.5t35.5 -15.5t14.5 -37.5q0 -21 -14 -35.5t-35 -14.5zM113 773q-22 0 -36 14.5
t-14 36.5q0 21 14 36.5t35 15.5t35.5 -15.5t14.5 -37.5q0 -21 -14 -35.5t-35 -14.5z" />
    <glyph glyph-name="Eth" unicode="&#xd0;" horiz-adv-x="750" 
d="M27 0v9q74 2 96 16.5t22 52.5v276h-98v19h98v247q0 38 -22.5 52.5t-95.5 16.5v8h299q178 0 276.5 -94.5t98.5 -242.5q0 -70 -23 -133.5t-66.5 -114.5t-115.5 -81.5t-163 -30.5h-306zM230 15h76q166 0 231 73.5t65 265.5q0 97 -17.5 161.5t-55.5 101t-88.5 51t-124.5 14.5
h-86v-309h154v-19h-154v-339z" />
    <glyph glyph-name="Ntilde" unicode="&#xd1;" 
d="M633 -17l-466 629h-2v-487q0 -60 23 -83t101 -33v-9h-263v9q74 10 97.5 33.5t23.5 82.5v466q0 44 -27 69t-94 29v8h188l414 -561h1v437q0 59 -25 82.5t-102 33.5v8h260v-8q-72 -11 -93.5 -34t-21.5 -82v-590h-14zM255 763q10 59 31.5 88t58.5 29q25 0 78 -24.5t72 -24.5
q36 0 53 62h11q-20 -117 -90 -117q-24 0 -77.5 24.5t-72.5 24.5q-36 0 -53 -62h-11z" />
    <glyph glyph-name="Ograve" unicode="&#xd2;" horiz-adv-x="758" 
d="M379 -17q-134 0 -232 101.5t-98 262.5q0 160 100.5 263.5t230.5 103.5q134 0 231.5 -101t97.5 -263q0 -106 -48.5 -191.5t-123.5 -130.5t-158 -45zM382 -3q107 0 167.5 80t60.5 271q0 352 -234 352q-51 0 -90.5 -17t-71.5 -56t-49 -109t-17 -169q0 -352 234 -352z
M410 768l-69 66q-46 45 -58.5 60.5t-12.5 29.5q0 15 10.5 25.5t26.5 10.5q17 0 26.5 -13t31.5 -62q8 -16 12 -26l41 -91h-8z" />
    <glyph glyph-name="Oacute" unicode="&#xd3;" horiz-adv-x="758" 
d="M348 768l41 91q36 80 46 90.5t25 10.5t25.5 -10.5t10.5 -25.5q0 -14 -12.5 -29.5t-58.5 -60.5l-69 -66h-8zM379 -17q-134 0 -232 101.5t-98 262.5q0 160 100.5 263.5t230.5 103.5q134 0 231.5 -101t97.5 -263q0 -106 -48.5 -191.5t-123.5 -130.5t-158 -45zM382 -3
q107 0 167.5 80t60.5 271q0 352 -234 352q-51 0 -90.5 -17t-71.5 -56t-49 -109t-17 -169q0 -352 234 -352z" />
    <glyph glyph-name="Ocircumflex" unicode="&#xd4;" horiz-adv-x="758" 
d="M251 768l128 179h9l121 -179h-12l-117 98l-117 -98h-12zM379 -17q-134 0 -232 101.5t-98 262.5q0 160 100.5 263.5t230.5 103.5q134 0 231.5 -101t97.5 -263q0 -106 -48.5 -191.5t-123.5 -130.5t-158 -45zM382 -3q107 0 167.5 80t60.5 271q0 352 -234 352
q-51 0 -90.5 -17t-71.5 -56t-49 -109t-17 -169q0 -352 234 -352z" />
    <glyph glyph-name="Otilde" unicode="&#xd5;" horiz-adv-x="758" 
d="M379 -17q-134 0 -232 101.5t-98 262.5q0 160 100.5 263.5t230.5 103.5q134 0 231.5 -101t97.5 -263q0 -106 -48.5 -191.5t-123.5 -130.5t-158 -45zM382 -3q107 0 167.5 80t60.5 271q0 352 -234 352q-51 0 -90.5 -17t-71.5 -56t-49 -109t-17 -169q0 -352 234 -352z
M237 763q10 59 31.5 88t58.5 29q25 0 78 -24.5t72 -24.5q36 0 53 62h11q-20 -117 -90 -117q-25 0 -78 24.5t-72 24.5q-36 0 -53 -62h-11z" />
    <glyph glyph-name="Odieresis" unicode="&#xd6;" horiz-adv-x="758" 
d="M462 773q-22 0 -36 14.5t-14 36.5q0 21 14 36.5t35 15.5t35.5 -15.5t14.5 -37.5q0 -21 -14 -35.5t-35 -14.5zM298 773q-22 0 -36 14.5t-14 36.5q0 21 14 36.5t35 15.5t35.5 -15.5t14.5 -37.5q0 -21 -14 -35.5t-35 -14.5zM379 -17q-134 0 -232 101.5t-98 262.5
q0 160 100.5 263.5t230.5 103.5q134 0 231.5 -101t97.5 -263q0 -106 -48.5 -191.5t-123.5 -130.5t-158 -45zM382 -3q107 0 167.5 80t60.5 271q0 352 -234 352q-51 0 -90.5 -17t-71.5 -56t-49 -109t-17 -169q0 -352 234 -352z" />
    <glyph glyph-name="multiply" unicode="&#xd7;" horiz-adv-x="556" 
d="M458 518l14 -14l-180 -180l180 -180l-13 -13l-181 179l-179 -179l-14 14l179 179l-179 180l14 14l179 -180z" />
    <glyph glyph-name="Oslash" unicode="&#xd8;" horiz-adv-x="758" 
d="M379 -17q-122 0 -213 83l-81 -103h-26l93 116q-103 105 -103 268q0 160 100.5 263.5t230.5 103.5q120 0 212 -83l82 103h26l-93 -117q102 -105 102 -267q0 -106 -48.5 -191.5t-123.5 -130.5t-158 -45zM376 700q-51 0 -90.5 -17t-71.5 -56t-49 -109t-17 -169
q0 -144 37 -227l378 473q-58 105 -187 105zM382 -3q107 0 167.5 80t60.5 271q0 141 -37 226l-378 -472q58 -105 187 -105z" />
    <glyph glyph-name="Ugrave" unicode="&#xd9;" 
d="M394 -16q-123 0 -191.5 56.5t-68.5 165.5v414q0 38 -22.5 52.5t-95.5 16.5v8h313v-8q-71 -2 -90.5 -16t-19.5 -52v-393q0 -216 211 -216q86 0 134 47q60 60 60 168v346q0 59 -25 82.5t-103 33.5v8h260v-8q-72 -11 -93 -34t-21 -82v-353q0 -108 -63.5 -172t-184.5 -64z
M435 768l-69 66q-46 45 -58.5 60.5t-12.5 29.5q0 15 10.5 25.5t26.5 10.5q17 0 26.5 -13t31.5 -62q8 -16 12 -26l41 -91h-8z" />
    <glyph glyph-name="Uacute" unicode="&#xda;" 
d="M380 768l41 91q36 80 46 90.5t25 10.5t25.5 -10.5t10.5 -25.5q0 -14 -12.5 -29.5t-58.5 -60.5l-69 -66h-8zM394 -16q-123 0 -191.5 56.5t-68.5 165.5v414q0 38 -22.5 52.5t-95.5 16.5v8h313v-8q-71 -2 -90.5 -16t-19.5 -52v-393q0 -216 211 -216q86 0 134 47
q60 60 60 168v346q0 59 -25 82.5t-103 33.5v8h260v-8q-72 -11 -93 -34t-21 -82v-353q0 -108 -63.5 -172t-184.5 -64z" />
    <glyph glyph-name="Ucircumflex" unicode="&#xdb;" 
d="M284 768l128 179h9l121 -179h-12l-117 98l-117 -98h-12zM394 -16q-123 0 -191.5 56.5t-68.5 165.5v414q0 38 -22.5 52.5t-95.5 16.5v8h313v-8q-71 -2 -90.5 -16t-19.5 -52v-393q0 -216 211 -216q86 0 134 47q60 60 60 168v346q0 59 -25 82.5t-103 33.5v8h260v-8
q-72 -11 -93 -34t-21 -82v-353q0 -108 -63.5 -172t-184.5 -64z" />
    <glyph glyph-name="Udieresis" unicode="&#xdc;" 
d="M488 773q-22 0 -36 14.5t-14 36.5q0 21 14 36.5t35 15.5t35.5 -15.5t14.5 -37.5q0 -21 -14 -35.5t-35 -14.5zM324 773q-22 0 -36 14.5t-14 36.5q0 21 14 36.5t35 15.5t35.5 -15.5t14.5 -37.5q0 -21 -14 -35.5t-35 -14.5zM394 -16q-123 0 -191.5 56.5t-68.5 165.5v414
q0 38 -22.5 52.5t-95.5 16.5v8h313v-8q-71 -2 -90.5 -16t-19.5 -52v-393q0 -216 211 -216q86 0 134 47q60 60 60 168v346q0 59 -25 82.5t-103 33.5v8h260v-8q-72 -11 -93 -34t-21 -82v-353q0 -108 -63.5 -172t-184.5 -64z" />
    <glyph glyph-name="Yacute" unicode="&#xdd;" horiz-adv-x="660" 
d="M364 333l137 236q39 64 29.5 88t-83.5 32v8h231v-8q-56 -7 -85.5 -31t-72.5 -96l-145 -245v-239q0 -38 25 -52t96 -16v-10h-326v9q76 2 98.5 16t22.5 53v221l-175 303q-28 48 -51 64.5t-71 22.5v8h296v-8q-76 -3 -90.5 -23.5t15.5 -66.5zM335 768l41 91q36 80 46 90.5
t25 10.5t25.5 -10.5t10.5 -25.5q0 -14 -12.5 -29.5t-58.5 -60.5l-69 -66h-8z" />
    <glyph glyph-name="Thorn" unicode="&#xde;" horiz-adv-x="623" 
d="M27 0v9q74 2 96 16.5t22 52.5v542q0 38 -22 52.5t-96 16.5v8h327v-9q-77 -1 -100.5 -15.5t-23.5 -53.5v-69h80q139 0 207.5 -51.5t68.5 -137.5q0 -83 -71 -139.5t-212 -56.5h-73v-87q0 -39 23.5 -53t100.5 -16v-9h-327zM230 181h78q106 0 143.5 43t37.5 135
q0 84 -38.5 130t-139.5 46h-81v-354z" />
    <glyph glyph-name="germandbls" unicode="&#xdf;" horiz-adv-x="549" 
d="M381 -10q-55 0 -95 28.5t-40 65.5q0 20 11.5 33.5t31.5 13.5q19 0 30 -12.5t11 -29.5q0 -25 -30 -44q26 -41 85 -41q41 0 65.5 23.5t24.5 63.5q0 38 -25.5 63t-72.5 50q-52 28 -79 55.5t-27 72.5t57 102q36 35 49.5 63.5t13.5 79.5q0 68 -29 100.5t-78 32.5
q-56 0 -81.5 -34.5t-25.5 -119.5v-556h-153v9q46 1 61.5 8t15.5 32v386h-87v9l87 14v49q0 103 51.5 159.5t137.5 56.5q79 0 129 -39t50 -97q0 -38 -23.5 -69t-80.5 -74q-45 -33 -45 -70q0 -18 7.5 -32.5t23.5 -28.5t29.5 -22.5t37.5 -21.5q35 -20 55 -34.5t38 -41.5t18 -59
q0 -59 -42 -101.5t-106 -42.5z" />
    <glyph glyph-name="agrave" unicode="&#xe0;" horiz-adv-x="473" 
d="M164 -6q-58 0 -89.5 30.5t-31.5 74.5q0 66 62 100q30 16 68 27.5t88 21.5t54 11v68q0 64 -22.5 92t-74.5 28q-66 0 -93 -36q35 -16 35 -49q0 -22 -13.5 -36t-35.5 -14t-34.5 14.5t-12.5 35.5q0 43 48.5 71.5t116.5 28.5q162 0 162 -132v-248q0 -42 18 -54.5t63 4.5l3 -7
q-47 -29 -85 -29q-36 0 -53.5 18.5t-18.5 61.5h-3q-72 -82 -151 -82zM204 29q61 0 111 65v151q-115 -21 -153 -47.5t-38 -82.5q0 -86 80 -86zM259 528l-69 66q-46 45 -58.5 60.5t-12.5 29.5q0 15 10.5 25.5t26.5 10.5q17 0 26.5 -13t31.5 -62q8 -16 12 -26l41 -91h-8z" />
    <glyph glyph-name="aacute" unicode="&#xe1;" horiz-adv-x="473" 
d="M164 -6q-58 0 -89.5 30.5t-31.5 74.5q0 66 62 100q30 16 68 27.5t88 21.5t54 11v68q0 64 -22.5 92t-74.5 28q-66 0 -93 -36q35 -16 35 -49q0 -22 -13.5 -36t-35.5 -14t-34.5 14.5t-12.5 35.5q0 43 48.5 71.5t116.5 28.5q162 0 162 -132v-248q0 -42 18 -54.5t63 4.5l3 -7
q-47 -29 -85 -29q-36 0 -53.5 18.5t-18.5 61.5h-3q-72 -82 -151 -82zM204 29q61 0 111 65v151q-115 -21 -153 -47.5t-38 -82.5q0 -86 80 -86zM206 528l41 91q36 80 46 90.5t25 10.5t25.5 -10.5t10.5 -25.5q0 -14 -12.5 -29.5t-58.5 -60.5l-69 -66h-8z" />
    <glyph glyph-name="acircumflex" unicode="&#xe2;" horiz-adv-x="473" 
d="M164 -6q-58 0 -89.5 30.5t-31.5 74.5q0 66 62 100q30 16 68 27.5t88 21.5t54 11v68q0 64 -22.5 92t-74.5 28q-66 0 -93 -36q35 -16 35 -49q0 -22 -13.5 -36t-35.5 -14t-34.5 14.5t-12.5 35.5q0 43 48.5 71.5t116.5 28.5q162 0 162 -132v-248q0 -42 18 -54.5t63 4.5l3 -7
q-47 -29 -85 -29q-36 0 -53.5 18.5t-18.5 61.5h-3q-72 -82 -151 -82zM204 29q61 0 111 65v151q-115 -21 -153 -47.5t-38 -82.5q0 -86 80 -86zM107 528l128 179h9l121 -179h-12l-117 98l-117 -98h-12z" />
    <glyph glyph-name="atilde" unicode="&#xe3;" horiz-adv-x="473" 
d="M164 -6q-58 0 -89.5 30.5t-31.5 74.5q0 66 62 100q30 16 68 27.5t88 21.5t54 11v68q0 64 -22.5 92t-74.5 28q-66 0 -93 -36q35 -16 35 -49q0 -22 -13.5 -36t-35.5 -14t-34.5 14.5t-12.5 35.5q0 43 48.5 71.5t116.5 28.5q162 0 162 -132v-248q0 -42 18 -54.5t63 4.5l3 -7
q-47 -29 -85 -29q-36 0 -53.5 18.5t-18.5 61.5h-3q-72 -82 -151 -82zM204 29q61 0 111 65v151q-115 -21 -153 -47.5t-38 -82.5q0 -86 80 -86zM85 523q10 59 31.5 88t58.5 29q25 0 78 -24.5t72 -24.5q36 0 53 62h11q-20 -117 -90 -117q-25 0 -78.5 24.5t-71.5 24.5
q-36 0 -53 -62h-11z" />
    <glyph glyph-name="adieresis" unicode="&#xe4;" horiz-adv-x="473" 
d="M164 -6q-58 0 -89.5 30.5t-31.5 74.5q0 66 62 100q30 16 68 27.5t88 21.5t54 11v68q0 64 -22.5 92t-74.5 28q-66 0 -93 -36q35 -16 35 -49q0 -22 -13.5 -36t-35.5 -14t-34.5 14.5t-12.5 35.5q0 43 48.5 71.5t116.5 28.5q162 0 162 -132v-248q0 -42 18 -54.5t63 4.5l3 -7
q-47 -29 -85 -29q-36 0 -53.5 18.5t-18.5 61.5h-3q-72 -82 -151 -82zM204 29q61 0 111 65v151q-115 -21 -153 -47.5t-38 -82.5q0 -86 80 -86zM319 533q-22 0 -36 14.5t-14 36.5q0 21 14 36.5t35 15.5t35.5 -15.5t14.5 -37.5q0 -21 -14 -35.5t-35 -14.5zM155 533
q-22 0 -36 14.5t-14 36.5q0 21 14 36.5t35 15.5t35.5 -15.5t14.5 -37.5q0 -21 -14 -35.5t-35 -14.5z" />
    <glyph glyph-name="aring" unicode="&#xe5;" horiz-adv-x="473" 
d="M164 -6q-58 0 -89.5 30.5t-31.5 74.5q0 66 62 100q30 16 68 27.5t88 21.5t54 11v68q0 64 -22.5 92t-74.5 28q-66 0 -93 -36q35 -16 35 -49q0 -22 -13.5 -36t-35.5 -14t-34.5 14.5t-12.5 35.5q0 43 48.5 71.5t116.5 28.5q162 0 162 -132v-248q0 -42 18 -54.5t63 4.5l3 -7
q-47 -29 -85 -29q-36 0 -53.5 18.5t-18.5 61.5h-3q-72 -82 -151 -82zM204 29q61 0 111 65v151q-115 -21 -153 -47.5t-38 -82.5q0 -86 80 -86zM236 533q-45 0 -74 30t-29 72t29 72t74 30q44 0 74 -30t30 -72t-29.5 -72t-74.5 -30zM236 545q28 0 44 24t16 66q0 90 -60 90
q-59 0 -59 -90q0 -42 15.5 -66t43.5 -24z" />
    <glyph glyph-name="ae" unicode="&#xe6;" horiz-adv-x="754" 
d="M534 466q91 0 140.5 -59t44.5 -145h-317q-1 -11 -1 -32v-1q0 -93 42.5 -150t116.5 -57q47 0 82.5 24t69.5 70l9 -6q-73 -120 -189 -120q-64 0 -111.5 32.5t-69.5 90.5h-3q-29 -56 -78 -87.5t-106 -31.5q-58 0 -89.5 30.5t-31.5 74.5q0 66 62 100q29 16 70.5 27.5t91.5 21
t57 11.5v68q0 120 -106 120q-66 0 -93 -36q35 -16 35 -49q0 -22 -13.5 -36t-35.5 -14t-34.5 14.5t-12.5 35.5q0 43 48.5 71.5t116.5 28.5q117 0 149 -74q60 78 156 78zM529 452q-54 0 -86.5 -45.5t-39.5 -131.5h234q12 177 -108 177zM208 29q34 0 66.5 20t49.5 53v142
q-118 -20 -159 -47t-41 -82q0 -41 22 -63.5t62 -22.5z" />
    <glyph glyph-name="ccedilla" unicode="&#xe7;" horiz-adv-x="452" 
d="M227 -247q-57 0 -97 36l7 10q33 -29 80 -29q32 0 47.5 17t15.5 46q0 28 -22 44.5t-56 16.5q-20 0 -37 -5l-4 7l104 95q-3 0 -9 -0.5t-10 -0.5q-93 0 -151.5 65.5t-58.5 164.5q0 104 67.5 175t161.5 71q69 0 112 -30.5t43 -67.5q0 -23 -13.5 -37.5t-34.5 -14.5
q-22 0 -36 13.5t-14 35.5q0 35 32 53q-30 34 -89 34q-62 0 -104.5 -57t-42.5 -158q0 -94 44 -151.5t124 -57.5q42 0 72.5 18.5t65.5 59.5l9 -6q-65 -90 -143 -105l-70 -66l1 -2q56 0 85 -24.5t29 -61.5q0 -38 -30.5 -63t-77.5 -25z" />
    <glyph glyph-name="egrave" unicode="&#xe8;" horiz-adv-x="471" 
d="M250 -10q-93 0 -153.5 65t-60.5 167q0 100 63.5 172t151.5 72q91 0 141 -59.5t45 -144.5h-318q-1 -11 -1 -32v-1q0 -93 42.5 -150t116.5 -57q47 0 82.5 24t70.5 70l9 -6q-75 -120 -189 -120zM247 452q-54 0 -87 -45.5t-40 -131.5h235q10 177 -108 177zM274 528l-69 66
q-46 45 -58.5 60.5t-12.5 29.5q0 15 10.5 25.5t26.5 10.5q17 0 26.5 -13t31.5 -62q8 -16 12 -26l41 -91h-8z" />
    <glyph glyph-name="eacute" unicode="&#xe9;" horiz-adv-x="471" 
d="M250 -10q-93 0 -153.5 65t-60.5 167q0 100 63.5 172t151.5 72q91 0 141 -59.5t45 -144.5h-318q-1 -11 -1 -32v-1q0 -93 42.5 -150t116.5 -57q47 0 82.5 24t70.5 70l9 -6q-75 -120 -189 -120zM247 452q-54 0 -87 -45.5t-40 -131.5h235q10 177 -108 177zM223 528l41 91
q36 80 46 90.5t25 10.5t25.5 -10.5t10.5 -25.5q0 -14 -12.5 -29.5t-58.5 -60.5l-69 -66h-8z" />
    <glyph glyph-name="ecircumflex" unicode="&#xea;" horiz-adv-x="471" 
d="M250 -10q-93 0 -153.5 65t-60.5 167q0 100 63.5 172t151.5 72q91 0 141 -59.5t45 -144.5h-318q-1 -11 -1 -32v-1q0 -93 42.5 -150t116.5 -57q47 0 82.5 24t70.5 70l9 -6q-75 -120 -189 -120zM247 452q-54 0 -87 -45.5t-40 -131.5h235q10 177 -108 177zM121 528l128 179h9
l121 -179h-12l-117 98l-117 -98h-12z" />
    <glyph glyph-name="edieresis" unicode="&#xeb;" horiz-adv-x="471" 
d="M250 -10q-93 0 -153.5 65t-60.5 167q0 100 63.5 172t151.5 72q91 0 141 -59.5t45 -144.5h-318q-1 -11 -1 -32v-1q0 -93 42.5 -150t116.5 -57q47 0 82.5 24t70.5 70l9 -6q-75 -120 -189 -120zM247 452q-54 0 -87 -45.5t-40 -131.5h235q10 177 -108 177zM169 533
q-22 0 -36 14.5t-14 36.5q0 21 14 36.5t35 15.5t35.5 -15.5t14.5 -37.5q0 -21 -14 -35.5t-35 -14.5zM333 533q-22 0 -36 14.5t-14 36.5q0 21 14 36.5t35 15.5t35.5 -15.5t14.5 -37.5q0 -21 -14 -35.5t-35 -14.5z" />
    <glyph glyph-name="igrave" unicode="&#xec;" horiz-adv-x="266" 
d="M22 0v9q46 1 61.5 8t15.5 32v349q0 25 -15 35.5t-62 13.5v8l153 5v-411q0 -25 15 -32t61 -8v-9h-229zM151 528l-69 66q-46 45 -58.5 60.5t-12.5 29.5q0 15 10.5 25.5t26.5 10.5q17 0 26.5 -13t31.5 -62q8 -16 12 -26l41 -91h-8z" />
    <glyph glyph-name="iacute" unicode="&#xed;" horiz-adv-x="266" 
d="M96 528l41 91q36 80 46 90q11 11 25 11q15 0 25.5 -10.5t10.5 -25.5q0 -14 -12.5 -29.5t-58.5 -60.5l-69 -66h-8zM22 0v9q46 1 61.5 8t15.5 32v349q0 25 -15 35.5t-62 13.5v8l153 5v-411q0 -25 15 -32t61 -8v-9h-229z" />
    <glyph glyph-name="icircumflex" unicode="&#xee;" horiz-adv-x="266" 
d="M-4 528l128 179h9l121 -179h-12l-117 98l-117 -98h-12zM22 0v9q46 1 61.5 8t15.5 32v349q0 25 -15 35.5t-62 13.5v8l153 5v-411q0 -25 15 -32t61 -8v-9h-229z" />
    <glyph glyph-name="idieresis" unicode="&#xef;" horiz-adv-x="266" 
d="M209 533q-22 0 -36 14.5t-14 36.5q0 21 14 36.5t35 15.5t35.5 -15.5t14.5 -37.5q0 -21 -14 -35.5t-35 -14.5zM45 533q-22 0 -36 14.5t-14 36.5q0 21 14 36.5t35 15.5t35.5 -15.5t14.5 -37.5q0 -21 -14 -35.5t-35 -14.5zM22 0v9q46 1 61.5 8t15.5 32v349q0 25 -15 35.5
t-62 13.5v8l153 5v-411q0 -25 15 -32t61 -8v-9h-229z" />
    <glyph glyph-name="eth" unicode="&#xf0;" horiz-adv-x="528" 
d="M432 658l-89 -44q142 -122 142 -304q0 -144 -64 -232t-160 -88q-85 0 -151 67.5t-66 166.5q0 101 68 171.5t151 70.5q78 0 121 -66l4 2q-15 109 -85 193l-125 -61l-6 14l120 59q-57 61 -144 101l4 10q100 -33 178 -93l96 47zM272 4q57 0 91.5 61t34.5 181q0 97 -34 152
t-97 55q-62 0 -100 -55t-38 -171q0 -108 38.5 -165.5t104.5 -57.5z" />
    <glyph glyph-name="ntilde" unicode="&#xf1;" horiz-adv-x="540" 
d="M17 0v9q46 1 61.5 8t15.5 32v349q0 25 -15 35.5t-62 13.5v8l152 5v-116q73 120 172 120q58 0 89.5 -35.5t31.5 -101.5v-278q0 -25 15 -32t59 -8v-9h-217v9q41 1 54 8t13 32v257q0 59 -20.5 88.5t-67.5 29.5q-37 0 -71 -28t-57 -74v-273q0 -25 13.5 -32t53.5 -8v-9h-220z
M125 523q10 59 31.5 88t58.5 29q25 0 78 -24.5t72 -24.5q36 0 53 62h11q-20 -117 -90 -117q-25 0 -78 24.5t-72 24.5q-36 0 -53 -62h-11z" />
    <glyph glyph-name="ograve" unicode="&#xf2;" horiz-adv-x="519" 
d="M260 -10q-92 0 -158 67t-66 170q0 101 68 170t156 69q92 0 158 -66.5t66 -169.5q0 -101 -68 -170.5t-156 -69.5zM264 4q134 0 134 224q0 225 -143 225q-134 0 -134 -224q0 -225 143 -225zM282 528l-69 66q-46 45 -58.5 60.5t-12.5 29.5q0 15 10.5 25.5t26.5 10.5
q17 0 26.5 -13t31.5 -62q8 -16 12 -26l41 -91h-8z" />
    <glyph glyph-name="oacute" unicode="&#xf3;" horiz-adv-x="519" 
d="M233 528l41 91q36 80 46 90.5t25 10.5t25.5 -10.5t10.5 -25.5q0 -14 -12.5 -29.5t-58.5 -60.5l-69 -66h-8zM260 -10q-92 0 -158 67t-66 170q0 101 68 170t156 69q92 0 158 -66.5t66 -169.5q0 -101 -68 -170.5t-156 -69.5zM264 4q134 0 134 224q0 225 -143 225
q-134 0 -134 -224q0 -225 143 -225z" />
    <glyph glyph-name="ocircumflex" unicode="&#xf4;" horiz-adv-x="519" 
d="M132 528l128 179h9l121 -179h-12l-117 98l-117 -98h-12zM260 -10q-92 0 -158 67t-66 170q0 101 68 170t156 69q92 0 158 -66.5t66 -169.5q0 -101 -68 -170.5t-156 -69.5zM264 4q134 0 134 224q0 225 -143 225q-134 0 -134 -224q0 -225 143 -225z" />
    <glyph glyph-name="otilde" unicode="&#xf5;" horiz-adv-x="519" 
d="M260 -10q-92 0 -158 67t-66 170q0 101 68 170t156 69q92 0 158 -66.5t66 -169.5q0 -101 -68 -170.5t-156 -69.5zM264 4q134 0 134 224q0 225 -143 225q-134 0 -134 -224q0 -225 143 -225zM107 523q10 59 31.5 88t58.5 29q25 0 78 -24.5t72 -24.5q36 0 53 62h11
q-20 -117 -90 -117q-25 0 -78 24.5t-72 24.5q-36 0 -53 -62h-11z" />
    <glyph glyph-name="odieresis" unicode="&#xf6;" horiz-adv-x="519" 
d="M342 533q-22 0 -36 14.5t-14 36.5q0 21 14 36.5t35 15.5t35.5 -15.5t14.5 -37.5q0 -21 -14 -35.5t-35 -14.5zM178 533q-22 0 -36 14.5t-14 36.5q0 21 14 36.5t35 15.5t35.5 -15.5t14.5 -37.5q0 -21 -14 -35.5t-35 -14.5zM260 -10q-92 0 -158 67t-66 170q0 101 68 170
t156 69q92 0 158 -66.5t66 -169.5q0 -101 -68 -170.5t-156 -69.5zM264 4q134 0 134 224q0 225 -143 225q-134 0 -134 -224q0 -225 143 -225z" />
    <glyph glyph-name="divide" unicode="&#xf7;" horiz-adv-x="576" 
d="M54 317v17h468v-17h-468zM289 416q-23 0 -39 15.5t-16 38.5t16 38.5t39 15.5q22 0 38 -15.5t16 -37.5q0 -23 -15.5 -39t-38.5 -16zM289 126q-23 0 -39 15.5t-16 38.5t16 38.5t39 15.5q22 0 38 -15.5t16 -37.5q0 -23 -15.5 -39t-38.5 -16z" />
    <glyph glyph-name="oslash" unicode="&#xf8;" horiz-adv-x="519" 
d="M69 -28h-24l62 79q-71 69 -71 176q0 101 68 170t156 69q77 0 137 -49l53 67h24l-62 -79q72 -69 72 -175q0 -101 -68 -170.5t-156 -69.5q-78 0 -138 49zM121 229q0 -83 20 -135l229 288q-37 71 -115 71q-134 0 -134 -224zM264 4q134 0 134 224q0 83 -20 135l-229 -289
q36 -70 115 -70z" />
    <glyph glyph-name="ugrave" unicode="&#xf9;" horiz-adv-x="530" 
d="M202 -9q-58 0 -89.5 35.5t-31.5 101.5v271q0 24 -15 34.5t-60 13.5v8l151 5v-309q0 -119 88 -119q37 0 70 27.5t56 73.5v266q0 24 -15.5 34.5t-63.5 13.5v8l155 5v-413q0 -22 16.5 -30t60.5 -9v-8h-152v111q-73 -120 -170 -120zM287 528l-69 66q-46 45 -58.5 60.5
t-12.5 29.5q0 15 10.5 25.5t26.5 10.5q17 0 26.5 -13t31.5 -62q8 -16 12 -26l41 -91h-8z" />
    <glyph glyph-name="uacute" unicode="&#xfa;" horiz-adv-x="530" 
d="M222 528l41 91q36 80 46 90.5t25 10.5t25.5 -10.5t10.5 -25.5q0 -14 -12.5 -29.5t-58.5 -60.5l-69 -66h-8zM202 -9q-58 0 -89.5 35.5t-31.5 101.5v271q0 24 -15 34.5t-60 13.5v8l151 5v-309q0 -119 88 -119q37 0 70 27.5t56 73.5v266q0 24 -15.5 34.5t-63.5 13.5v8l155 5
v-413q0 -22 16.5 -30t60.5 -9v-8h-152v111q-73 -120 -170 -120z" />
    <glyph glyph-name="ucircumflex" unicode="&#xfb;" horiz-adv-x="530" 
d="M127 528l128 179h9l121 -179h-12l-117 98l-117 -98h-12zM202 -9q-58 0 -89.5 35.5t-31.5 101.5v271q0 24 -15 34.5t-60 13.5v8l151 5v-309q0 -119 88 -119q37 0 70 27.5t56 73.5v266q0 24 -15.5 34.5t-63.5 13.5v8l155 5v-413q0 -22 16.5 -30t60.5 -9v-8h-152v111
q-73 -120 -170 -120z" />
    <glyph glyph-name="udieresis" unicode="&#xfc;" horiz-adv-x="530" 
d="M338 533q-22 0 -36 14.5t-14 36.5q0 21 14 36.5t35 15.5t35.5 -15.5t14.5 -37.5q0 -21 -14 -35.5t-35 -14.5zM174 533q-22 0 -36 14.5t-14 36.5q0 21 14 36.5t35 15.5t35.5 -15.5t14.5 -37.5q0 -21 -14 -35.5t-35 -14.5zM202 -9q-58 0 -89.5 35.5t-31.5 101.5v271
q0 24 -15 34.5t-60 13.5v8l151 5v-309q0 -119 88 -119q37 0 70 27.5t56 73.5v266q0 24 -15.5 34.5t-63.5 13.5v8l155 5v-413q0 -22 16.5 -30t60.5 -9v-8h-152v111q-73 -120 -170 -120z" />
    <glyph glyph-name="yacute" unicode="&#xfd;" horiz-adv-x="476" 
d="M244 1l-165 372q-19 42 -36 56.5t-57 18.5v8h226v-8q-49 -3 -60.5 -19t3.5 -46l125 -296l103 260q21 52 11 73t-61 28v8h160v-8q-31 -4 -49 -22.5t-38 -67.5l-157 -387q-39 -97 -73.5 -133t-76.5 -36q-28 0 -46 18t-18 42q0 22 12.5 37t35.5 15q19 0 32.5 -14.5
t13.5 -35.5q0 -25 -17 -44q29 4 58.5 37.5t64.5 122.5zM245 528l41 91q36 80 46 90.5t25 10.5t25.5 -10.5t10.5 -25.5q0 -14 -12.5 -29.5t-58.5 -60.5l-69 -66h-8z" />
    <glyph glyph-name="thorn" unicode="&#xfe;" horiz-adv-x="524" 
d="M150 717v-328q70 77 151 77q83 0 134 -64t51 -163q0 -107 -61 -178t-151 -71q-66 0 -124 37v-170q0 -25 19.5 -32.5t77.5 -7.5v-9h-251v8q46 1 62 8t16 32v800q0 27 -15 36.5t-68 12.5v8zM269 5q64 0 98 60.5t34 167.5q0 86 -37 142.5t-100 56.5q-62 0 -114 -60v-286
q29 -81 119 -81z" />
    <glyph glyph-name="ydieresis" unicode="&#xff;" horiz-adv-x="476" 
d="M244 1l-165 372q-19 42 -36 56.5t-57 18.5v8h226v-8q-49 -3 -60.5 -19t3.5 -46l125 -296l103 260q21 52 11 73t-61 28v8h160v-8q-31 -4 -49 -22.5t-38 -67.5l-157 -387q-39 -97 -73.5 -133t-76.5 -36q-28 0 -46 18t-18 42q0 22 12.5 37t35.5 15q19 0 32.5 -14.5
t13.5 -35.5q0 -25 -17 -44q29 4 58.5 37.5t64.5 122.5zM350 533q-22 0 -36 14.5t-14 36.5q0 21 14 36.5t35 15.5t35.5 -15.5t14.5 -37.5q0 -21 -14 -35.5t-35 -14.5zM186 533q-22 0 -36 14.5t-14 36.5q0 21 14 36.5t35 15.5t35.5 -15.5t14.5 -37.5q0 -21 -14 -35.5
t-35 -14.5z" />
    <glyph glyph-name="Amacron" unicode="&#x100;" horiz-adv-x="680" 
d="M492 98l-63 173h-249l-41 -107q-35 -89 -22.5 -118.5t88.5 -36.5v-9h-229v9q52 9 79.5 39t62.5 118l220 553h14l226 -602q25 -66 45 -84.5t78 -23.5v-9h-297v9q75 3 91.5 22t-3.5 67zM186 287h238l-113 313h-3zM212 798v29h263v-29h-263z" />
    <glyph glyph-name="amacron" unicode="&#x101;" horiz-adv-x="473" 
d="M164 -6q-58 0 -89.5 30.5t-31.5 74.5q0 66 62 100q30 16 68 27.5t88 21.5t54 11v68q0 64 -22.5 92t-74.5 28q-66 0 -93 -36q35 -16 35 -49q0 -22 -13.5 -36t-35.5 -14t-34.5 14.5t-12.5 35.5q0 43 48.5 71.5t116.5 28.5q162 0 162 -132v-248q0 -42 18 -54.5t63 4.5l3 -7
q-47 -29 -85 -29q-36 0 -53.5 18.5t-18.5 61.5h-3q-72 -82 -151 -82zM204 29q61 0 111 65v151q-115 -21 -153 -47.5t-38 -82.5q0 -86 80 -86zM105 558v29h263v-29h-263z" />
    <glyph glyph-name="Abreve" unicode="&#x102;" horiz-adv-x="680" 
d="M492 98l-63 173h-249l-41 -107q-35 -89 -22.5 -118.5t88.5 -36.5v-9h-229v9q52 9 79.5 39t62.5 118l220 553h14l226 -602q25 -66 45 -84.5t78 -23.5v-9h-297v9q75 3 91.5 22t-3.5 67zM186 287h238l-113 313h-3zM343 773q-54 0 -89.5 41t-43.5 108h12q18 -50 47 -70.5
t75 -20.5q47 0 75 20.5t46 70.5h11q-8 -67 -43.5 -108t-89.5 -41z" />
    <glyph glyph-name="abreve" unicode="&#x103;" horiz-adv-x="473" 
d="M164 -6q-58 0 -89.5 30.5t-31.5 74.5q0 66 62 100q30 16 68 27.5t88 21.5t54 11v68q0 64 -22.5 92t-74.5 28q-66 0 -93 -36q35 -16 35 -49q0 -22 -13.5 -36t-35.5 -14t-34.5 14.5t-12.5 35.5q0 43 48.5 71.5t116.5 28.5q162 0 162 -132v-248q0 -42 18 -54.5t63 4.5l3 -7
q-47 -29 -85 -29q-36 0 -53.5 18.5t-18.5 61.5h-3q-72 -82 -151 -82zM204 29q61 0 111 65v151q-115 -21 -153 -47.5t-38 -82.5q0 -86 80 -86zM236 533q-54 0 -89.5 41t-43.5 108h12q18 -50 47 -70.5t75 -20.5q47 0 75 20.5t46 70.5h11q-8 -67 -43.5 -108t-89.5 -41z" />
    <glyph glyph-name="Aogonek" unicode="&#x104;" horiz-adv-x="680" 
d="M547 -243q-40 0 -67 21.5t-27 57.5q0 31 21 60.5t79 76.5l33 27h-182v9q75 3 91.5 22t-3.5 67l-63 173h-249l-41 -107q-35 -89 -22.5 -118.5t88.5 -36.5v-9h-229v9q52 9 79.5 39t62.5 118l220 553h14l226 -602q25 -66 45 -84.5t78 -23.5v-9h-96l-29 -30q-61 -60 -61 -123
q0 -31 17.5 -47t44.5 -16t64 17l5 -9q-49 -35 -99 -35zM186 287h238l-113 313h-3z" />
    <glyph glyph-name="aogonek" unicode="&#x105;" horiz-adv-x="473" 
d="M475 25q-1 -1 -67 -59q-67 -61 -67 -121q0 -30 16.5 -45.5t43.5 -15.5q29 0 65 17l5 -9q-49 -35 -99 -35q-40 0 -66.5 21t-26.5 56q0 33 24 62.5t86 76.5l37 28q-18 -5 -36 -5q-36 0 -53.5 18.5t-18.5 61.5h-3q-72 -82 -151 -82q-58 0 -89.5 30.5t-31.5 74.5q0 66 62 100
q30 16 68 27.5t88 21.5t54 11v68q0 64 -22.5 92t-74.5 28q-66 0 -93 -36q35 -16 35 -49q0 -22 -13.5 -36t-35.5 -14t-34.5 14.5t-12.5 35.5q0 43 48.5 71.5t116.5 28.5q162 0 162 -132v-248q0 -42 18 -54.5t63 4.5zM204 29q61 0 111 65v151q-115 -21 -153 -47.5t-38 -82.5
q0 -86 80 -86z" />
    <glyph glyph-name="Cacute" unicode="&#x106;" horiz-adv-x="699" 
d="M363 768l41 91q36 80 46 90.5t25 10.5t25.5 -10.5t10.5 -25.5q0 -14 -12.5 -29.5t-58.5 -60.5l-69 -66h-8zM384 -17q-146 0 -240.5 96.5t-94.5 260.5q0 159 102 266t251 107q95 0 178 -45l42 51h8v-226h-9q-51 118 -101 162t-126 44q-106 0 -176 -87t-70 -265
q0 -84 23 -149.5t62 -104.5t84.5 -58.5t94.5 -19.5q156 0 242 174l11 -6q-38 -86 -107 -143t-174 -57z" />
    <glyph glyph-name="cacute" unicode="&#x107;" horiz-adv-x="452" 
d="M226 528l41 91q36 80 46 90.5t25 10.5t25.5 -10.5t10.5 -25.5q0 -14 -12.5 -29.5t-58.5 -60.5l-69 -66h-8zM246 -10q-93 0 -151.5 65.5t-58.5 164.5q0 104 67.5 175t161.5 71q69 0 112 -30.5t43 -67.5q0 -23 -13.5 -37.5t-34.5 -14.5q-22 0 -36 13.5t-14 35.5q0 35 32 53
q-30 34 -89 34q-62 0 -104.5 -57t-42.5 -158q0 -94 44 -151.5t124 -57.5q42 0 72.5 18.5t65.5 59.5l9 -6q-37 -52 -80 -81t-107 -29z" />
    <glyph glyph-name="Cdotaccent" unicode="&#x10a;" horiz-adv-x="699" 
d="M384 -17q-146 0 -240.5 96.5t-94.5 260.5q0 159 102 266t251 107q95 0 178 -45l42 51h8v-226h-9q-51 118 -101 162t-126 44q-106 0 -176 -87t-70 -265q0 -84 23 -149.5t62 -104.5t84.5 -58.5t94.5 -19.5q156 0 242 174l11 -6q-38 -86 -107 -143t-174 -57zM392 768
q-22 0 -36.5 15t-14.5 38t14.5 38.5t36.5 15.5q23 0 37.5 -15.5t14.5 -38.5q0 -22 -15 -37.5t-37 -15.5z" />
    <glyph glyph-name="cdotaccent" unicode="&#x10b;" horiz-adv-x="452" 
d="M246 -10q-93 0 -151.5 65.5t-58.5 164.5q0 104 67.5 175t161.5 71q69 0 112 -30.5t43 -67.5q0 -23 -13.5 -37.5t-34.5 -14.5q-22 0 -36 13.5t-14 35.5q0 35 32 53q-30 34 -89 34q-62 0 -104.5 -57t-42.5 -158q0 -94 44 -151.5t124 -57.5q42 0 72.5 18.5t65.5 59.5l9 -6
q-37 -52 -80 -81t-107 -29zM258 533q-22 0 -36.5 15t-14.5 38t14.5 38.5t36.5 15.5q23 0 37.5 -15.5t14.5 -38.5q0 -22 -15 -37.5t-37 -15.5z" />
    <glyph glyph-name="Ccaron" unicode="&#x10c;" horiz-adv-x="699" 
d="M384 763l-121 179h12l117 -98l117 98h12l-128 -179h-9zM384 -17q-146 0 -240.5 96.5t-94.5 260.5q0 159 102 266t251 107q95 0 178 -45l42 51h8v-226h-9q-51 118 -101 162t-126 44q-106 0 -176 -87t-70 -265q0 -84 23 -149.5t62 -104.5t84.5 -58.5t94.5 -19.5
q156 0 242 174l11 -6q-38 -86 -107 -143t-174 -57z" />
    <glyph glyph-name="ccaron" unicode="&#x10d;" horiz-adv-x="452" 
d="M250 528l-121 179h12l117 -98l117 98h12l-128 -179h-9zM246 -10q-93 0 -151.5 65.5t-58.5 164.5q0 104 67.5 175t161.5 71q69 0 112 -30.5t43 -67.5q0 -23 -13.5 -37.5t-34.5 -14.5q-22 0 -36 13.5t-14 35.5q0 35 32 53q-30 34 -89 34q-62 0 -104.5 -57t-42.5 -158
q0 -94 44 -151.5t124 -57.5q42 0 72.5 18.5t65.5 59.5l9 -6q-37 -52 -80 -81t-107 -29z" />
    <glyph glyph-name="Dcaron" unicode="&#x10e;" horiz-adv-x="750" 
d="M377 768l-121 179h12l117 -98l117 98h12l-128 -179h-9zM27 0v9q74 2 96 16.5t22 52.5v542q0 38 -22.5 52.5t-95.5 16.5v8h299q178 0 276.5 -94.5t98.5 -242.5q0 -70 -23 -133.5t-66.5 -114.5t-115.5 -81.5t-163 -30.5h-306zM230 15h76q166 0 231 73.5t65 265.5
q0 97 -17.5 161.5t-55.5 101t-88.5 51t-124.5 14.5h-86v-667z" />
    <glyph glyph-name="dcaron" unicode="&#x10f;" horiz-adv-x="531" 
d="M549 535l-2 107q0 9 -0.5 32.5t-0.5 30.5q0 51 39 51q37 0 37 -37q0 -17 -15 -57l-50 -127h-8zM229 -8q-86 0 -139 65t-53 164q0 106 64 174.5t156 68.5q66 0 116 -34v226q0 27 -14.5 36.5t-67.5 12.5v8l158 4v-670q0 -22 16.5 -30t60.5 -9v-8l-151 -4v65
q-69 -69 -146 -69zM266 26q61 0 107 53v306q-36 65 -115 65q-63 0 -99.5 -61t-36.5 -164q0 -87 38.5 -143t105.5 -56z" />
    <glyph glyph-name="Dcroat" unicode="&#x110;" horiz-adv-x="750" 
d="M27 0v9q74 2 96 16.5t22 52.5v276h-98v19h98v247q0 38 -22.5 52.5t-95.5 16.5v8h299q178 0 276.5 -94.5t98.5 -242.5q0 -70 -23 -133.5t-66.5 -114.5t-115.5 -81.5t-163 -30.5h-306zM230 15h76q166 0 231 73.5t65 265.5q0 97 -17.5 161.5t-55.5 101t-88.5 51t-124.5 14.5
h-86v-309h154v-19h-154v-339z" />
    <glyph glyph-name="dcroat" unicode="&#x111;" horiz-adv-x="532" 
d="M229 -8q-86 0 -139 65t-53 164q0 106 64 174.5t156 68.5q66 0 116 -34v145h-149v17h149v64q0 27 -14.5 36.5t-67.5 12.5v8l158 4v-125h70v-17h-70v-528q0 -22 16.5 -30t60.5 -9v-8l-151 -4v65q-69 -69 -146 -69zM266 26q61 0 107 53v306q-36 65 -115 65q-63 0 -99.5 -61
t-36.5 -164q0 -87 38.5 -143t105.5 -56z" />
    <glyph glyph-name="Emacron" unicode="&#x112;" horiz-adv-x="666" 
d="M27 0v9q74 2 96 16.5t22 52.5v542q0 38 -22.5 52.5t-95.5 16.5v8h561l3 -205l-9 -1q-41 112 -77 151.5t-106 39.5h-169v-312h95q55 0 80.5 27.5t44.5 109.5h9v-290h-9q-19 82 -44.5 110t-80.5 28h-95v-340h186q76 0 115 42t82 161l9 -1l-5 -217h-590zM221 798v29h263v-29
h-263z" />
    <glyph glyph-name="emacron" unicode="&#x113;" horiz-adv-x="471" 
d="M250 -10q-93 0 -153.5 65t-60.5 167q0 100 63.5 172t151.5 72q91 0 141 -59.5t45 -144.5h-318q-1 -11 -1 -32v-1q0 -93 42.5 -150t116.5 -57q47 0 82.5 24t70.5 70l9 -6q-75 -120 -189 -120zM247 452q-54 0 -87 -45.5t-40 -131.5h235q10 177 -108 177zM119 558v29h263
v-29h-263z" />
    <glyph glyph-name="Ebreve" unicode="&#x114;" horiz-adv-x="666" 
d="M27 0v9q74 2 96 16.5t22 52.5v542q0 38 -22.5 52.5t-95.5 16.5v8h561l3 -205l-9 -1q-41 112 -77 151.5t-106 39.5h-169v-312h95q55 0 80.5 27.5t44.5 109.5h9v-290h-9q-19 82 -44.5 110t-80.5 28h-95v-340h186q76 0 115 42t82 161l9 -1l-5 -217h-590zM353 773
q-54 0 -89.5 41t-43.5 108h12q18 -50 47 -70.5t75 -20.5q47 0 75 20.5t46 70.5h11q-8 -67 -43.5 -108t-89.5 -41z" />
    <glyph glyph-name="ebreve" unicode="&#x115;" horiz-adv-x="471" 
d="M250 -10q-93 0 -153.5 65t-60.5 167q0 100 63.5 172t151.5 72q91 0 141 -59.5t45 -144.5h-318q-1 -11 -1 -32v-1q0 -93 42.5 -150t116.5 -57q47 0 82.5 24t70.5 70l9 -6q-75 -120 -189 -120zM247 452q-54 0 -87 -45.5t-40 -131.5h235q10 177 -108 177zM250 533
q-54 0 -89.5 41t-43.5 108h12q18 -50 47 -70.5t75 -20.5q47 0 75 20.5t46 70.5h11q-8 -67 -43.5 -108t-89.5 -41z" />
    <glyph glyph-name="Edotaccent" unicode="&#x116;" horiz-adv-x="666" 
d="M27 0v9q74 2 96 16.5t22 52.5v542q0 38 -22.5 52.5t-95.5 16.5v8h561l3 -205l-9 -1q-41 112 -77 151.5t-106 39.5h-169v-312h95q55 0 80.5 27.5t44.5 109.5h9v-290h-9q-19 82 -44.5 110t-80.5 28h-95v-340h186q76 0 115 42t82 161l9 -1l-5 -217h-590zM353 773
q-22 0 -36.5 15t-14.5 38t14.5 38.5t36.5 15.5q23 0 37.5 -15.5t14.5 -38.5q0 -22 -15 -37.5t-37 -15.5z" />
    <glyph glyph-name="edotaccent" unicode="&#x117;" horiz-adv-x="471" 
d="M250 -10q-93 0 -153.5 65t-60.5 167q0 100 63.5 172t151.5 72q91 0 141 -59.5t45 -144.5h-318q-1 -11 -1 -32v-1q0 -93 42.5 -150t116.5 -57q47 0 82.5 24t70.5 70l9 -6q-75 -120 -189 -120zM247 452q-54 0 -87 -45.5t-40 -131.5h235q10 177 -108 177zM250 533
q-22 0 -36.5 15t-14.5 38t14.5 38.5t36.5 15.5q23 0 37.5 -15.5t14.5 -38.5q0 -22 -15 -37.5t-37 -15.5z" />
    <glyph glyph-name="Eogonek" unicode="&#x118;" horiz-adv-x="666" 
d="M27 0v9q74 2 96 16.5t22 52.5v542q0 38 -22.5 52.5t-95.5 16.5v8h561l3 -205l-9 -1q-41 112 -77 151.5t-106 39.5h-169v-312h95q55 0 80.5 27.5t44.5 109.5h9v-290h-9q-19 82 -44.5 110t-80.5 28h-95v-340h186q76 0 115 42t82 161l9 -1l-5 -217h-49l-29 -30
q-61 -60 -61 -123q0 -31 17.5 -47t44.5 -16t64 17l5 -9q-49 -35 -99 -35q-40 0 -67 21.5t-27 57.5q0 31 21 60.5t79 76.5l33 27h-522z" />
    <glyph glyph-name="eogonek" unicode="&#x119;" horiz-adv-x="471" 
d="M430 116l9 -6q-19 -30 -40 -53l-82 -91q-54 -61 -54 -119q0 -31 17.5 -47t44.5 -16t64 17l5 -9q-49 -35 -99 -35q-40 0 -67 21.5t-27 57.5q0 30 17 55t58 61l70 63q-43 -25 -96 -25q-93 0 -153.5 65t-60.5 167q0 100 63.5 172t151.5 72q91 0 141 -59.5t45 -144.5h-318
q-1 -11 -1 -32v-1q0 -93 42.5 -150t116.5 -57q47 0 82.5 24t70.5 70zM247 452q-54 0 -87 -45.5t-40 -131.5h235q10 177 -108 177z" />
    <glyph glyph-name="Ecaron" unicode="&#x11a;" horiz-adv-x="666" 
d="M345 768l-121 179h12l117 -98l117 98h12l-128 -179h-9zM27 0v9q74 2 96 16.5t22 52.5v542q0 38 -22.5 52.5t-95.5 16.5v8h561l3 -205l-9 -1q-41 112 -77 151.5t-106 39.5h-169v-312h95q55 0 80.5 27.5t44.5 109.5h9v-290h-9q-19 82 -44.5 110t-80.5 28h-95v-340h186
q76 0 115 42t82 161l9 -1l-5 -217h-590z" />
    <glyph glyph-name="ecaron" unicode="&#x11b;" horiz-adv-x="471" 
d="M250 -10q-93 0 -153.5 65t-60.5 167q0 100 63.5 172t151.5 72q91 0 141 -59.5t45 -144.5h-318q-1 -11 -1 -32v-1q0 -93 42.5 -150t116.5 -57q47 0 82.5 24t70.5 70l9 -6q-75 -120 -189 -120zM247 452q-54 0 -87 -45.5t-40 -131.5h235q10 177 -108 177zM243 528l-121 179
h12l117 -98l117 98h12l-128 -179h-9z" />
    <glyph glyph-name="Gbreve" unicode="&#x11e;" horiz-adv-x="746" 
d="M412 -17q-96 0 -177 40t-133.5 125t-52.5 201q0 158 106 261.5t245 103.5q99 0 186 -41l42 47h7v-220h-9q-51 114 -102.5 157t-130.5 43q-104 0 -174.5 -84.5t-70.5 -264.5q0 -93 23 -163.5t61.5 -111t83 -60t93.5 -19.5q91 0 149 44v191q0 39 -22.5 54.5t-95.5 17.5v9
h287v-9q-55 -3 -70 -17t-15 -54v-184q-107 -66 -230 -66zM389 773q-54 0 -89.5 41t-43.5 108h12q18 -50 47 -70.5t75 -20.5q47 0 75 20.5t46 70.5h11q-8 -67 -43.5 -108t-89.5 -41z" />
    <glyph glyph-name="gbreve" unicode="&#x11f;" horiz-adv-x="466" 
d="M241 -186q68 0 118 33.5t50 82.5q0 75 -121 75h-119q-81 -23 -81 -92q0 -99 153 -99zM232 171q95 0 95 139q0 64 -26.5 102t-77.5 38q-95 0 -95 -140q0 -139 104 -139zM228 462q50 0 92 -23q42 72 93 72q25 0 38.5 -12.5t13.5 -33.5q0 -17 -10 -27.5t-26 -10.5
q-18 0 -29 14t-10 37q-34 -4 -58 -45q73 -45 73 -121q0 -69 -55 -111.5t-122 -42.5q-36 0 -71 12q-59 -25 -59 -54q0 -37 90 -37h98q85 0 125.5 -29t40.5 -89q0 -64 -61 -112t-169 -48q-88 0 -143.5 29.5t-55.5 74.5q0 36 33 64t90 39v3q-47 10 -67.5 27.5t-20.5 46.5
q0 53 83 91q-92 40 -92 132q0 68 55.5 111t123.5 43zM232 533q-54 0 -89.5 41t-43.5 108h12q18 -50 47 -70.5t75 -20.5q47 0 75 20.5t46 70.5h11q-8 -67 -43.5 -108t-89.5 -41z" />
    <glyph glyph-name="Gdotaccent" unicode="&#x120;" horiz-adv-x="746" 
d="M412 -17q-96 0 -177 40t-133.5 125t-52.5 201q0 158 106 261.5t245 103.5q99 0 186 -41l42 47h7v-220h-9q-51 114 -102.5 157t-130.5 43q-104 0 -174.5 -84.5t-70.5 -264.5q0 -93 23 -163.5t61.5 -111t83 -60t93.5 -19.5q91 0 149 44v191q0 39 -22.5 54.5t-95.5 17.5v9
h287v-9q-55 -3 -70 -17t-15 -54v-184q-107 -66 -230 -66zM391 773q-22 0 -36.5 15t-14.5 38t14.5 38.5t36.5 15.5q23 0 37.5 -15.5t14.5 -38.5q0 -22 -15 -37.5t-37 -15.5z" />
    <glyph glyph-name="gdotaccent" unicode="&#x121;" horiz-adv-x="466" 
d="M241 -186q68 0 118 33.5t50 82.5q0 75 -121 75h-119q-81 -23 -81 -92q0 -99 153 -99zM232 171q95 0 95 139q0 64 -26.5 102t-77.5 38q-95 0 -95 -140q0 -139 104 -139zM228 462q50 0 92 -23q42 72 93 72q25 0 38.5 -12.5t13.5 -33.5q0 -17 -10 -27.5t-26 -10.5
q-18 0 -29 14t-10 37q-34 -4 -58 -45q73 -45 73 -121q0 -69 -55 -111.5t-122 -42.5q-36 0 -71 12q-59 -25 -59 -54q0 -37 90 -37h98q85 0 125.5 -29t40.5 -89q0 -64 -61 -112t-169 -48q-88 0 -143.5 29.5t-55.5 74.5q0 36 33 64t90 39v3q-47 10 -67.5 27.5t-20.5 46.5
q0 53 83 91q-92 40 -92 132q0 68 55.5 111t123.5 43zM232 533q-22 0 -36.5 15t-14.5 38t14.5 38.5t36.5 15.5q23 0 37.5 -15.5t14.5 -38.5q0 -22 -15 -37.5t-37 -15.5z" />
    <glyph glyph-name="Gcommaaccent" unicode="&#x122;" horiz-adv-x="746" 
d="M339 -262l-5 9q72 45 78 104l-4 1q-8 -8 -24 -8q-18 0 -30.5 12t-12.5 30q0 21 13 35t34 14q25 0 40.5 -18t15.5 -47q0 -80 -105 -132zM412 -17q-96 0 -177 40t-133.5 125t-52.5 201q0 158 106 261.5t245 103.5q99 0 186 -41l42 47h7v-220h-9q-51 114 -102.5 157
t-130.5 43q-104 0 -174.5 -84.5t-70.5 -264.5q0 -93 23 -163.5t61.5 -111t83 -60t93.5 -19.5q91 0 149 44v191q0 39 -22.5 54.5t-95.5 17.5v9h287v-9q-55 -3 -70 -17t-15 -54v-184q-107 -66 -230 -66z" />
    <glyph glyph-name="gcommaaccent" unicode="&#x123;" horiz-adv-x="466" 
d="M282 747l5 -9q-72 -45 -78 -104l4 -1q8 8 24 8q18 0 30.5 -12t12.5 -30q0 -21 -13 -35t-34 -14q-25 0 -40.5 18t-15.5 47q0 80 105 132zM241 -186q68 0 118 33.5t50 82.5q0 75 -121 75h-119q-81 -23 -81 -92q0 -99 153 -99zM232 171q95 0 95 139q0 64 -26.5 102t-77.5 38
q-95 0 -95 -140q0 -139 104 -139zM228 462q50 0 92 -23q42 72 93 72q25 0 38.5 -12.5t13.5 -33.5q0 -17 -10 -27.5t-26 -10.5q-18 0 -29 14t-10 37q-34 -4 -58 -45q73 -45 73 -121q0 -69 -55 -111.5t-122 -42.5q-36 0 -71 12q-59 -25 -59 -54q0 -37 90 -37h98
q85 0 125.5 -29t40.5 -89q0 -64 -61 -112t-169 -48q-88 0 -143.5 29.5t-55.5 74.5q0 36 33 64t90 39v3q-47 10 -67.5 27.5t-20.5 46.5q0 53 83 91q-92 40 -92 132q0 68 55.5 111t123.5 43z" />
    <glyph glyph-name="Hbar" unicode="&#x126;" horiz-adv-x="803" 
d="M27 0v9q74 2 96 16.5t22 52.5v437h-95v18h95v87q0 38 -22 52.5t-96 16.5v8h313v-8q-72 -2 -91 -15.5t-19 -52.5v-88h343v88q0 39 -19 52.5t-90 15.5v8h312v-8q-73 -2 -95.5 -16.5t-22.5 -52.5v-87h98v-18h-98v-437q0 -38 22.5 -52.5t95.5 -16.5v-9h-312v9q71 2 90 15.5
t19 52.5v277h-343v-277q0 -39 19 -52.5t91 -15.5v-9h-313zM230 370h343v145h-343v-145z" />
    <glyph glyph-name="hbar" unicode="&#x127;" horiz-adv-x="530" 
d="M7 0v9q45 1 60 8t15 32v526h-67v17h67v64q0 27 -15 36.5t-68 12.5v8l159 4v-125h152v-17h-152v-230q72 119 171 119q58 0 89.5 -35.5t31.5 -101.5v-278q0 -25 15 -32t59 -8v-9h-217v9q41 1 54 8t13 32v255q0 60 -20.5 90t-67.5 30q-37 0 -71 -28t-57 -74v-273
q0 -25 13.5 -32t53.5 -8v-9h-218z" />
    <glyph glyph-name="Imacron" unicode="&#x12a;" horiz-adv-x="388" 
d="M30 0v9q76 2 99 16t23 53v542q0 38 -23 52.5t-99 16.5v8h328v-8q-76 -2 -99 -16.5t-23 -52.5v-542q0 -39 23 -53t99 -16v-9h-328zM62 798v29h263v-29h-263z" />
    <glyph glyph-name="imacron" unicode="&#x12b;" horiz-adv-x="266" 
d="M4 562v29h251v-29h-251zM22 0v9q46 1 61.5 8t15.5 32v349q0 25 -15 35.5t-62 13.5v8l153 5v-411q0 -25 15 -32t61 -8v-9h-229z" />
    <glyph glyph-name="Ibreve" unicode="&#x12c;" horiz-adv-x="388" 
d="M30 0v9q76 2 99 16t23 53v542q0 38 -23 52.5t-99 16.5v8h328v-8q-76 -2 -99 -16.5t-23 -52.5v-542q0 -39 23 -53t99 -16v-9h-328zM193 773q-54 0 -89.5 41t-43.5 108h12q18 -50 47 -70.5t75 -20.5q47 0 75 20.5t46 70.5h11q-8 -67 -43.5 -108t-89.5 -41z" />
    <glyph glyph-name="ibreve" unicode="&#x12d;" horiz-adv-x="266" 
d="M22 0v9q46 1 61.5 8t15.5 32v349q0 25 -15 35.5t-62 13.5v8l153 5v-411q0 -25 15 -32t61 -8v-9h-229zM130 533q-54 0 -89.5 41t-43.5 108h12q18 -50 47 -70.5t75 -20.5q47 0 75 20.5t46 70.5h11q-8 -67 -43.5 -108t-89.5 -41z" />
    <glyph glyph-name="Iogonek" unicode="&#x12e;" horiz-adv-x="388" 
d="M30 0v9q76 2 99 16t23 53v542q0 38 -23 52.5t-99 16.5v8h328v-8q-76 -2 -99 -16.5t-23 -52.5v-542q0 -39 23 -53t99 -16v-9h-122l-29 -30q-61 -60 -61 -123q0 -31 17.5 -47t44.5 -16t64 17l5 -9q-49 -35 -99 -35q-40 0 -67 21.5t-27 57.5q0 31 21 60.5t79 76.5l33 27
h-187z" />
    <glyph glyph-name="iogonek" unicode="&#x12f;" horiz-adv-x="266" 
d="M22 0v9q46 1 61.5 8t15.5 32v349q0 25 -15 35.5t-62 13.5v8l153 5v-411q0 -25 15 -32t61 -8v-9h-67l-29 -30q-61 -60 -61 -123q0 -31 17.5 -47t44.5 -16t64 17l5 -9q-49 -35 -99 -35q-40 0 -67 21.5t-27 57.5q0 31 21 60.5t79 76.5l33 27h-143zM131 557q-22 0 -36.5 15
t-14.5 38t14.5 39t36.5 16t37 -15.5t15 -38.5t-15 -38.5t-37 -15.5z" />
    <glyph glyph-name="Idotaccent" unicode="&#x130;" horiz-adv-x="388" 
d="M30 0v9q76 2 99 16t23 53v542q0 38 -23 52.5t-99 16.5v8h328v-8q-76 -2 -99 -16.5t-23 -52.5v-542q0 -39 23 -53t99 -16v-9h-328zM193 773q-22 0 -36.5 15t-14.5 38t14.5 38.5t36.5 15.5q23 0 37.5 -15.5t14.5 -38.5q0 -22 -15 -37.5t-37 -15.5z" />
    <glyph glyph-name="dotlessi" unicode="&#x131;" horiz-adv-x="266" 
d="M22 0v9q46 1 61.5 8t15.5 32v349q0 25 -15 35.5t-62 13.5v8l153 5v-411q0 -25 15 -32t61 -8v-9h-229z" />
    <glyph glyph-name="Kcommaaccent" unicode="&#x136;" horiz-adv-x="725" 
d="M306 -262l-5 9q72 45 78 104l-4 1q-8 -8 -24 -8q-18 0 -30.5 12t-12.5 30q0 21 13 35t34 14q25 0 40.5 -18t15.5 -47q0 -80 -105 -132zM230 315l250 249q40 40 50 64.5t-10 39.5t-74 21v8h266v-8q-63 -10 -100 -33.5t-120 -105.5l-132 -130l211 -290q55 -75 80.5 -94
t82.5 -27v-9h-289v9q62 4 72.5 24t-22.5 63l-192 267l-73 -72v-214q0 -39 18 -52.5t85 -15.5v-9h-306v9q74 2 96 16.5t22 52.5v542q0 38 -22 52.5t-96 16.5v8h313v-8q-72 -2 -91 -15.5t-19 -52.5v-306z" />
    <glyph glyph-name="kcommaaccent" unicode="&#x137;" horiz-adv-x="496" 
d="M190 -262l-5 9q72 45 78 104l-4 1q-8 -8 -24 -8q-18 0 -30.5 12t-12.5 30q0 21 13 35t34 14q25 0 40.5 -18t15.5 -47q0 -80 -105 -132zM158 188v-139q0 -24 12.5 -31.5t47.5 -8.5v-9h-211v9q45 1 60 8t15 32v607q0 27 -15 36.5t-68 12.5v8l159 4v-510l158 159
q36 36 29 56.5t-62 25.5v8h198v-8q-40 -5 -68.5 -22t-80.5 -68l-71 -69l152 -206q34 -46 50 -58t51 -16v-9h-215v9q43 4 50.5 18t-13.5 40l-124 174z" />
    <glyph glyph-name="Lacute" unicode="&#x139;" horiz-adv-x="608" 
d="M196 768l41 91q36 80 46 90.5t25 10.5t25.5 -10.5t10.5 -25.5q0 -14 -12.5 -29.5t-58.5 -60.5l-69 -66h-8zM27 0v9q74 2 96 16.5t22 52.5v542q0 38 -22.5 52.5t-95.5 16.5v8h319v-8q-75 -2 -95.5 -15.5t-20.5 -53.5v-605h144q78 0 118 39t85 159l9 -1l-10 -212h-549z" />
    <glyph glyph-name="lacute" unicode="&#x13a;" horiz-adv-x="260" 
d="M101 774l41 91q36 80 46 90q11 11 25 11q15 0 25.5 -10.5t10.5 -25.5q0 -14 -12.5 -29.5t-58.5 -60.5l-69 -66h-8zM18 0v9q45 1 60 8t15 32v607q0 27 -14.5 36.5t-67.5 12.5v8l158 4v-668q0 -25 15 -32t61 -8v-9h-227z" />
    <glyph glyph-name="Lcommaaccent" unicode="&#x13b;" horiz-adv-x="608" 
d="M284 -262l-5 9q72 45 78 104l-4 1q-8 -8 -24 -8q-18 0 -30.5 12t-12.5 30q0 21 13 35t34 14q25 0 40.5 -18t15.5 -47q0 -80 -105 -132zM27 0v9q74 2 96 16.5t22 52.5v542q0 38 -22.5 52.5t-95.5 16.5v8h319v-8q-75 -2 -95.5 -15.5t-20.5 -53.5v-605h144q78 0 118 39
t85 159l9 -1l-10 -212h-549z" />
    <glyph glyph-name="lcommaaccent" unicode="&#x13c;" horiz-adv-x="260" 
d="M79 -262l-5 9q72 45 78 104l-4 1q-8 -8 -24 -8q-18 0 -30.5 12t-12.5 30q0 21 13 35t34 14q25 0 40.5 -18t15.5 -47q0 -80 -105 -132zM18 0v9q45 1 60 8t15 32v607q0 27 -14.5 36.5t-67.5 12.5v8l158 4v-668q0 -25 15 -32t61 -8v-9h-227z" />
    <glyph glyph-name="Lcaron" unicode="&#x13d;" horiz-adv-x="608" 
d="M422 515l-2 107q0 9 -0.5 32.5t-0.5 30.5q0 51 39 51q37 0 37 -37q0 -17 -15 -57l-50 -127h-8zM27 0v9q74 2 96 16.5t22 52.5v542q0 38 -22.5 52.5t-95.5 16.5v8h319v-8q-75 -2 -95.5 -15.5t-20.5 -53.5v-605h144q78 0 118 39t85 159l9 -1l-10 -212h-549z" />
    <glyph glyph-name="lcaron" unicode="&#x13e;" horiz-adv-x="260" 
d="M269 535l-2 107q0 9 -0.5 32.5t-0.5 30.5q0 51 39 51q37 0 37 -37q0 -17 -15 -57l-50 -127h-8zM18 0v9q45 1 60 8t15 32v607q0 27 -14.5 36.5t-67.5 12.5v8l158 4v-668q0 -25 15 -32t61 -8v-9h-227z" />
    <glyph glyph-name="Ldot" unicode="&#x13f;" horiz-adv-x="608" 
d="M27 0v9q74 2 96 16.5t22 52.5v542q0 38 -22.5 52.5t-95.5 16.5v8h319v-8q-75 -2 -95.5 -15.5t-20.5 -53.5v-605h144q78 0 118 39t85 159l9 -1l-10 -212h-549zM487 313q-22 0 -36.5 15t-14.5 38t14.5 38.5t36.5 15.5q23 0 37.5 -15.5t14.5 -38.5q0 -22 -15 -37.5
t-37 -15.5z" />
    <glyph glyph-name="ldot" unicode="&#x140;" horiz-adv-x="333" 
d="M298 288q-23 0 -37.5 15.5t-14.5 38.5q0 22 15 38t37 16t36.5 -15.5t14.5 -38.5t-14.5 -38.5t-36.5 -15.5zM18 0v9q45 1 60 8t15 32v607q0 27 -14.5 36.5t-67.5 12.5v8l158 4v-668q0 -25 15 -32t61 -8v-9h-227z" />
    <glyph glyph-name="Lslash" unicode="&#x141;" horiz-adv-x="608" 
d="M27 0v9q74 2 96 16.5t22 52.5v244l-87 -23l-6 19l93 24v278q0 38 -22.5 52.5t-95.5 16.5v8h319v-8q-75 -2 -95.5 -15.5t-20.5 -53.5v-256l147 39l5 -18l-152 -41v-329h144q78 0 118 39t85 159l9 -1l-10 -212h-549z" />
    <glyph glyph-name="lslash" unicode="&#x142;" horiz-adv-x="298" 
d="M46 0v9q45 1 60 8t15 32v283l-93 -25l-4 16l97 26v307q0 27 -14.5 36.5t-67.5 12.5v8l158 4v-348l99 27l4 -16l-103 -28v-303q0 -25 15 -32t61 -8v-9h-227z" />
    <glyph glyph-name="Nacute" unicode="&#x143;" 
d="M375 758l41 91q36 80 46 90.5t25 10.5t25.5 -10.5t10.5 -25.5q0 -14 -12.5 -29.5t-58.5 -60.5l-69 -66h-8zM633 -17l-466 629h-2v-487q0 -60 23 -83t101 -33v-9h-263v9q74 10 97.5 33.5t23.5 82.5v466q0 44 -27 69t-94 29v8h188l414 -561h1v437q0 59 -25 82.5t-102 33.5
v8h260v-8q-72 -11 -93.5 -34t-21.5 -82v-590h-14z" />
    <glyph glyph-name="nacute" unicode="&#x144;" horiz-adv-x="540" 
d="M250 528l41 91q36 80 46 90.5t25 10.5t25.5 -10.5t10.5 -25.5q0 -14 -12.5 -29.5t-58.5 -60.5l-69 -66h-8zM17 0v9q46 1 61.5 8t15.5 32v349q0 25 -15 35.5t-62 13.5v8l152 5v-116q73 120 172 120q58 0 89.5 -35.5t31.5 -101.5v-278q0 -25 15 -32t59 -8v-9h-217v9
q41 1 54 8t13 32v257q0 59 -20.5 88.5t-67.5 29.5q-37 0 -71 -28t-57 -74v-273q0 -25 13.5 -32t53.5 -8v-9h-220z" />
    <glyph glyph-name="Ncommaaccent" unicode="&#x145;" 
d="M342 -262l-5 9q72 45 78 104l-4 1q-8 -8 -24 -8q-18 0 -30.5 12t-12.5 30q0 21 13 35t34 14q25 0 40.5 -18t15.5 -47q0 -80 -105 -132zM633 -17l-466 629h-2v-487q0 -60 23 -83t101 -33v-9h-263v9q74 10 97.5 33.5t23.5 82.5v466q0 44 -27 69t-94 29v8h188l414 -561h1
v437q0 59 -25 82.5t-102 33.5v8h260v-8q-72 -11 -93.5 -34t-21.5 -82v-590h-14z" />
    <glyph glyph-name="ncommaaccent" unicode="&#x146;" horiz-adv-x="540" 
d="M221 -262l-5 9q72 45 78 104l-4 1q-8 -8 -24 -8q-18 0 -30.5 12t-12.5 30q0 21 13 35t34 14q25 0 40.5 -18t15.5 -47q0 -80 -105 -132zM17 0v9q46 1 61.5 8t15.5 32v349q0 25 -15 35.5t-62 13.5v8l152 5v-116q73 120 172 120q58 0 89.5 -35.5t31.5 -101.5v-278
q0 -25 15 -32t59 -8v-9h-217v9q41 1 54 8t13 32v257q0 59 -20.5 88.5t-67.5 29.5q-37 0 -71 -28t-57 -74v-273q0 -25 13.5 -32t53.5 -8v-9h-220z" />
    <glyph glyph-name="Ncaron" unicode="&#x147;" 
d="M390 758l-121 179h12l117 -98l117 98h12l-128 -179h-9zM633 -17l-466 629h-2v-487q0 -60 23 -83t101 -33v-9h-263v9q74 10 97.5 33.5t23.5 82.5v466q0 44 -27 69t-94 29v8h188l414 -561h1v437q0 59 -25 82.5t-102 33.5v8h260v-8q-72 -11 -93.5 -34t-21.5 -82v-590h-14z
" />
    <glyph glyph-name="ncaron" unicode="&#x148;" horiz-adv-x="540" 
d="M270 528l-121 179h12l117 -98l117 98h12l-128 -179h-9zM17 0v9q46 1 61.5 8t15.5 32v349q0 25 -15 35.5t-62 13.5v8l152 5v-116q73 120 172 120q58 0 89.5 -35.5t31.5 -101.5v-278q0 -25 15 -32t59 -8v-9h-217v9q41 1 54 8t13 32v257q0 59 -20.5 88.5t-67.5 29.5
q-37 0 -71 -28t-57 -74v-273q0 -25 13.5 -32t53.5 -8v-9h-220z" />
    <glyph glyph-name="Omacron" unicode="&#x14c;" horiz-adv-x="758" 
d="M247 798v29h263v-29h-263zM379 -17q-134 0 -232 101.5t-98 262.5q0 160 100.5 263.5t230.5 103.5q134 0 231.5 -101t97.5 -263q0 -106 -48.5 -191.5t-123.5 -130.5t-158 -45zM382 -3q107 0 167.5 80t60.5 271q0 352 -234 352q-51 0 -90.5 -17t-71.5 -56t-49 -109
t-17 -169q0 -352 234 -352z" />
    <glyph glyph-name="omacron" unicode="&#x14d;" horiz-adv-x="519" 
d="M128 558v29h263v-29h-263zM260 -10q-92 0 -158 67t-66 170q0 101 68 170t156 69q92 0 158 -66.5t66 -169.5q0 -101 -68 -170.5t-156 -69.5zM264 4q134 0 134 224q0 225 -143 225q-134 0 -134 -224q0 -225 143 -225z" />
    <glyph glyph-name="Obreve" unicode="&#x14e;" horiz-adv-x="758" 
d="M379 -17q-134 0 -232 101.5t-98 262.5q0 160 100.5 263.5t230.5 103.5q134 0 231.5 -101t97.5 -263q0 -106 -48.5 -191.5t-123.5 -130.5t-158 -45zM382 -3q107 0 167.5 80t60.5 271q0 352 -234 352q-51 0 -90.5 -17t-71.5 -56t-49 -109t-17 -169q0 -352 234 -352z
M379 773q-54 0 -89.5 41t-43.5 108h12q18 -50 47 -70.5t75 -20.5q47 0 75 20.5t46 70.5h11q-8 -67 -43.5 -108t-89.5 -41z" />
    <glyph glyph-name="obreve" unicode="&#x14f;" horiz-adv-x="519" 
d="M260 -10q-92 0 -158 67t-66 170q0 101 68 170t156 69q92 0 158 -66.5t66 -169.5q0 -101 -68 -170.5t-156 -69.5zM264 4q134 0 134 224q0 225 -143 225q-134 0 -134 -224q0 -225 143 -225zM259 533q-54 0 -89.5 41t-43.5 108h12q18 -50 47 -70.5t75 -20.5q47 0 75 20.5
t46 70.5h11q-8 -67 -43.5 -108t-89.5 -41z" />
    <glyph glyph-name="Ohungarumlaut" unicode="&#x150;" horiz-adv-x="758" 
d="M434 768l44 91q40 80 49 89q10 12 26 12t25.5 -9.5t9.5 -25.5q0 -14 -13 -29.5t-61 -61.5l-72 -66h-8zM292 768l45 91q39 80 50 90q10 11 25 11t25 -9.5t10 -25.5q0 -14 -14 -30.5t-61 -60.5l-71 -66h-9zM379 -17q-134 0 -232 101.5t-98 262.5q0 160 100.5 263.5
t230.5 103.5q134 0 231.5 -101t97.5 -263q0 -106 -48.5 -191.5t-123.5 -130.5t-158 -45zM382 -3q107 0 167.5 80t60.5 271q0 352 -234 352q-51 0 -90.5 -17t-71.5 -56t-49 -109t-17 -169q0 -352 234 -352z" />
    <glyph glyph-name="ohungarumlaut" unicode="&#x151;" horiz-adv-x="519" 
d="M314 528l44 91q40 80 49 89q10 12 26 12t25.5 -9.5t9.5 -25.5q0 -14 -13 -29.5t-61 -61.5l-72 -66h-8zM172 528l45 91q39 80 50 90q10 11 25 11t25 -9.5t10 -25.5q0 -14 -14 -30.5t-61 -60.5l-71 -66h-9zM260 -10q-92 0 -158 67t-66 170q0 101 68 170t156 69
q92 0 158 -66.5t66 -169.5q0 -101 -68 -170.5t-156 -69.5zM264 4q134 0 134 224q0 225 -143 225q-134 0 -134 -224q0 -225 143 -225z" />
    <glyph glyph-name="OE" unicode="&#x152;" horiz-adv-x="1044" 
d="M427 0q-178 0 -276.5 94.5t-98.5 242.5q0 70 23 133.5t67 114.5t117 81.5t166 30.5h541l3 -205l-9 -1q-41 112 -77 151.5t-106 39.5h-169v-312h95q54 0 80 27.5t45 109.5h9v-290h-9q-19 82 -45 110t-80 28h-95v-340h185q77 0 116 42t82 161l9 -1l-5 -217h-568zM424 16
q58 0 78.5 13.5t20.5 50.5v538q0 36 -21 50.5t-73 14.5q-147 0 -212.5 -74.5t-65.5 -264.5q0 -78 12.5 -135.5t35 -94.5t57.5 -59t75 -30.5t93 -8.5z" />
    <glyph glyph-name="oe" unicode="&#x153;" horiz-adv-x="835" 
d="M613 -10q-56 0 -101.5 26t-72.5 73q-32 -45 -80 -72t-99 -27q-92 0 -158 67t-66 170q0 101 68 170t156 69q56 0 104 -26.5t79 -74.5q29 46 74 73.5t98 27.5q91 0 140.5 -59t44.5 -145h-317q-1 -11 -1 -32v-1q0 -93 42.5 -150t116.5 -57q47 0 82.5 24t69.5 70l9 -6
q-73 -120 -189 -120zM398 228q0 225 -143 225q-134 0 -134 -224q0 -225 143 -225q134 0 134 224zM610 452q-54 0 -86.5 -45.5t-39.5 -131.5h234q12 177 -108 177z" />
    <glyph glyph-name="Racute" unicode="&#x154;" horiz-adv-x="683" 
d="M324 768l41 91q36 80 46 90.5t25 10.5t25.5 -10.5t10.5 -25.5q0 -14 -12.5 -29.5t-58.5 -60.5l-69 -66h-8zM230 356h95q107 0 145 40t38 130q0 81 -44 118.5t-151 37.5h-83v-326zM230 341v-264q0 -39 20.5 -52.5t92.5 -15.5v-9h-316v9q74 2 96 16.5t22 52.5v542
q0 38 -22.5 52.5t-95.5 16.5v8h291q136 0 211.5 -45.5t75.5 -124.5q0 -144 -210 -177v-3q103 -11 141 -50.5t50 -127.5l6 -43q12 -72 35 -93t93 -21v-8q-50 -9 -103 -9q-62 0 -85 30t-32 103l-11 90q-9 75 -40.5 99t-120.5 24h-98z" />
    <glyph glyph-name="racute" unicode="&#x155;" horiz-adv-x="389" 
d="M180 528l41 91q36 80 46 90.5t25 10.5t25.5 -10.5t10.5 -25.5q0 -14 -12.5 -29.5t-58.5 -60.5l-69 -66h-8zM17 0v9q46 1 61.5 8t15.5 32v349q0 25 -15 35.5t-62 13.5v8l152 5v-113q24 51 61 84.5t75 33.5q33 0 50.5 -17.5t17.5 -43.5q0 -22 -14.5 -37.5t-34.5 -15.5
q-23 0 -37 14t-14 36q0 19 10 33q-59 -8 -113 -106v-279q0 -25 17.5 -32t70.5 -8v-9h-241z" />
    <glyph glyph-name="Rcommaaccent" unicode="&#x156;" horiz-adv-x="683" 
d="M306 -262l-5 9q72 45 78 104l-4 1q-8 -8 -24 -8q-18 0 -30.5 12t-12.5 30q0 21 13 35t34 14q25 0 40.5 -18t15.5 -47q0 -80 -105 -132zM230 356h95q107 0 145 40t38 130q0 81 -44 118.5t-151 37.5h-83v-326zM230 341v-264q0 -39 20.5 -52.5t92.5 -15.5v-9h-316v9
q74 2 96 16.5t22 52.5v542q0 38 -22.5 52.5t-95.5 16.5v8h291q136 0 211.5 -45.5t75.5 -124.5q0 -144 -210 -177v-3q103 -11 141 -50.5t50 -127.5l6 -43q12 -72 35 -93t93 -21v-8q-50 -9 -103 -9q-62 0 -85 30t-32 103l-11 90q-9 75 -40.5 99t-120.5 24h-98z" />
    <glyph glyph-name="rcommaaccent" unicode="&#x157;" horiz-adv-x="389" 
d="M82 -262l-5 9q72 45 78 104l-4 1q-8 -8 -24 -8q-18 0 -30.5 12t-12.5 30q0 21 13 35t34 14q25 0 40.5 -18t15.5 -47q0 -80 -105 -132zM17 0v9q46 1 61.5 8t15.5 32v349q0 25 -15 35.5t-62 13.5v8l152 5v-113q24 51 61 84.5t75 33.5q33 0 50.5 -17.5t17.5 -43.5
q0 -22 -14.5 -37.5t-34.5 -15.5q-23 0 -37 14t-14 36q0 19 10 33q-59 -8 -113 -106v-279q0 -25 17.5 -32t70.5 -8v-9h-241z" />
    <glyph glyph-name="Rcaron" unicode="&#x158;" horiz-adv-x="683" 
d="M340 768l-121 179h12l117 -98l117 98h12l-128 -179h-9zM230 356h95q107 0 145 40t38 130q0 81 -44 118.5t-151 37.5h-83v-326zM230 341v-264q0 -39 20.5 -52.5t92.5 -15.5v-9h-316v9q74 2 96 16.5t22 52.5v542q0 38 -22.5 52.5t-95.5 16.5v8h291q136 0 211.5 -45.5
t75.5 -124.5q0 -144 -210 -177v-3q103 -11 141 -50.5t50 -127.5l6 -43q12 -72 35 -93t93 -21v-8q-50 -9 -103 -9q-62 0 -85 30t-32 103l-11 90q-9 75 -40.5 99t-120.5 24h-98z" />
    <glyph glyph-name="rcaron" unicode="&#x159;" horiz-adv-x="389" 
d="M201 528l-121 179h12l117 -98l117 98h12l-128 -179h-9zM17 0v9q46 1 61.5 8t15.5 32v349q0 25 -15 35.5t-62 13.5v8l152 5v-113q24 51 61 84.5t75 33.5q33 0 50.5 -17.5t17.5 -43.5q0 -22 -14.5 -37.5t-34.5 -15.5q-23 0 -37 14t-14 36q0 19 10 33q-59 -8 -113 -106v-279
q0 -25 17.5 -32t70.5 -8v-9h-241z" />
    <glyph glyph-name="Sacute" unicode="&#x15a;" horiz-adv-x="573" 
d="M275 768l41 91q36 80 46 90.5t25 10.5t25.5 -10.5t10.5 -25.5q0 -14 -12.5 -29.5t-58.5 -60.5l-69 -66h-8zM57 -18v246h9q42 -123 95.5 -175t142.5 -52q76 0 116 42t40 106t-40 99.5t-142 67.5q-106 33 -156 72.5t-50 119.5q0 91 66 147t160 56q81 0 155 -32l33 38h8
v-219h-8q-40 108 -86.5 153.5t-113.5 45.5q-63 0 -102.5 -37.5t-39.5 -101.5t39.5 -95.5t139.5 -63.5q103 -32 153.5 -73.5t50.5 -122.5q0 -87 -60.5 -152t-169.5 -65q-90 0 -178 46l-54 -50h-8z" />
    <glyph glyph-name="sacute" unicode="&#x15b;" horiz-adv-x="406" 
d="M178 528l41 91q36 80 46 90.5t25 10.5t25.5 -10.5t10.5 -25.5q0 -14 -12.5 -29.5t-58.5 -60.5l-69 -66h-8zM43 -10v163h8q48 -92 78.5 -120.5t86.5 -28.5q45 0 71.5 25.5t26.5 62.5q0 39 -25.5 62t-98.5 44q-78 22 -111 49.5t-33 78.5q0 59 45.5 99.5t111.5 40.5
q55 0 105 -28l26 28h8v-145h-8q-42 79 -69.5 105t-71.5 26q-41 0 -67.5 -23t-26.5 -60q0 -35 28 -56t96 -40q75 -22 108 -53t33 -83q0 -63 -43.5 -105t-111.5 -42q-64 0 -123 35l-35 -35h-8z" />
    <glyph glyph-name="Scedilla" unicode="&#x15e;" horiz-adv-x="573" 
d="M260 -247q-57 0 -97 36l7 10q33 -29 80 -29q32 0 47.5 17t15.5 46q0 28 -22 44.5t-56 16.5q-19 0 -37 -5l-4 7l99 90q-90 1 -174 46l-54 -50h-8v246h9q42 -123 95.5 -175t142.5 -52q76 0 116 42t40 106t-40 99.5t-142 67.5q-106 33 -156 72.5t-50 119.5q0 91 66 147
t160 56q81 0 155 -32l33 38h8v-219h-8q-40 108 -86.5 153.5t-113.5 45.5q-63 0 -102.5 -37.5t-39.5 -101.5t39.5 -95.5t139.5 -63.5q103 -32 153.5 -73.5t50.5 -122.5q0 -82 -56 -146t-156 -70l-62 -58l1 -2q56 0 85 -24.5t29 -61.5q0 -38 -30.5 -63t-77.5 -25z" />
    <glyph glyph-name="scedilla" unicode="&#x15f;" horiz-adv-x="406" 
d="M175 -247q-57 0 -97 36l7 10q33 -29 80 -29q32 0 47.5 17t15.5 46q0 28 -22 44.5t-56 16.5q-20 0 -37 -5l-4 7l103 94h-3q-64 0 -123 35l-35 -35h-8v163h8q48 -92 78.5 -120.5t86.5 -28.5q45 0 71.5 25.5t26.5 62.5q0 39 -25.5 62t-98.5 44q-78 22 -111 49.5t-33 78.5
q0 59 45.5 99.5t111.5 40.5q55 0 105 -28l26 28h8v-145h-8q-42 79 -69.5 105t-71.5 26q-41 0 -67.5 -23t-26.5 -60q0 -35 28 -56t96 -40q75 -22 108 -53t33 -83q0 -56 -35.5 -96.5t-92.5 -48.5l-68 -63l1 -2q56 0 85 -24.5t29 -61.5q0 -38 -30.5 -63t-77.5 -25z" />
    <glyph glyph-name="Scaron" unicode="&#x160;" horiz-adv-x="573" 
d="M298 768l-121 179h12l117 -98l117 98h12l-128 -179h-9zM57 -18v246h9q42 -123 95.5 -175t142.5 -52q76 0 116 42t40 106t-40 99.5t-142 67.5q-106 33 -156 72.5t-50 119.5q0 91 66 147t160 56q81 0 155 -32l33 38h8v-219h-8q-40 108 -86.5 153.5t-113.5 45.5
q-63 0 -102.5 -37.5t-39.5 -101.5t39.5 -95.5t139.5 -63.5q103 -32 153.5 -73.5t50.5 -122.5q0 -87 -60.5 -152t-169.5 -65q-90 0 -178 46l-54 -50h-8z" />
    <glyph glyph-name="scaron" unicode="&#x161;" horiz-adv-x="406" 
d="M208 528l-121 179h12l117 -98l117 98h12l-128 -179h-9zM43 -10v163h8q48 -92 78.5 -120.5t86.5 -28.5q45 0 71.5 25.5t26.5 62.5q0 39 -25.5 62t-98.5 44q-78 22 -111 49.5t-33 78.5q0 59 45.5 99.5t111.5 40.5q55 0 105 -28l26 28h8v-145h-8q-42 79 -69.5 105t-71.5 26
q-41 0 -67.5 -23t-26.5 -60q0 -35 28 -56t96 -40q75 -22 108 -53t33 -83q0 -63 -43.5 -105t-111.5 -42q-64 0 -123 35l-35 -35h-8z" />
    <glyph glyph-name="Tcommaaccent" unicode="&#x162;" horiz-adv-x="683" 
d="M292 -262l-5 9q72 45 78 104l-4 1q-8 -8 -24 -8q-18 0 -30.5 12t-12.5 30q0 21 13 35t34 14q25 0 40.5 -18t15.5 -47q0 -80 -105 -132zM174 0v9q76 2 101 16.5t25 52.5v604h-80q-55 0 -92.5 -39.5t-83.5 -147.5l-9 1l6 201h603l6 -201l-9 -1q-46 107 -83.5 147t-92.5 40
h-80v-604q0 -38 25 -52.5t101 -16.5v-9h-337z" />
    <glyph glyph-name="tcommaaccent" unicode="&#x163;" horiz-adv-x="335" 
d="M133 -262l-5 9q72 45 78 104l-4 1q-8 -8 -24 -8q-18 0 -30.5 12t-12.5 30q0 21 13 35t34 14q25 0 40.5 -18t15.5 -47q0 -80 -105 -132zM203 -11q-107 0 -107 126v320h-94v9l94 14v130l76 35v-168h146v-20h-146v-327q0 -88 63 -88q47 0 91 71l8 -6q-53 -96 -131 -96z" />
    <glyph glyph-name="Tcaron" unicode="&#x164;" horiz-adv-x="683" 
d="M334 768l-121 179h12l117 -98l117 98h12l-128 -179h-9zM174 0v9q76 2 101 16.5t25 52.5v604h-80q-55 0 -92.5 -39.5t-83.5 -147.5l-9 1l6 201h603l6 -201l-9 -1q-46 107 -83.5 147t-92.5 40h-80v-604q0 -38 25 -52.5t101 -16.5v-9h-337z" />
    <glyph glyph-name="tcaron" unicode="&#x165;" horiz-adv-x="335" 
d="M266 535l-2 107q0 9 -0.5 32.5t-0.5 30.5q0 51 39 51q37 0 37 -37q0 -17 -15 -57l-50 -127h-8zM203 -11q-107 0 -107 126v320h-94v9l94 14v130l76 35v-168h146v-20h-146v-327q0 -88 63 -88q47 0 91 71l8 -6q-53 -96 -131 -96z" />
    <glyph glyph-name="Umacron" unicode="&#x16a;" 
d="M394 -16q-123 0 -191.5 56.5t-68.5 165.5v414q0 38 -22.5 52.5t-95.5 16.5v8h313v-8q-71 -2 -90.5 -16t-19.5 -52v-393q0 -216 211 -216q86 0 134 47q60 60 60 168v346q0 59 -25 82.5t-103 33.5v8h260v-8q-72 -11 -93 -34t-21 -82v-353q0 -108 -63.5 -172t-184.5 -64z
M273 798v29h263v-29h-263z" />
    <glyph glyph-name="umacron" unicode="&#x16b;" horiz-adv-x="530" 
d="M202 -9q-58 0 -89.5 35.5t-31.5 101.5v271q0 24 -15 34.5t-60 13.5v8l151 5v-309q0 -119 88 -119q37 0 70 27.5t56 73.5v266q0 24 -15.5 34.5t-63.5 13.5v8l155 5v-413q0 -22 16.5 -30t60.5 -9v-8h-152v111q-73 -120 -170 -120zM131 558v29h263v-29h-263z" />
    <glyph glyph-name="Ubreve" unicode="&#x16c;" 
d="M394 -16q-123 0 -191.5 56.5t-68.5 165.5v414q0 38 -22.5 52.5t-95.5 16.5v8h313v-8q-71 -2 -90.5 -16t-19.5 -52v-393q0 -216 211 -216q86 0 134 47q60 60 60 168v346q0 59 -25 82.5t-103 33.5v8h260v-8q-72 -11 -93 -34t-21 -82v-353q0 -108 -63.5 -172t-184.5 -64z
M404 773q-54 0 -89.5 41t-43.5 108h12q18 -50 47 -70.5t75 -20.5q47 0 75 20.5t46 70.5h11q-8 -67 -43.5 -108t-89.5 -41z" />
    <glyph glyph-name="ubreve" unicode="&#x16d;" horiz-adv-x="530" 
d="M202 -9q-58 0 -89.5 35.5t-31.5 101.5v271q0 24 -15 34.5t-60 13.5v8l151 5v-309q0 -119 88 -119q37 0 70 27.5t56 73.5v266q0 24 -15.5 34.5t-63.5 13.5v8l155 5v-413q0 -22 16.5 -30t60.5 -9v-8h-152v111q-73 -120 -170 -120zM262 533q-54 0 -89.5 41t-43.5 108h12
q18 -50 47 -70.5t75 -20.5q47 0 75 20.5t46 70.5h11q-8 -67 -43.5 -108t-89.5 -41z" />
    <glyph glyph-name="Uring" unicode="&#x16e;" 
d="M404 773q-45 0 -74 30t-29 72t29 72t74 30q44 0 74 -30t30 -72t-29.5 -72t-74.5 -30zM404 785q28 0 44 24t16 66q0 90 -60 90q-59 0 -59 -90q0 -42 15.5 -66t43.5 -24zM394 -16q-123 0 -191.5 56.5t-68.5 165.5v414q0 38 -22.5 52.5t-95.5 16.5v8h313v-8
q-71 -2 -90.5 -16t-19.5 -52v-393q0 -216 211 -216q86 0 134 47q60 60 60 168v346q0 59 -25 82.5t-103 33.5v8h260v-8q-72 -11 -93 -34t-21 -82v-353q0 -108 -63.5 -172t-184.5 -64z" />
    <glyph glyph-name="uring" unicode="&#x16f;" horiz-adv-x="530" 
d="M262 533q-45 0 -74 30t-29 72t29 72t74 30q44 0 74 -30t30 -72t-29.5 -72t-74.5 -30zM262 545q28 0 44 24t16 66q0 90 -60 90q-59 0 -59 -90q0 -42 15.5 -66t43.5 -24zM202 -9q-58 0 -89.5 35.5t-31.5 101.5v271q0 24 -15 34.5t-60 13.5v8l151 5v-309q0 -119 88 -119
q37 0 70 27.5t56 73.5v266q0 24 -15.5 34.5t-63.5 13.5v8l155 5v-413q0 -22 16.5 -30t60.5 -9v-8h-152v111q-73 -120 -170 -120z" />
    <glyph glyph-name="Uhungarumlaut" unicode="&#x170;" 
d="M394 -16q-123 0 -191.5 56.5t-68.5 165.5v414q0 38 -22.5 52.5t-95.5 16.5v8h313v-8q-71 -2 -90.5 -16t-19.5 -52v-393q0 -216 211 -216q86 0 134 47q60 60 60 168v346q0 59 -25 82.5t-103 33.5v8h260v-8q-72 -11 -93 -34t-21 -82v-353q0 -108 -63.5 -172t-184.5 -64z
M457 768l44 91q40 80 49 89q10 12 26 12t25.5 -9.5t9.5 -25.5q0 -14 -13 -29.5t-61 -61.5l-72 -66h-8zM315 768l45 91q39 80 50 90q10 11 25 11t25 -9.5t10 -25.5q0 -14 -14 -30.5t-61 -60.5l-71 -66h-9z" />
    <glyph glyph-name="uhungarumlaut" unicode="&#x171;" horiz-adv-x="530" 
d="M202 -9q-58 0 -89.5 35.5t-31.5 101.5v271q0 24 -15 34.5t-60 13.5v8l151 5v-309q0 -119 88 -119q37 0 70 27.5t56 73.5v266q0 24 -15.5 34.5t-63.5 13.5v8l155 5v-413q0 -22 16.5 -30t60.5 -9v-8h-152v111q-73 -120 -170 -120zM315 528l44 91q40 80 49 89q10 12 26 12
t25.5 -9.5t9.5 -25.5q0 -14 -13 -29.5t-61 -61.5l-72 -66h-8zM173 528l45 91q39 80 50 90q10 11 25 11t25 -9.5t10 -25.5q0 -14 -14 -30.5t-61 -60.5l-71 -66h-9z" />
    <glyph glyph-name="Uogonek" unicode="&#x172;" 
d="M394 -16q-123 0 -191.5 56.5t-68.5 165.5v414q0 38 -22.5 52.5t-95.5 16.5v8h313v-8q-71 -2 -90.5 -16t-19.5 -52v-393q0 -216 211 -216q86 0 134 47q60 60 60 168v346q0 59 -25 82.5t-103 33.5v8h260v-8q-72 -11 -93 -34t-21 -82v-353q0 -97 -52 -159t-151 -74l-16 -17
q-61 -60 -61 -123q0 -31 17.5 -47t44.5 -16t64 17l5 -9q-49 -35 -99 -35q-40 0 -67 21.5t-27 57.5q0 31 21 60.5t79 76.5l14 12q-7 -1 -20 -1z" />
    <glyph glyph-name="uogonek" unicode="&#x173;" horiz-adv-x="530" 
d="M202 -9q-58 0 -89.5 35.5t-31.5 101.5v271q0 24 -15 34.5t-60 13.5v8l151 5v-309q0 -119 88 -119q37 0 70 27.5t56 73.5v266q0 24 -15.5 34.5t-63.5 13.5v8l155 5v-413q0 -22 16.5 -30t60.5 -9v-8h-42l-29 -30q-60 -60 -60 -123q0 -31 17 -47t44 -16q28 0 64 17l5 -9
q-49 -35 -99 -35q-40 0 -66.5 21.5t-26.5 57.5q0 32 21 61t79 76l33 27h-92v111q-73 -120 -170 -120z" />
    <glyph glyph-name="Wcircumflex" unicode="&#x174;" horiz-adv-x="1009" 
d="M380 768l128 179h9l121 -179h-12l-117 98l-117 -98h-12zM506 528l-17 53q-23 70 -43 87.5t-76 20.5v8h280v-8q-68 -3 -82 -20t4 -69l155 -482h3l135 425q26 86 11 112.5t-90 33.5v8h238v-8q-56 -6 -84.5 -38.5t-56.5 -117.5l-179 -554h-14l-174 523l-193 -523h-14
l-190 602q-20 64 -41.5 83t-80.5 25v8h286v-8q-65 -3 -79.5 -24t2.5 -65l143 -485h3z" />
    <glyph glyph-name="wcircumflex" unicode="&#x175;" horiz-adv-x="714" 
d="M247 528l128 179h9l121 -179h-12l-117 98l-117 -98h-12zM368 325l-17 48q-16 42 -31.5 57t-51.5 18v8h218v-8q-69 -4 -69 -42q0 -10 6 -26l103 -286h3l89 252q14 39 14 58q0 20 -14 30t-47 14v8h163v-8q-36 -5 -55.5 -23.5t-37.5 -67.5l-135 -369h-13l-117 317l-134 -317
h-11l-150 385q-17 41 -34 56.5t-56 18.5v8h223v-8q-67 -4 -67 -40q0 -10 6 -28l112 -288h3z" />
    <glyph glyph-name="Ycircumflex" unicode="&#x176;" horiz-adv-x="660" 
d="M364 333l137 236q39 64 29.5 88t-83.5 32v8h231v-8q-56 -7 -85.5 -31t-72.5 -96l-145 -245v-239q0 -38 25 -52t96 -16v-10h-326v9q76 2 98.5 16t22.5 53v221l-175 303q-28 48 -51 64.5t-71 22.5v8h296v-8q-76 -3 -90.5 -23.5t15.5 -66.5zM226 768l128 179h9l121 -179h-12
l-117 98l-117 -98h-12z" />
    <glyph glyph-name="ycircumflex" unicode="&#x177;" horiz-adv-x="476" 
d="M244 1l-165 372q-19 42 -36 56.5t-57 18.5v8h226v-8q-49 -3 -60.5 -19t3.5 -46l125 -296l103 260q21 52 11 73t-61 28v8h160v-8q-31 -4 -49 -22.5t-38 -67.5l-157 -387q-39 -97 -73.5 -133t-76.5 -36q-28 0 -46 18t-18 42q0 22 12.5 37t35.5 15q19 0 32.5 -14.5
t13.5 -35.5q0 -25 -17 -44q29 4 58.5 37.5t64.5 122.5zM134 528l128 179h9l121 -179h-12l-117 98l-117 -98h-12z" />
    <glyph glyph-name="Ydieresis" unicode="&#x178;" horiz-adv-x="660" 
d="M364 333l137 236q39 64 29.5 88t-83.5 32v8h231v-8q-56 -7 -85.5 -31t-72.5 -96l-145 -245v-239q0 -38 25 -52t96 -16v-10h-326v9q76 2 98.5 16t22.5 53v221l-175 303q-28 48 -51 64.5t-71 22.5v8h296v-8q-76 -3 -90.5 -23.5t15.5 -66.5zM449 773q-22 0 -36 14.5
t-14 36.5q0 21 14 36.5t35 15.5t35.5 -15.5t14.5 -37.5q0 -21 -14 -35.5t-35 -14.5zM285 773q-22 0 -36 14.5t-14 36.5q0 21 14 36.5t35 15.5t35.5 -15.5t14.5 -37.5q0 -21 -14 -35.5t-35 -14.5z" />
    <glyph glyph-name="Zacute" unicode="&#x179;" horiz-adv-x="624" 
d="M293 768l41 91q36 80 46 90.5t25 10.5t25.5 -10.5t10.5 -25.5q0 -14 -12.5 -29.5t-58.5 -60.5l-69 -66h-8zM38 0l-1 8l441 674h-217q-54 0 -94 -38t-94 -147l-9 1l20 199h499l1 -7l-441 -675h248q56 0 92 38t95 157l9 -2l-16 -208h-533z" />
    <glyph glyph-name="zacute" unicode="&#x17a;" horiz-adv-x="450" 
d="M217 528l41 91q36 80 46 90.5t25 10.5t25.5 -10.5t10.5 -25.5q0 -14 -12.5 -29.5t-58.5 -60.5l-69 -66h-8zM33 0l-2 9l299 432h-123q-43 0 -71 -27t-72 -113l-10 2l17 153h350l2 -8l-298 -432h135q44 0 77.5 31t70.5 116l10 -2l-16 -161h-369z" />
    <glyph glyph-name="Zdotaccent" unicode="&#x17b;" horiz-adv-x="624" 
d="M38 0l-1 8l441 674h-217q-54 0 -94 -38t-94 -147l-9 1l20 199h499l1 -7l-441 -675h248q56 0 92 38t95 157l9 -2l-16 -208h-533zM322 773q-22 0 -36.5 15t-14.5 38t14.5 38.5t36.5 15.5q23 0 37.5 -15.5t14.5 -38.5q0 -22 -15 -37.5t-37 -15.5z" />
    <glyph glyph-name="zdotaccent" unicode="&#x17c;" horiz-adv-x="450" 
d="M33 0l-2 9l299 432h-123q-43 0 -71 -27t-72 -113l-10 2l17 153h350l2 -8l-298 -432h135q44 0 77.5 31t70.5 116l10 -2l-16 -161h-369zM242 533q-22 0 -36.5 15t-14.5 38t14.5 38.5t36.5 15.5q23 0 37.5 -15.5t14.5 -38.5q0 -22 -15 -37.5t-37 -15.5z" />
    <glyph glyph-name="Zcaron" unicode="&#x17d;" horiz-adv-x="624" 
d="M317 768l-121 179h12l117 -98l117 98h12l-128 -179h-9zM38 0l-1 8l441 674h-217q-54 0 -94 -38t-94 -147l-9 1l20 199h499l1 -7l-441 -675h248q56 0 92 38t95 157l9 -2l-16 -208h-533z" />
    <glyph glyph-name="zcaron" unicode="&#x17e;" horiz-adv-x="450" 
d="M235 528l-121 179h12l117 -98l117 98h12l-128 -179h-9zM33 0l-2 9l299 432h-123q-43 0 -71 -27t-72 -113l-10 2l17 153h350l2 -8l-298 -432h135q44 0 77.5 31t70.5 116l10 -2l-16 -161h-369z" />
    <glyph glyph-name="Aringacute" unicode="&#x1fa;" horiz-adv-x="680" 
d="M314 920l41 91q36 80 46 90.5t25 10.5t25.5 -10.5t10.5 -25.5q0 -14 -12.5 -29.5t-58.5 -60.5l-69 -66h-8zM344 713q28 0 44 24.5t16 65.5q0 90 -60 90q-59 0 -59 -90q0 -42 15.5 -66t43.5 -24zM180 271l-41 -107q-35 -89 -22.5 -118.5t88.5 -36.5v-9h-229v9
q52 9 79.5 39t62.5 118l213 536q-39 4 -64.5 33t-25.5 68q0 42 29 72t74 30q44 0 74 -30t30 -72q0 -38 -25 -67t-64 -34l219 -585q25 -66 45 -84.5t78 -23.5v-9h-297v9q75 3 91.5 22t-3.5 67l-63 173h-249zM424 287l-113 313h-3l-122 -313h238z" />
    <glyph glyph-name="aringacute" unicode="&#x1fb;" horiz-adv-x="473" 
d="M164 -6q-58 0 -89.5 30.5t-31.5 74.5q0 66 62 100q30 16 68 27.5t88 21.5t54 11v68q0 64 -22.5 92t-74.5 28q-66 0 -93 -36q35 -16 35 -49q0 -22 -13.5 -36t-35.5 -14t-34.5 14.5t-12.5 35.5q0 43 48.5 71.5t116.5 28.5q162 0 162 -132v-248q0 -42 18 -54.5t63 4.5l3 -7
q-47 -29 -85 -29q-36 0 -53.5 18.5t-18.5 61.5h-3q-72 -82 -151 -82zM204 29q61 0 111 65v151q-115 -21 -153 -47.5t-38 -82.5q0 -86 80 -86zM211 773l41 91q36 80 46 90.5t25 10.5t25.5 -10.5t10.5 -25.5q0 -14 -12.5 -29.5t-58.5 -60.5l-69 -66h-8zM239 533q-45 0 -74 30
t-29 72t29 72t74 30q44 0 74 -30t30 -72t-29.5 -72t-74.5 -30zM239 545q28 0 44 24t16 66q0 90 -60 90q-59 0 -59 -90q0 -42 15.5 -66t43.5 -24z" />
    <glyph glyph-name="AEacute" unicode="&#x1fc;" horiz-adv-x="1004" 
d="M560 768l41 91q36 80 46 90.5t25 10.5t25.5 -10.5t10.5 -25.5q0 -14 -12.5 -29.5t-58.5 -60.5l-69 -66h-8zM240 285l-85 -134q-45 -71 -45 -99q0 -19 18 -28.5t58 -14.5v-9h-228v9q53 8 91.5 41.5t91.5 115.5l281 435q16 26 16 41q0 37 -102 47v8h590l3 -205l-9 -1
q-41 112 -77 151.5t-106 39.5h-169v-312h95q54 0 80 27.5t45 109.5h9v-290h-9q-19 82 -45 110t-80 28h-95v-340h185q77 0 116 42t82 161l9 -1l-5 -217h-590v9q73 2 95.5 16.5t22.5 52.5v207h-243zM483 301v359h-3l-230 -359h233z" />
    <glyph glyph-name="aeacute" unicode="&#x1fd;" horiz-adv-x="754" 
d="M534 466q91 0 140.5 -59t44.5 -145h-317q-1 -11 -1 -32v-1q0 -93 42.5 -150t116.5 -57q47 0 82.5 24t69.5 70l9 -6q-73 -120 -189 -120q-64 0 -111.5 32.5t-69.5 90.5h-3q-29 -56 -78 -87.5t-106 -31.5q-58 0 -89.5 30.5t-31.5 74.5q0 66 62 100q29 16 70.5 27.5t91.5 21
t57 11.5v68q0 120 -106 120q-66 0 -93 -36q35 -16 35 -49q0 -22 -13.5 -36t-35.5 -14t-34.5 14.5t-12.5 35.5q0 43 48.5 71.5t116.5 28.5q117 0 149 -74q60 78 156 78zM529 452q-54 0 -86.5 -45.5t-39.5 -131.5h234q12 177 -108 177zM208 29q34 0 66.5 20t49.5 53v142
q-118 -20 -159 -47t-41 -82q0 -41 22 -63.5t62 -22.5zM378 528l41 91q36 80 46 90.5t25 10.5t25.5 -10.5t10.5 -25.5q0 -14 -12.5 -29.5t-58.5 -60.5l-69 -66h-8z" />
    <glyph glyph-name="Oslashacute" unicode="&#x1fe;" horiz-adv-x="758" 
d="M379 -17q83 0 158 45t123.5 130.5t48.5 191.5q0 162 -102 267l93 117h-26l-82 -103q-92 83 -212 83q-130 0 -230.5 -103.5t-100.5 -263.5q0 -163 103 -268l-93 -116h26l81 103q91 -83 213 -83zM376 700q129 0 187 -105l-378 -473q-37 83 -37 227q0 99 17 169t49 109
t71.5 56t90.5 17zM382 -3q-129 0 -187 105l378 472q37 -85 37 -226q0 -191 -60.5 -271t-167.5 -80zM348 768l41 91q36 80 46 90.5t25 10.5t25.5 -10.5t10.5 -25.5q0 -14 -12.5 -29.5t-58.5 -60.5l-69 -66h-8z" />
    <glyph glyph-name="oslashacute" unicode="&#x1ff;" horiz-adv-x="519" 
d="M69 -28h-24l62 79q-71 69 -71 176q0 101 68 170t156 69q77 0 137 -49l53 67h24l-62 -79q72 -69 72 -175q0 -101 -68 -170.5t-156 -69.5q-78 0 -138 49zM121 229q0 -83 20 -135l229 288q-37 71 -115 71q-134 0 -134 -224zM264 4q134 0 134 224q0 83 -20 135l-229 -289
q36 -70 115 -70zM233 528l41 91q36 80 46 90.5t25 10.5t25.5 -10.5t10.5 -25.5q0 -14 -12.5 -29.5t-58.5 -60.5l-69 -66h-8z" />
    <glyph glyph-name="Scommaaccent" unicode="&#x218;" horiz-adv-x="573" 
d="M239 -262l-5 9q72 45 78 104l-4 1q-8 -8 -24 -8q-18 0 -30.5 12t-12.5 30q0 21 13 35t34 14q25 0 40.5 -18t15.5 -47q0 -80 -105 -132zM57 -18v246h9q42 -123 95.5 -175t142.5 -52q76 0 116 42t40 106t-40 99.5t-142 67.5q-106 33 -156 72.5t-50 119.5q0 91 66 147
t160 56q81 0 155 -32l33 38h8v-219h-8q-40 108 -86.5 153.5t-113.5 45.5q-63 0 -102.5 -37.5t-39.5 -101.5t39.5 -95.5t139.5 -63.5q103 -32 153.5 -73.5t50.5 -122.5q0 -87 -60.5 -152t-169.5 -65q-90 0 -178 46l-54 -50h-8z" />
    <glyph glyph-name="scommaaccent" unicode="&#x219;" horiz-adv-x="406" 
d="M151 -262l-5 9q72 45 78 104l-4 1q-8 -8 -24 -8q-18 0 -30.5 12t-12.5 30q0 21 13 35t34 14q25 0 40.5 -18t15.5 -47q0 -80 -105 -132zM43 -10v163h8q48 -92 78.5 -120.5t86.5 -28.5q45 0 71.5 25.5t26.5 62.5q0 39 -25.5 62t-98.5 44q-78 22 -111 49.5t-33 78.5
q0 59 45.5 99.5t111.5 40.5q55 0 105 -28l26 28h8v-145h-8q-42 79 -69.5 105t-71.5 26q-41 0 -67.5 -23t-26.5 -60q0 -35 28 -56t96 -40q75 -22 108 -53t33 -83q0 -63 -43.5 -105t-111.5 -42q-64 0 -123 35l-35 -35h-8z" />
    <glyph glyph-name="schwa" unicode="&#x259;" horiz-adv-x="471" 
d="M221 466q93 0 153.5 -65t60.5 -167q0 -100 -63.5 -172t-151.5 -72q-91 0 -141 59.5t-45 144.5h318q0 5 0.5 15.5t0.5 16.5v1q0 93 -42.5 150t-116.5 57q-47 0 -82.5 -24t-70.5 -70l-9 6q75 120 189 120zM224 4q54 0 87 45.5t40 131.5h-235q-10 -177 108 -177z" />
    <glyph glyph-name="circumflex" unicode="&#x2c6;" horiz-adv-x="299" 
d="M21 528l128 179h9l121 -179h-12l-117 98l-117 -98h-12z" />
    <glyph glyph-name="caron" unicode="&#x2c7;" horiz-adv-x="299" 
d="M142 528l-121 179h12l117 -98l117 98h12l-128 -179h-9z" />
    <glyph glyph-name="breve" unicode="&#x2d8;" horiz-adv-x="336" 
d="M168 533q-54 0 -89.5 41t-43.5 108h12q18 -50 47 -70.5t75 -20.5q47 0 75 20.5t46 70.5h11q-8 -67 -43.5 -108t-89.5 -41z" />
    <glyph glyph-name="dotaccent" unicode="&#x2d9;" horiz-adv-x="192" 
d="M96 533q-22 0 -36.5 15t-14.5 38t14.5 38.5t36.5 15.5q23 0 37.5 -15.5t14.5 -38.5q0 -22 -15 -37.5t-37 -15.5z" />
    <glyph glyph-name="ring" unicode="&#x2da;" horiz-adv-x="258" 
d="M129 533q-45 0 -74 30t-29 72t29 72t74 30q44 0 74 -30t30 -72t-29.5 -72t-74.5 -30zM129 545q28 0 44 24t16 66q0 90 -60 90q-59 0 -59 -90q0 -42 15.5 -66t43.5 -24z" />
    <glyph glyph-name="ogonek" unicode="&#x2db;" horiz-adv-x="269" 
d="M112 -243q-40 0 -67 21.5t-27 57.5q0 31 21 60.5t79 76.5l42 34h17l-36 -37q-61 -60 -61 -123q0 -31 17.5 -47t44.5 -16t64 17l5 -9q-49 -35 -99 -35z" />
    <glyph glyph-name="tilde" unicode="&#x2dc;" horiz-adv-x="331" 
d="M14 523q10 59 31.5 88t58.5 29q24 0 78 -24.5t72 -24.5q36 0 53 62h11q-20 -117 -90 -117q-24 0 -77.5 24.5t-72.5 24.5q-36 0 -53 -62h-11z" />
    <glyph glyph-name="hungarumlaut" unicode="&#x2dd;" horiz-adv-x="288" 
d="M136 528l44 91q40 80 49 89q10 12 26 12t25.5 -9.5t9.5 -25.5q0 -14 -13 -29.5t-61 -61.5l-72 -66h-8zM-6 528l45 91q39 80 50 90q10 11 25 11t25 -9.5t10 -25.5q0 -14 -14 -30.5t-61 -60.5l-71 -66h-9z" />
    <glyph glyph-name="commaaccent" unicode="&#x326;" horiz-adv-x="217" 
d="M53 -262l-5 9q72 45 78 104l-4 1q-8 -8 -24 -8q-18 0 -30.5 12t-12.5 30q0 21 13 35t34 14q25 0 40.5 -18t15.5 -47q0 -80 -105 -132z" />
    <glyph glyph-name="Wgrave" unicode="&#x1e80;" horiz-adv-x="1009" 
d="M506 528l-17 53q-23 70 -43 87.5t-76 20.5v8h280v-8q-68 -3 -82 -20t4 -69l155 -482h3l135 425q26 86 11 112.5t-90 33.5v8h238v-8q-56 -6 -84.5 -38.5t-56.5 -117.5l-179 -554h-14l-174 523l-193 -523h-14l-190 602q-20 64 -41.5 83t-80.5 25v8h286v-8q-65 -3 -79.5 -24
t2.5 -65l143 -485h3zM528 768l-69 66q-46 45 -58.5 60.5t-12.5 29.5q0 15 10.5 25.5t26.5 10.5q17 0 26.5 -13t31.5 -62q8 -16 12 -26l41 -91h-8z" />
    <glyph glyph-name="wgrave" unicode="&#x1e81;" horiz-adv-x="714" 
d="M368 325l-17 48q-16 42 -31.5 57t-51.5 18v8h218v-8q-69 -4 -69 -42q0 -10 6 -26l103 -286h3l89 252q14 39 14 58q0 20 -14 30t-47 14v8h163v-8q-36 -5 -55.5 -23.5t-37.5 -67.5l-135 -369h-13l-117 317l-134 -317h-11l-150 385q-17 41 -34 56.5t-56 18.5v8h223v-8
q-67 -4 -67 -40q0 -10 6 -28l112 -288h3zM389 528l-69 66q-46 45 -58.5 60.5t-12.5 29.5q0 15 10.5 25.5t26.5 10.5q17 0 26.5 -13t31.5 -62q8 -16 12 -26l41 -91h-8z" />
    <glyph glyph-name="Wacute" unicode="&#x1e82;" horiz-adv-x="1009" 
d="M490 768l41 91q36 80 46 90.5t25 10.5t25.5 -10.5t10.5 -25.5q0 -14 -12.5 -29.5t-58.5 -60.5l-69 -66h-8zM506 528l-17 53q-23 70 -43 87.5t-76 20.5v8h280v-8q-68 -3 -82 -20t4 -69l155 -482h3l135 425q26 86 11 112.5t-90 33.5v8h238v-8q-56 -6 -84.5 -38.5
t-56.5 -117.5l-179 -554h-14l-174 523l-193 -523h-14l-190 602q-20 64 -41.5 83t-80.5 25v8h286v-8q-65 -3 -79.5 -24t2.5 -65l143 -485h3z" />
    <glyph glyph-name="wacute" unicode="&#x1e83;" horiz-adv-x="714" 
d="M359 528l41 91q36 80 46 90.5t25 10.5t25.5 -10.5t10.5 -25.5q0 -14 -12.5 -29.5t-58.5 -60.5l-69 -66h-8zM368 325l-17 48q-16 42 -31.5 57t-51.5 18v8h218v-8q-69 -4 -69 -42q0 -10 6 -26l103 -286h3l89 252q14 39 14 58q0 20 -14 30t-47 14v8h163v-8
q-36 -5 -55.5 -23.5t-37.5 -67.5l-135 -369h-13l-117 317l-134 -317h-11l-150 385q-17 41 -34 56.5t-56 18.5v8h223v-8q-67 -4 -67 -40q0 -10 6 -28l112 -288h3z" />
    <glyph glyph-name="Wdieresis" unicode="&#x1e84;" horiz-adv-x="1009" 
d="M591 773q-22 0 -36 14.5t-14 36.5q0 21 14 36.5t35 15.5t35.5 -15.5t14.5 -37.5q0 -21 -14 -35.5t-35 -14.5zM427 773q-22 0 -36 14.5t-14 36.5q0 21 14 36.5t35 15.5t35.5 -15.5t14.5 -37.5q0 -21 -14 -35.5t-35 -14.5zM506 528l-17 53q-23 70 -43 87.5t-76 20.5v8h280
v-8q-68 -3 -82 -20t4 -69l155 -482h3l135 425q26 86 11 112.5t-90 33.5v8h238v-8q-56 -6 -84.5 -38.5t-56.5 -117.5l-179 -554h-14l-174 523l-193 -523h-14l-190 602q-20 64 -41.5 83t-80.5 25v8h286v-8q-65 -3 -79.5 -24t2.5 -65l143 -485h3z" />
    <glyph glyph-name="wdieresis" unicode="&#x1e85;" horiz-adv-x="714" 
d="M458 533q-22 0 -36 14.5t-14 36.5q0 21 14 36.5t35 15.5t35.5 -15.5t14.5 -37.5q0 -21 -14 -35.5t-35 -14.5zM294 533q-22 0 -36 14.5t-14 36.5q0 21 14 36.5t35 15.5t35.5 -15.5t14.5 -37.5q0 -21 -14 -35.5t-35 -14.5zM368 325l-17 48q-16 42 -31.5 57t-51.5 18v8h218
v-8q-69 -4 -69 -42q0 -10 6 -26l103 -286h3l89 252q14 39 14 58q0 20 -14 30t-47 14v8h163v-8q-36 -5 -55.5 -23.5t-37.5 -67.5l-135 -369h-13l-117 317l-134 -317h-11l-150 385q-17 41 -34 56.5t-56 18.5v8h223v-8q-67 -4 -67 -40q0 -10 6 -28l112 -288h3z" />
    <glyph glyph-name="Ygrave" unicode="&#x1ef2;" horiz-adv-x="660" 
d="M364 333l137 236q39 64 29.5 88t-83.5 32v8h231v-8q-56 -7 -85.5 -31t-72.5 -96l-145 -245v-239q0 -38 25 -52t96 -16v-10h-326v9q76 2 98.5 16t22.5 53v221l-175 303q-28 48 -51 64.5t-71 22.5v8h296v-8q-76 -3 -90.5 -23.5t15.5 -66.5zM370 768l-69 66
q-46 45 -58.5 60.5t-12.5 29.5q0 15 10.5 25.5t26.5 10.5q17 0 26.5 -13t31.5 -62q8 -16 12 -26l41 -91h-8z" />
    <glyph glyph-name="ygrave" unicode="&#x1ef3;" horiz-adv-x="476" 
d="M244 1l-165 372q-19 42 -36 56.5t-57 18.5v8h226v-8q-49 -3 -60.5 -19t3.5 -46l125 -296l103 260q21 52 11 73t-61 28v8h160v-8q-31 -4 -49 -22.5t-38 -67.5l-157 -387q-39 -97 -73.5 -133t-76.5 -36q-28 0 -46 18t-18 42q0 22 12.5 37t35.5 15q19 0 32.5 -14.5
t13.5 -35.5q0 -25 -17 -44q29 4 58.5 37.5t64.5 122.5zM271 528l-69 66q-46 45 -58.5 60.5t-12.5 29.5q0 15 10.5 25.5t26.5 10.5q17 0 26.5 -13t31.5 -62q8 -16 12 -26l41 -91h-8z" />
    <glyph glyph-name="enspace" unicode="&#x2002;" horiz-adv-x="500" 
 />
    <glyph glyph-name="emspace" unicode="&#x2003;" horiz-adv-x="1000" 
 />
    <glyph glyph-name="threeperemspace" unicode="&#x2004;" horiz-adv-x="333" 
 />
    <glyph glyph-name="fourperemspace" unicode="&#x2005;" horiz-adv-x="250" 
 />
    <glyph glyph-name="thinspace" unicode="&#x2009;" horiz-adv-x="133" 
 />
    <glyph glyph-name="hairspace" unicode="&#x200a;" horiz-adv-x="75" 
 />
    <glyph glyph-name="endash" unicode="&#x2013;" horiz-adv-x="540" 
d="M55 254v17h430v-17h-430z" />
    <glyph glyph-name="emdash" unicode="&#x2014;" horiz-adv-x="790" 
d="M55 254v17h680v-17h-680z" />
    <glyph glyph-name="quoteleft" unicode="&#x2018;" horiz-adv-x="209" 
d="M109 476q-30 0 -47 19t-17 50q0 98 138 162l6 -9q-46 -24 -75 -59.5t-33 -68.5l4 -2q10 9 27 9q20 0 34 -13t14 -34q0 -22 -15 -38t-36 -16z" />
    <glyph glyph-name="quoteright" unicode="&#x2019;" horiz-adv-x="209" 
d="M25 475l-6 10q46 24 75 59.5t33 68.5l-4 2q-10 -10 -27 -10q-20 0 -34 13.5t-14 34.5q0 22 15 38t36 16q30 0 47 -19t17 -51q0 -97 -138 -162z" />
    <glyph glyph-name="quotesinglbase" unicode="&#x201a;" horiz-adv-x="209" 
d="M25 -138l-6 10q46 24 75 59.5t33 68.5l-4 2q-10 -10 -27 -10q-20 0 -34 13.5t-14 34.5q0 22 15 38t36 16q30 0 47 -19t17 -51q0 -97 -138 -162z" />
    <glyph glyph-name="quotedblleft" unicode="&#x201c;" horiz-adv-x="371" 
d="M271 476q-30 0 -47 19t-17 50q0 98 138 162l6 -9q-46 -24 -75 -59.5t-33 -68.5l4 -2q10 9 27 9q20 0 34 -13t14 -34q0 -22 -15 -38t-36 -16zM109 476q-30 0 -47 19t-17 50q0 98 138 162l6 -9q-46 -24 -75 -59.5t-33 -68.5l4 -2q10 9 27 9q20 0 34 -13t14 -34
q0 -22 -15 -38t-36 -16z" />
    <glyph glyph-name="quotedblright" unicode="&#x201d;" horiz-adv-x="371" 
d="M187 475l-6 10q46 24 75 59.5t33 68.5l-4 2q-10 -10 -27 -10q-20 0 -34 13.5t-14 34.5q0 22 15 38t36 16q30 0 47 -19t17 -51q0 -97 -138 -162zM25 475l-6 10q46 24 75 59.5t33 68.5l-4 2q-10 -10 -27 -10q-20 0 -34 13.5t-14 34.5q0 22 15 38t36 16q30 0 47 -19t17 -51
q0 -97 -138 -162z" />
    <glyph glyph-name="quotedblbase" unicode="&#x201e;" horiz-adv-x="371" 
d="M187 -138l-6 10q46 24 75 59.5t33 68.5l-4 2q-10 -10 -27 -10q-20 0 -34 13.5t-14 34.5q0 22 15 38t36 16q30 0 47 -19t17 -51q0 -97 -138 -162zM25 -138l-6 10q46 24 75 59.5t33 68.5l-4 2q-10 -10 -27 -10q-20 0 -34 13.5t-14 34.5q0 22 15 38t36 16q30 0 47 -19
t17 -51q0 -97 -138 -162z" />
    <glyph glyph-name="dagger" unicode="&#x2020;" horiz-adv-x="549" 
d="M270 -107q-6 128 -19.5 254.5t-24.5 163.5l30 55q11 24 11 41q0 26 -18 43t-49 17q-24 0 -64.5 -18.5t-58.5 -18.5q-17 0 -30 8.5t-13 25.5q0 20 20.5 32.5t58.5 12.5q66 0 153 -54l3 2l-17 111q-17 110 -17 125q0 23 11 37.5t29 14.5t28.5 -14.5t10.5 -37.5
q0 -15 -17 -125l-17 -111l3 -2q87 54 153 54q79 0 79 -45q0 -17 -13 -25.5t-29 -8.5q-18 0 -59 18.5t-64 18.5q-32 0 -49.5 -17t-17.5 -43q0 -21 11 -41l29 -55q-10 -39 -24 -166t-20 -252h-9z" />
    <glyph glyph-name="daggerdbl" unicode="&#x2021;" horiz-adv-x="549" 
d="M274 -109q-18 0 -28.5 13.5t-10.5 35.5q0 10 2.5 25.5t7 43t7.5 48.5l17 108l-3 2q-88 -53 -153 -53q-79 0 -79 45q0 17 13 25.5t30 8.5q18 0 58.5 -19t64.5 -19q31 0 49 15.5t18 39.5q0 21 -10 43l-26 65l26 65q10 24 10 42q0 24 -18 40t-49 16q-24 0 -64.5 -18.5
t-58.5 -18.5q-17 0 -30 8.5t-13 25.5q0 20 20.5 32.5t58.5 12.5q64 0 153 -54l3 3l-17 107q-17 108 -17 117q0 22 10.5 35.5t29.5 13.5q18 0 28.5 -13.5t10.5 -35.5q0 -9 -17 -117l-17 -107l3 -3q89 54 153 54q79 0 79 -45q0 -17 -13 -25.5t-29 -8.5q-18 0 -59 18.5
t-64 18.5q-32 0 -49.5 -15t-17.5 -40q0 -16 9 -43l26 -65l-26 -65q-9 -22 -9 -43q0 -24 17.5 -39.5t49.5 -15.5q23 0 64 19t59 19q16 0 29 -8.5t13 -25.5q0 -45 -79 -45q-65 0 -153 53l-3 -2l17 -108q17 -106 17 -117q0 -22 -10.5 -35.5t-29.5 -13.5z" />
    <glyph glyph-name="bullet" unicode="&#x2022;" horiz-adv-x="454" 
d="M227 210q-49 0 -84 34.5t-35 83.5t35 84.5t84 35.5t84.5 -35t35.5 -85q0 -49 -35 -83.5t-85 -34.5z" />
    <glyph glyph-name="ellipsis" unicode="&#x2026;" horiz-adv-x="601" 
d="M497 -16q-23 0 -39 15.5t-16 38.5t16 38.5t39 15.5q22 0 38 -15.5t16 -37.5q0 -23 -15.5 -39t-38.5 -16zM301 -16q-23 0 -39 15.5t-16 38.5t16 38.5t39 15.5q22 0 38 -15.5t16 -37.5q0 -23 -15.5 -39t-38.5 -16zM105 -16q-23 0 -39 15.5t-16 38.5t16 38.5t39 15.5
q22 0 38 -15.5t16 -37.5q0 -23 -15.5 -39t-38.5 -16z" />
    <glyph glyph-name="guilsinglleft" unicode="&#x2039;" horiz-adv-x="300" 
d="M238 29l-183 176q-14 13 -14 19t14 19l183 176l9 -6l-142 -188l142 -191z" />
    <glyph glyph-name="guilsinglright" unicode="&#x203a;" horiz-adv-x="300" 
d="M62 29l-8 6l141 189l-141 190l8 6l184 -176q14 -14 14 -20q0 -5 -14 -19z" />
    <glyph glyph-name="fraction" unicode="&#x2044;" horiz-adv-x="597" 
d="M43 -31l246 356l241 352h25l-245 -356l-243 -352h-24z" />
    <glyph glyph-name="Euro" unicode="&#x20ac;" horiz-adv-x="670" 
d="M447 270h-237q14 -111 73.5 -173t148.5 -62q62 0 110 32.5t76 88.5l11 -6q-78 -167 -231 -167q-121 0 -194 81.5t-87 205.5h-81v16h79q-1 11 -1 35q0 29 5 62h-83v16h85q23 119 108 198.5t202 79.5q83 0 137 -38.5t54 -92.5q0 -27 -15.5 -45.5t-38.5 -18.5q-26 0 -43 15
t-17 43q0 46 48 61q-8 22 -45 42.5t-82 20.5q-91 0 -150.5 -65.5t-70.5 -199.5h239v-16h-240q-1 -14 -1 -44q0 -19 2 -53h239v-16z" />
    <glyph glyph-name="published" unicode="&#x2117;" horiz-adv-x="834" 
d="M417 -34q-162 0 -272.5 110t-110.5 273q0 161 110.5 271.5t272.5 110.5t272.5 -110.5t110.5 -271.5q0 -163 -110.5 -273t-272.5 -110zM417 -20q155 0 260.5 107.5t105.5 261.5t-105 261t-261 107q-155 0 -260.5 -107t-105.5 -261q0 -153 105.5 -261t260.5 -108zM260 157
v9q38 1 51 7t13 21v317q0 15 -13 21.5t-51 7.5v8h165q77 0 117.5 -30t40.5 -80t-41.5 -82.5t-120.5 -32.5h-39v-129q0 -15 13.5 -21.5t55.5 -7.5v-8h-191zM382 335h41q55 0 76.5 23.5t21.5 78.5q0 100 -96 100h-43v-202z" />
    <glyph glyph-name="servicemark" unicode="&#x2120;" horiz-adv-x="548" 
d="M50 548h8q26 -66 75 -66q24 0 37 12t13 31q0 16 -13 27t-47 21q-36 12 -52 24t-16 39q0 30 22.5 48t55.5 18q26 0 49 -9l10 11h6v-69h-7q-23 57 -61 57q-20 0 -33.5 -11t-13.5 -29q0 -16 13 -25.5t46 -19.5q34 -10 50.5 -23.5t16.5 -41.5q0 -29 -20.5 -49.5t-58.5 -20.5
q-24 0 -58 12l-15 -13h-7v77zM234 477v7q23 2 29.5 10.5t6.5 34.5v131q0 29 -36 30v7h84l61 -162h4l59 162h81v-7q-36 -2 -36 -18v-170q0 -16 36 -17v-8h-103v8q30 1 30 17v169h-5l-72 -195h-9l-75 195h-6v-142q0 -26 6.5 -34t28.5 -11v-7h-84z" />
    <glyph glyph-name="trademark" unicode="&#x2122;" horiz-adv-x="583" 
d="M269 477v7q23 2 29.5 10.5t6.5 34.5v131q0 29 -36 30v7h84l61 -162h4l59 162h81v-7q-36 -2 -36 -18v-170q0 -16 36 -17v-8h-103v8q30 1 30 17v169h-5l-72 -195h-9l-75 195h-6v-142q0 -26 6.5 -34t28.5 -11v-7h-84zM90 477v8q38 0 38 17v186h-10q-24 0 -36 -13.5
t-26 -51.5h-8l3 74h191l3 -74h-8q-13 38 -25.5 51.5t-37.5 13.5h-9v-186q0 -17 38 -17v-8h-113z" />
    <glyph glyph-name="minus" unicode="&#x2212;" horiz-adv-x="536" 
d="M54 317v17h428v-17h-428z" />
    <glyph glyph-name="registered.alt" horiz-adv-x="834" 
d="M417 -34q-162 0 -272.5 110t-110.5 273q0 161 110.5 271.5t272.5 110.5t272.5 -110.5t110.5 -271.5q0 -163 -110.5 -273t-272.5 -110zM417 -20q155 0 260.5 107.5t105.5 261.5t-105 261t-261 107q-155 0 -260.5 -107t-105.5 -261q0 -153 105.5 -261t260.5 -108zM364 360
h46q56 0 76.5 19.5t20.5 69.5q0 46 -23 67t-75 21h-45v-177zM364 349v-155q0 -15 12 -21t50 -7v-9h-184v9q38 1 51 7t13 21v317q0 15 -13 21.5t-51 7.5v8h176q78 0 114.5 -27t36.5 -68q0 -80 -107 -97v-2q50 -4 70.5 -23.5t26.5 -59.5l7 -52q4 -34 14.5 -44t46.5 -10v-8
q-18 -2 -31 -2q-51 0 -70 15.5t-22 54.5l-4 47q-4 45 -22 61t-69 16h-45z" />
    <glyph glyph-name="percent.alt" horiz-adv-x="850" 
d="M378 500q0 -74 -51 -125t-116 -51q-68 0 -118 50t-50 124q0 73 51 124.5t115 51.5q69 0 119 -49.5t50 -124.5zM160 -10l259 348l242 332h31l-258 -346l-243 -334h-31zM207 661q-45 0 -68 -37t-23 -124q0 -163 97 -163q46 0 68.5 37t22.5 124q0 88 -25 125.5t-72 37.5z
M474 160q0 74 51 125t116 51q68 0 118 -49.5t50 -124.5q0 -73 -51 -124.5t-115 -51.5q-69 0 -119 50t-50 124zM645 -1q45 0 68 37t23 124q0 163 -97 163q-46 0 -68.5 -37t-22.5 -124q0 -163 97 -163z" />
    <glyph glyph-name="NUL" horiz-adv-x="0" 
 />
    <glyph glyph-name="hfjslug" horiz-adv-x="694" 
d="M644 -200h-208l-8 14h-163l-8 -14h-207v303q14 0 23 9.5t9 22.5t-9.5 22.5t-22.5 9.5v554h100l30 79h334l29 -79h101v-921zM400 563v-172h15v78h38v14h-38v66h43v14h-58zM184 563v-172h15v79h47v-79h15v172h-15v-79h-47v79h-15zM460 394q10 -4 21 -4q31 0 31 36v137h-16
v-137q0 -22 -16 -22q-8 0 -20 5v-15zM371 465l-13 3q-4 -18 -8 -30h-1l-16 31q23 21 23 42q0 12 -7 21.5t-20 9.5q-12 0 -20 -9.5t-8 -21.5q0 -13 14 -39q-23 -18 -23 -47q0 -16 8 -26.5t21 -10.5q19 0 29 24h1l12 -24l12 6l-17 32q6 14 13 39zM523 323v-46h8v12l8 8l15 -20
h10l-20 26l18 20h-10l-20 -24h-1v24h-8zM488 292l10 -15h9l-12 17q10 4 10 14q0 15 -17 15h-20v-46h8v15h12zM426 276q10 0 17 7t7 17q0 9 -7 16.5t-17 7.5t-17 -7.5t-7 -16.5q0 -10 7 -17t17 -7zM370 301l-13 22h-9l18 -29v-17h8v17l18 29h-9zM193 323v-46h34v7h-26v13h23
v7h-23v12h26v7h-34zM132 323v-46h8v32l25 -32h7v46h-8v-32l-25 32h-7zM241 323l14 -47h8l11 34h1l11 -34h8l14 47h-8l-10 -35h-1l-11 35h-7l-11 -35h-1l-10 35h-8zM327 479q-12 22 -12 32q0 19 14 19q13 0 13 -19q0 -15 -15 -32zM342 423q-8 -21 -20 -21q-16 0 -16 25
q0 19 16 35zM487 299h-11v17h11q10 0 10 -8q0 -9 -10 -9zM426 283q-16 0 -16 17q0 6 4.5 11.5t11.5 5.5t11.5 -5.5t4.5 -11.5q0 -17 -16 -17z" />
    <glyph glyph-name="i.dot" horiz-adv-x="266" 
d="M131 557q-22 0 -36.5 15t-14.5 38t14.5 39t36.5 16t37 -15.5t15 -38.5t-15 -38.5t-37 -15.5zM22 0v9q46 1 61.5 8t15.5 32v349q0 25 -15 35.5t-62 13.5v8l153 5v-411q0 -25 15 -32t61 -8v-9h-229z" />
    <glyph glyph-name="caron.alt" horiz-adv-x="135" 
d="M39 535l-2 107q0 9 -0.5 32.5t-0.5 30.5q0 51 39 51q37 0 37 -37q0 -17 -15 -57l-50 -127h-8z" />
    </font>
</defs>
</svg>
